<svg width="20" height="20" viewBox="0 0 20 20" fill="none" xmlns="http://www.w3.org/2000/svg">
<path d="M17.5 18.3333H2.5C2.15833 18.3333 1.875 18.0499 1.875 17.7083C1.875 17.3666 2.15833 17.0833 2.5 17.0833H17.5C17.8417 17.0833 18.125 17.3666 18.125 17.7083C18.125 18.0499 17.8417 18.3333 17.5 18.3333Z" fill="#9747FF"/>
<path d="M15.8495 2.90005C14.2328 1.28338 12.6495 1.24172 10.9912 2.90005L9.98283 3.90838C9.89949 3.99172 9.86616 4.12505 9.89949 4.24172C10.5328 6.45005 12.2995 8.21672 14.5078 8.85005C14.5412 8.85838 14.5745 8.86672 14.6078 8.86672C14.6995 8.86672 14.7828 8.83338 14.8495 8.76672L15.8495 7.75838C16.6745 6.94172 17.0745 6.15005 17.0745 5.35005C17.0828 4.52505 16.6828 3.72505 15.8495 2.90005Z" fill="#9747FF"/>
<path d="M13.007 9.60841C12.7653 9.49175 12.532 9.37508 12.307 9.24175C12.1236 9.13341 11.9486 9.01675 11.7736 8.89175C11.632 8.80008 11.4653 8.66675 11.307 8.53341C11.2903 8.52508 11.232 8.47508 11.1653 8.40841C10.8903 8.17508 10.582 7.87508 10.307 7.54175C10.282 7.52508 10.2403 7.46675 10.182 7.39175C10.0986 7.29175 9.95697 7.12508 9.83197 6.93341C9.73197 6.80841 9.6153 6.62508 9.50697 6.44175C9.37364 6.21675 9.25697 5.99175 9.1403 5.75841C8.98734 5.43063 8.55713 5.33326 8.30135 5.58903L3.6153 10.2751C3.50697 10.3834 3.40697 10.5917 3.38197 10.7334L2.93197 13.9251C2.84864 14.4917 3.00697 15.0251 3.35697 15.3834C3.65697 15.6751 4.07364 15.8334 4.52364 15.8334C4.62364 15.8334 4.72364 15.8251 4.82364 15.8084L8.02364 15.3584C8.17364 15.3334 8.38197 15.2334 8.48197 15.1251L13.1758 10.4313C13.4264 10.1806 13.3322 9.74936 13.007 9.60841Z" fill="#9747FF"/>
</svg>
