<svg width="32" height="32" viewBox="0 0 32 32" fill="none" xmlns="http://www.w3.org/2000/svg">
<path d="M21.588 2.66663H10.4146C5.5613 2.66663 2.66797 5.55996 2.66797 10.4133V21.5733C2.66797 26.44 5.5613 29.3333 10.4146 29.3333H21.5746C26.428 29.3333 29.3213 26.44 29.3213 21.5866V10.4133C29.3346 5.55996 26.4413 2.66663 21.588 2.66663ZM10.3346 12.1866C10.3346 11.1066 11.2146 10.2133 12.308 10.2133C13.388 10.2133 14.2813 11.0933 14.2813 12.1866C14.2813 13.2666 13.4013 14.16 12.308 14.16C11.2146 14.1466 10.3346 13.2666 10.3346 12.1866ZM11.7613 21.36C11.508 21.36 11.2546 21.2666 11.0546 21.0666C10.668 20.68 10.668 20.0533 11.0546 19.6533L19.788 10.92C20.1746 10.5333 20.8146 10.5333 21.2013 10.92C21.588 11.3066 21.588 11.9466 21.2013 12.3333L12.468 21.0666C12.268 21.2666 12.0146 21.36 11.7613 21.36ZM21.028 21.7866C19.948 21.7866 19.0546 20.9066 19.0546 19.8133C19.0546 18.7333 19.9346 17.84 21.028 17.84C22.108 17.84 23.0013 18.72 23.0013 19.8133C23.0013 20.9066 22.1213 21.7866 21.028 21.7866Z" fill="#9747FF"/>
</svg>
