<svg width="32" height="32" viewBox="0 0 32 32" fill="none" xmlns="http://www.w3.org/2000/svg">
<path fill-rule="evenodd" clip-rule="evenodd" d="M20.6667 17.1534V5.99935C20.6667 5.26297 20.0697 4.66602 19.3333 4.66602C18.5969 4.66602 18 5.26297 18 5.99935V15.3327H16.6667V3.99935C16.6667 3.26297 16.0697 2.66602 15.3333 2.66602C14.5969 2.66602 14 3.26297 14 3.99935V15.3327H12.6667V5.99935C12.6667 5.26297 12.0697 4.66602 11.3333 4.66602C10.5969 4.66602 10 5.26297 10 5.99935V16.7401H8.66667V9.99935C8.66667 9.26295 8.06973 8.66602 7.33333 8.66602C6.59695 8.66602 6 9.26295 6 9.99935V21.3327C6 25.7509 9.58173 29.3327 14 29.3327H14.9481C17.8847 29.3327 20.5853 27.7237 21.9833 25.1412L26.6085 16.5975C27.0211 15.8353 26.7947 14.8845 26.0827 14.3901C25.3037 13.8491 24.2327 14.0496 23.7021 14.8357L21.8859 17.5264C21.518 18.0715 20.6667 17.8111 20.6667 17.1534ZM12.0153 19.9883C12.3835 19.9881 12.6817 19.6893 12.6814 19.3211C12.6811 18.9529 12.3823 18.6547 12.0141 18.655C11.646 18.6553 11.3477 18.9541 11.3481 19.3223C11.3483 19.6904 11.6471 19.9887 12.0153 19.9883ZM15.3491 20.6523C15.7173 20.652 16.0155 20.3533 16.0153 19.9851C16.0149 19.6169 15.7162 19.3187 15.3481 19.3189C14.9799 19.3193 14.6816 19.618 14.6819 19.9862C14.6822 20.3543 14.9809 20.6526 15.3491 20.6523ZM14.0175 22.6534C14.0177 23.0216 13.7195 23.3203 13.3513 23.3206C12.9831 23.3209 12.6844 23.0227 12.6841 22.6545C12.6838 22.2863 12.982 21.9876 13.3502 21.9873C13.7184 21.9869 14.0171 22.2852 14.0175 22.6534ZM16.6841 22.6512C17.0523 22.6509 17.3505 22.3522 17.3502 21.984C17.3499 21.6158 17.0512 21.3176 16.683 21.3179C16.3148 21.3182 16.0166 21.6169 16.0169 21.9851C16.0172 22.3533 16.3159 22.6515 16.6841 22.6512ZM18.6857 24.6495C18.6861 25.0177 18.3878 25.3165 18.0196 25.3168C17.6514 25.3171 17.3527 25.0189 17.3524 24.6507C17.3521 24.2825 17.6503 23.9837 18.0185 23.9835C18.3867 23.9831 18.6855 24.2814 18.6857 24.6495ZM19.3502 21.9823C19.7184 21.9821 20.0167 21.6833 20.0163 21.3151C20.0161 20.9469 19.7173 20.6487 19.3491 20.649C18.9809 20.6493 18.6827 20.9481 18.683 21.3162C18.6833 21.6844 18.982 21.9827 19.3502 21.9823ZM15.3529 25.3189C15.3533 25.6871 15.055 25.9859 14.6868 25.9862C14.3187 25.9865 14.0199 25.6883 14.0196 25.3201C14.0193 24.9519 14.3175 24.6531 14.6857 24.6529C15.0539 24.6525 15.3527 24.9508 15.3529 25.3189ZM11.3529 25.3223C11.7211 25.3219 12.0194 25.0232 12.0191 24.655C12.0188 24.2869 11.7201 23.9886 11.3519 23.9889C10.9837 23.9892 10.6855 24.2879 10.6857 24.6561C10.6861 25.0243 10.9847 25.3225 11.3529 25.3223ZM10.6835 21.9895C10.6839 22.3577 10.3856 22.6563 10.0175 22.6567C9.64927 22.6569 9.35053 22.3587 9.3502 21.9905C9.34993 21.6223 9.64813 21.3236 10.0163 21.3233C10.3845 21.323 10.6833 21.6213 10.6835 21.9895Z" fill="#7F56D9"/>
</svg>
