<svg width="32" height="32" viewBox="0 0 32 32" fill="none" xmlns="http://www.w3.org/2000/svg">
<path d="M6 12.6903C6 8.87338 8.54113 5.33398 12.0208 5.33398C14.4355 5.33398 16.2273 6.92198 17.3333 9.17472C18.4393 6.92212 20.2311 5.33398 22.6459 5.33398C26.1259 5.33398 28.6667 8.87398 28.6667 12.6903C28.6667 20.8599 17.3333 26.6673 17.3333 26.6673C17.3333 26.6673 9.69913 22.9921 6.96207 16.9636H13.7232L14.7979 15.0532L16.0531 19.4468L18.9927 15.6673H22.6667V14.334H18.3406L16.6135 16.5545L15.2021 11.6148L12.9435 15.6303H6.45323C6.59455 16.0865 6.76573 16.5311 6.96207 16.9636L4 16.9635V15.6302L6.45323 15.6303C6.16429 14.6975 6 13.7161 6 12.6903Z" fill="#9747FF"/>
</svg>
