<svg width="32" height="32" viewBox="0 0 32 32" fill="none" xmlns="http://www.w3.org/2000/svg">
<path d="M8.19031 28V19.935C7.03624 18.7454 4.76177 15.7759 4.76172 11.9481C4.76169 9.22693 6.77104 4 14.6547 4C18.7066 4 20.5064 4.9904 22.0864 6.44495C22.1541 6.50723 22.2204 6.56766 22.2852 6.62671C22.8532 7.1446 23.3051 7.5566 23.5384 8.17367C24.4053 10.4664 25.9652 13.8081 26.9668 15.8985C27.3942 16.7904 26.745 17.8291 25.7558 17.8291H24.8824V21C24.8824 21.7364 24.2855 22.3333 23.5491 22.3333H21.4101C21.3801 22.3299 21.3496 22.3285 21.3186 22.3291C21.1918 22.3319 21.0605 22.3333 20.9256 22.3333C20.9206 22.3333 20.9157 22.3333 20.9107 22.3333C20.0622 22.333 19.0731 22.2799 18.1438 22.1827C17.0455 22.0679 16.0934 21.8978 15.5583 21.7058C15.2117 21.5815 14.83 21.7617 14.7056 22.1082C14.5813 22.4548 14.7615 22.8365 15.108 22.9609C15.8037 23.2104 16.8914 23.3924 18.0052 23.5088C18.4404 23.5543 18.8892 23.5907 19.3332 23.6171V28H8.19031Z" fill="#9747FF"/>
</svg>
