<svg width="32" height="32" viewBox="0 0 32 32" fill="none" xmlns="http://www.w3.org/2000/svg">
<path d="M20.6667 18.6673C20.6667 19.4037 20.0697 20.0007 19.3333 20.0007C18.5969 20.0007 18 19.4037 18 18.6673C18 17.9309 18.5969 17.334 19.3333 17.334C20.0697 17.334 20.6667 17.9309 20.6667 18.6673Z" fill="#7F56D9"/>
<path fill-rule="evenodd" clip-rule="evenodd" d="M19.3327 23.3333C21.91 23.3333 23.9993 21.244 23.9993 18.6667C23.9993 16.0893 21.91 14 19.3327 14C16.7553 14 14.666 16.0893 14.666 18.6667C14.666 21.244 16.7553 23.3333 19.3327 23.3333ZM21.9993 18.6667C21.9993 20.1394 20.8054 21.3333 19.3327 21.3333C17.8599 21.3333 16.666 20.1394 16.666 18.6667C16.666 17.1939 17.8599 16 19.3327 16C20.8054 16 21.9993 17.1939 21.9993 18.6667Z" fill="#7F56D9"/>
<path d="M9.33333 17.666C8.87307 17.666 8.5 18.0391 8.5 18.4993V20.9993C8.5 21.4596 8.87307 21.8327 9.33333 21.8327C9.7936 21.8327 10.1667 21.4596 10.1667 20.9993V18.4993C10.1667 18.0391 9.7936 17.666 9.33333 17.666Z" fill="#7F56D9"/>
<path fill-rule="evenodd" clip-rule="evenodd" d="M15.9993 29.3327C23.3631 29.3327 29.3327 23.3631 29.3327 15.9993C29.3327 8.63555 23.3631 2.66602 15.9993 2.66602C8.63555 2.66602 2.66602 8.63555 2.66602 15.9993C2.66602 23.3631 8.63555 29.3327 15.9993 29.3327ZM15.1877 6.83282C14.0241 6.82982 12.9201 7.08588 11.9306 7.54668L12.7166 8.59462C14.1267 7.93488 15.7749 7.76995 17.3843 8.24968C17.7371 8.35488 17.9379 8.72615 17.8327 9.07902C17.7276 9.43188 17.3563 9.63262 17.0034 9.52748C14.2253 8.69935 11.3018 10.2801 10.4736 13.0583C10.3685 13.4111 9.99715 13.6119 9.64428 13.5067C9.29148 13.4015 9.09068 13.0303 9.19588 12.6774C9.61675 11.2655 10.4691 10.1003 11.566 9.28275L10.7675 8.21815C8.79122 9.60275 7.49655 11.895 7.48988 14.4915C7.48895 14.8597 7.18975 15.1574 6.82155 15.1565C6.45336 15.1555 6.15564 14.8563 6.15658 14.4881C6.16926 9.51115 10.2142 5.48678 15.1911 5.49946C15.5593 5.5004 15.8571 5.79964 15.8561 6.16783C15.8552 6.53602 15.5559 6.83375 15.1877 6.83282ZM19.3327 24.666C22.6464 24.666 25.3327 21.9797 25.3327 18.666C25.3327 15.3523 22.6464 12.666 19.3327 12.666C16.0189 12.666 13.3327 15.3523 13.3327 18.666C13.3327 21.9797 16.0189 24.666 19.3327 24.666ZM11.4993 18.4993V20.9993C11.4993 22.1959 10.5293 23.166 9.33268 23.166C8.13608 23.166 7.16602 22.1959 7.16602 20.9993V18.4993C7.16602 17.3027 8.13608 16.3327 9.33268 16.3327C10.5293 16.3327 11.4993 17.3027 11.4993 18.4993Z" fill="#7F56D9"/>
</svg>
