<svg width="32" height="32" viewBox="0 0 32 32" fill="none" xmlns="http://www.w3.org/2000/svg">
<path fill-rule="evenodd" clip-rule="evenodd" d="M14.3886 6.72558L14.3845 6.72918C14.3817 6.68025 14.3789 6.6284 14.376 6.57335L14.3704 6.46826C14.3464 6.0277 14.3093 5.36105 14.0384 4.83432C13.8914 4.54825 13.6632 4.27537 13.3162 4.10284C12.9732 3.9323 12.581 3.89301 12.1624 3.95065C11.7912 4.00176 11.462 4.15124 11.2022 4.40297C10.9474 4.64973 10.7962 4.95882 10.713 5.27441C10.5514 5.88685 10.62 6.61862 10.7869 7.32312C11.1244 8.74725 11.9453 10.3901 12.8683 11.5075C13.2234 11.9375 13.3324 12.5853 13.3324 12.8644V14.334L14.6658 14.6673V13.7907C15.2542 13.572 15.6516 13.472 16.0244 13.4643C16.3856 13.4569 16.7713 13.5363 17.3324 13.7682V14.6673L18.6658 14.334V12.8644C18.6658 12.5853 18.7748 11.9375 19.1299 11.5075C20.0467 10.3975 20.9085 8.76212 21.2896 7.34218C21.4776 6.64133 21.5718 5.90987 21.4306 5.29521C21.3578 4.97773 21.2152 4.66284 20.9626 4.4103C20.7046 4.15238 20.3738 4.00184 20.002 3.95065C19.5835 3.89301 19.1912 3.9323 18.8482 4.10284C18.5013 4.27537 18.2731 4.54825 18.126 4.83432C17.8552 5.36105 17.8181 6.0277 17.7941 6.46826L17.7884 6.57334C17.7856 6.6284 17.7828 6.68025 17.78 6.72918L17.7759 6.72558C17.4576 6.44206 17.0364 6.34551 16.7525 6.3039C16.5351 6.27205 16.3239 6.26316 16.1654 6.26069V6.25974H16.157C16.1348 6.25974 16.1098 6.25974 16.0822 6.25987C16.0547 6.25974 16.0296 6.25974 16.0074 6.25974H15.9991V6.26069C15.8406 6.26316 15.6293 6.27205 15.4119 6.3039C15.128 6.34551 14.7068 6.44206 14.3886 6.72558ZM15.2755 7.72112C15.2755 7.72112 15.2814 7.71625 15.2948 7.70892C15.3043 7.70358 15.3168 7.69752 15.3324 7.69098V10.6673H16.6657V7.64198C16.7178 7.65298 16.7634 7.66558 16.802 7.67932C16.8325 7.69032 16.8546 7.70058 16.8697 7.70892C16.883 7.71632 16.889 7.72125 16.889 7.72125C17.1712 7.97258 17.4577 8.18458 17.7452 8.28072C17.8996 8.33245 18.0963 8.36505 18.308 8.31338C18.5312 8.25892 18.6976 8.12878 18.81 7.98278C19 7.73592 19.051 7.42112 19.0752 7.23205C19.099 7.04552 19.1102 6.83052 19.1204 6.63547L19.1254 6.54074C19.1525 6.04328 19.1935 5.67406 19.3118 5.44399C19.3592 5.35167 19.4033 5.31592 19.442 5.29672C19.4846 5.27553 19.5911 5.23998 19.8202 5.27152C19.9408 5.28812 19.9924 5.32573 20.02 5.35328C20.0529 5.3862 20.0991 5.4541 20.1312 5.5937C20.2 5.89322 20.1691 6.3731 20.0018 6.99658C19.6721 8.22518 18.9016 9.69018 18.1019 10.6585C17.6554 11.1989 17.4544 11.8619 17.3758 12.3609C16.8996 12.2021 16.4568 12.1219 15.997 12.1313C15.5434 12.1406 15.1013 12.2373 14.6271 12.3913C14.552 11.8891 14.3519 11.21 13.8963 10.6585C13.1028 9.69765 12.3745 8.24005 12.0843 7.01565C11.9374 6.39582 11.9226 5.91624 12.0022 5.6145C12.0395 5.47301 12.09 5.39931 12.1299 5.3606C12.1648 5.32686 12.2231 5.2882 12.3443 5.27152C12.5733 5.23998 12.6799 5.27553 12.7225 5.29672C12.7612 5.31592 12.8052 5.35167 12.8527 5.44399C12.971 5.67406 13.0119 6.04328 13.039 6.54074L13.044 6.63544C13.0542 6.83045 13.0655 7.04552 13.0893 7.23205C13.1134 7.42112 13.1645 7.73592 13.3544 7.98278C13.4668 8.12878 13.6333 8.25892 13.8565 8.31338C14.0682 8.36505 14.2648 8.33245 14.4193 8.28072C14.7068 8.18458 14.9933 7.97252 15.2755 7.72112Z" fill="#9747FF"/>
<path fill-rule="evenodd" clip-rule="evenodd" d="M17.334 23.5441C16.7455 23.7628 16.3481 23.8628 15.9753 23.8705C15.6141 23.8779 15.2284 23.7985 14.6673 23.5667V22.4453L13.334 23.8898V25.3342C13.334 26.8069 14.5279 28.0008 16.0006 28.0008C17.4733 28.0008 18.6672 26.807 18.6673 25.3342L18.6673 23.8897L17.334 22.4453V23.5441ZM16.0006 26.6675C15.2643 26.6675 14.6673 26.0706 14.6673 25.3342L14.6673 24.9882C15.1271 25.1376 15.5569 25.2127 16.0027 25.2036C16.444 25.1945 16.8743 25.1027 17.334 24.9559V25.3342C17.334 26.0706 16.737 26.6675 16.0006 26.6675Z" fill="#9747FF"/>
<path fill-rule="evenodd" clip-rule="evenodd" d="M8.24107 7.63811C8.90207 8.05551 9.44593 8.81324 9.84913 9.81718C9.95167 10.0724 10.0519 10.3476 10.1568 10.6355C10.5025 11.5846 10.8987 12.6723 11.5949 13.6456C12.4576 14.8514 13.7575 15.8259 16 15.8259C18.2425 15.8259 19.5424 14.8514 20.4051 13.6456C21.1013 12.6723 21.4975 11.5846 21.8432 10.6356C21.9481 10.3476 22.0483 10.0724 22.1509 9.81718C22.5541 8.81324 23.0979 8.05551 23.7589 7.63811C24.4556 7.19818 25.2442 7.16724 25.9459 7.57104C26.6069 7.95131 27.1147 8.67064 27.4557 9.58551C27.8008 10.5114 28 11.7 28 13.1218V19.9132C28 20.4793 27.8906 21.7902 27.2553 22.9852C26.5955 24.2264 25.3633 25.334 23.2308 25.334C22.1673 25.334 21.3734 25.0334 20.7291 24.5665C20.1526 24.1488 19.7119 23.6052 19.3295 23.1334L19.252 23.0379C18.8323 22.5216 18.4601 22.0855 17.9739 21.7642C17.5074 21.456 16.9027 21.2341 16 21.2341C15.0973 21.2341 14.4926 21.456 14.0261 21.7642C13.5399 22.0855 13.1677 22.5216 12.748 23.0379L12.6705 23.1335C12.2881 23.6052 11.8474 24.1488 11.2709 24.5665C10.6266 25.0334 9.83267 25.334 8.7692 25.334C6.63666 25.334 5.4045 24.2264 4.74469 22.9852C4.10939 21.7902 4 20.4793 4 19.9132V13.1218C4 11.7 4.19918 10.5114 4.54431 9.58551C4.88532 8.67064 5.39315 7.95131 6.05406 7.57104C6.7558 7.16724 7.5444 7.19818 8.24107 7.63811ZM8 12.0005C8 12.3687 7.70153 12.6672 7.33333 12.6672C6.96513 12.6672 6.66667 12.3687 6.66667 12.0005C6.66667 11.6323 6.96513 11.3338 7.33333 11.3338C7.70153 11.3338 8 11.6323 8 12.0005ZM8.66667 15.3338C9.03487 15.3338 9.33333 15.0354 9.33333 14.6672C9.33333 14.299 9.03487 14.0005 8.66667 14.0005C8.29847 14.0005 8 14.299 8 14.6672C8 15.0354 8.29847 15.3338 8.66667 15.3338ZM8 17.3338C8 17.702 7.70153 18.0005 7.33333 18.0005C6.96513 18.0005 6.66667 17.702 6.66667 17.3338C6.66667 16.9656 6.96513 16.6672 7.33333 16.6672C7.70153 16.6672 8 16.9656 8 17.3338ZM10.6667 21.3338C11.0349 21.3338 11.3333 21.0354 11.3333 20.6672C11.3333 20.299 11.0349 20.0005 10.6667 20.0005C10.2985 20.0005 10 20.299 10 20.6672C10 21.0354 10.2985 21.3338 10.6667 21.3338ZM8.66667 20.6672C8.66667 21.0354 8.3682 21.3338 8 21.3338C7.6318 21.3338 7.33333 21.0354 7.33333 20.6672C7.33333 20.299 7.6318 20.0005 8 20.0005C8.3682 20.0005 8.66667 20.299 8.66667 20.6672ZM10.6667 18.6672C11.0349 18.6672 11.3333 18.3687 11.3333 18.0005C11.3333 17.6323 11.0349 17.3338 10.6667 17.3338C10.2985 17.3338 10 17.6323 10 18.0005C10 18.3687 10.2985 18.6672 10.6667 18.6672ZM14 18.6672C14 19.0354 13.7015 19.3338 13.3333 19.3338C12.9651 19.3338 12.6667 19.0354 12.6667 18.6672C12.6667 18.299 12.9651 18.0005 13.3333 18.0005C13.7015 18.0005 14 18.299 14 18.6672ZM24.6667 12.6672C24.2985 12.6672 24 12.3687 24 12.0005C24 11.6323 24.2985 11.3338 24.6667 11.3338C25.0349 11.3338 25.3333 11.6323 25.3333 12.0005C25.3333 12.3687 25.0349 12.6672 24.6667 12.6672ZM22.6667 14.6672C22.6667 15.0354 22.9651 15.3338 23.3333 15.3338C23.7015 15.3338 24 15.0354 24 14.6672C24 14.299 23.7015 14.0005 23.3333 14.0005C22.9651 14.0005 22.6667 14.299 22.6667 14.6672ZM24.6667 18.0005C24.2985 18.0005 24 17.702 24 17.3338C24 16.9656 24.2985 16.6672 24.6667 16.6672C25.0349 16.6672 25.3333 16.9656 25.3333 17.3338C25.3333 17.702 25.0349 18.0005 24.6667 18.0005ZM20.6667 20.6672C20.6667 21.0354 20.9651 21.3338 21.3333 21.3338C21.7015 21.3338 22 21.0354 22 20.6672C22 20.299 21.7015 20.0005 21.3333 20.0005C20.9651 20.0005 20.6667 20.299 20.6667 20.6672ZM24 21.3338C23.6318 21.3338 23.3333 21.0354 23.3333 20.6672C23.3333 20.299 23.6318 20.0005 24 20.0005C24.3682 20.0005 24.6667 20.299 24.6667 20.6672C24.6667 21.0354 24.3682 21.3338 24 21.3338ZM20.6667 18.0005C20.6667 18.3687 20.9651 18.6672 21.3333 18.6672C21.7015 18.6672 22 18.3687 22 18.0005C22 17.6323 21.7015 17.3338 21.3333 17.3338C20.9651 17.3338 20.6667 17.6323 20.6667 18.0005ZM18.6667 19.3338C18.2985 19.3338 18 19.0354 18 18.6672C18 18.299 18.2985 18.0005 18.6667 18.0005C19.0349 18.0005 19.3333 18.299 19.3333 18.6672C19.3333 19.0354 19.0349 19.3338 18.6667 19.3338ZM16.6667 18.6672C16.6667 19.0354 16.3682 19.3338 16 19.3338C15.6318 19.3338 15.3333 19.0354 15.3333 18.6672C15.3333 18.299 15.6318 18.0005 16 18.0005C16.3682 18.0005 16.6667 18.299 16.6667 18.6672Z" fill="#9747FF"/>
</svg>
