<svg width="32" height="32" viewBox="0 0 32 32" fill="none" xmlns="http://www.w3.org/2000/svg">
<path d="M20.3193 6.75488H19.2275C18.7519 6.75488 18.2961 6.94002 17.9621 7.26882C17.2207 7.99862 15.992 7.94395 15.3223 7.15148L15.0713 6.85442C14.7601 6.48612 14.589 6.02495 14.5868 5.5485L14.5827 4.66602H11.3933V6.00048C11.3933 7.11022 11.6944 8.20028 12.2663 9.16095L12.3019 9.22055C12.6629 9.82708 13.1319 10.3665 13.687 10.8141L15.2593 12.0817C16.5105 13.0904 16.8857 14.8014 16.1662 16.2178C15.7315 17.0736 14.9478 17.7135 14.0052 17.9823L13.6479 18.0841C13.1193 18.2349 12.5619 18.2865 12.0134 18.2373C10.0387 18.0598 8.16282 19.1657 7.43008 20.9559L7.07368 21.8265C6.80435 22.4845 6.66602 23.1861 6.66602 23.8942V27.3327H9.84782V23.7149C9.84782 23.1416 10.0728 22.5899 10.477 22.1722C11.1818 21.4437 12.2967 21.2536 13.2147 21.7055L14.5607 22.3679C15.1678 22.6667 15.8389 22.8225 16.5195 22.8225H18.7967C19.7313 22.8225 20.6574 22.6496 21.5255 22.3131C23.0315 21.7295 24.297 20.6791 25.1258 19.3253L25.5385 18.6509C26.2765 17.4452 26.666 16.0685 26.666 14.6659C26.666 13.3593 26.328 12.0736 25.6831 10.927L25.0274 9.76142C24.6097 9.01895 24.0293 8.37468 23.3271 7.87415L22.916 7.58108C22.1629 7.04428 21.2533 6.75488 20.3193 6.75488Z" fill="#004E80"/>
<path fill-rule="evenodd" clip-rule="evenodd" d="M10.7171 4H15.2728C15.2763 4.75762 15.0706 5.79977 15.6019 6.42891C16.7675 7.809 18.7057 6.08535 20.3121 6.08535C23.1991 6.08535 24.9825 8.3206 26.2647 10.6011C27.7277 13.2033 27.666 16.457 26.1077 19.004C25.0408 20.7479 23.7235 22.1829 21.7653 22.9423C18.8634 24.0675 15.6232 23.6434 12.9179 22.3113C11.8857 21.803 10.5513 22.5233 10.5513 23.7026V28H6V23.8816C6 23.0857 6.15545 22.2973 6.4577 21.5585C7.88687 18.0655 10.2152 18.3493 13.4656 17.4221C15.5837 16.8179 16.8443 14.2466 14.8301 12.6219C13.6706 11.6867 12.4606 10.8268 11.6845 9.5228C10.6556 7.79373 10.7171 5.93155 10.7171 4Z" fill="#9747FF"/>
</svg>
