<svg width="32" height="32" viewBox="0 0 32 32" fill="none" xmlns="http://www.w3.org/2000/svg">
<path d="M4.54449 8.4817C4.01079 8.96736 3.84343 9.5597 4.17091 10.0847C4.59501 10.7646 5.07853 11.3386 5.5067 11.7827C5.13895 11.8124 4.81346 11.9404 4.57141 12.1736C4.47544 12.2662 4.39734 12.3706 4.33656 12.4847C3.91292 12.0234 3.45347 11.4538 3.03961 10.7904C2.23853 9.5061 2.85063 8.22029 3.64712 7.49556C4.05237 7.12676 4.55349 6.84663 5.06406 6.72783C5.56841 6.61048 6.17264 6.63532 6.65555 7.02243C7.70846 7.86643 8.24559 7.97823 8.60079 8.00929C8.66726 8.01509 8.74366 8.01669 8.82879 8.01856C9.20499 8.02669 9.75159 8.0385 10.3604 8.42883L9.64066 9.55123C9.36799 9.37643 9.23939 9.3723 8.94293 9.3629C8.82393 9.3591 8.67793 9.35443 8.48466 9.33756C7.80539 9.27816 7.02586 9.0281 5.82161 8.06276C5.76731 8.01923 5.63269 7.96449 5.36624 8.02649C5.10601 8.08703 4.80435 8.24523 4.54449 8.4817Z" fill="#004E80"/>
<path d="M4.54449 8.4817C4.01079 8.96736 3.84343 9.5597 4.17091 10.0847C4.59501 10.7646 5.07853 11.3386 5.5067 11.7827C5.13895 11.8124 4.81346 11.9404 4.57141 12.1736C4.47544 12.2662 4.39734 12.3706 4.33656 12.4847C3.91292 12.0234 3.45347 11.4538 3.03961 10.7904C2.23853 9.5061 2.85063 8.22029 3.64712 7.49556C4.05237 7.12676 4.55349 6.84663 5.06406 6.72783C5.56841 6.61048 6.17264 6.63532 6.65555 7.02243C7.70846 7.86643 8.24559 7.97823 8.60079 8.00929C8.66726 8.01509 8.74366 8.01669 8.82879 8.01856C9.20499 8.02669 9.75159 8.0385 10.3604 8.42883L9.64066 9.55123C9.36799 9.37643 9.23939 9.3723 8.94293 9.3629C8.82393 9.3591 8.67793 9.35443 8.48466 9.33756C7.80539 9.27816 7.02586 9.0281 5.82161 8.06276C5.76731 8.01923 5.63269 7.96449 5.36624 8.02649C5.10601 8.08703 4.80435 8.24523 4.54449 8.4817Z" fill="url(#paint0_linear_2727_12437)"/>
<path fill-rule="evenodd" clip-rule="evenodd" d="M8.59649 13.4284C9.71669 14.461 10.0292 15.8722 9.29429 16.5805C8.55949 17.2887 7.05563 17.0258 5.93541 15.9932C4.81517 14.9607 4.50273 13.5495 5.23757 12.8412C5.97241 12.133 7.47623 12.3959 8.59649 13.4284ZM7.63649 14.3538C8.02909 14.7156 8.23429 15.1048 8.29783 15.3919C8.33309 15.5511 8.32043 15.6356 8.30903 15.6723C8.27043 15.6838 8.18096 15.6976 8.01136 15.668C7.70543 15.6145 7.28803 15.4298 6.89543 15.068C6.50281 14.7061 6.29763 14.3169 6.23407 14.0298C6.19883 13.8706 6.21145 13.786 6.22288 13.7494C6.26147 13.7378 6.35091 13.724 6.52055 13.7537C6.82649 13.8072 7.24389 13.9918 7.63649 14.3538ZM8.29916 15.6942C8.29883 15.6947 8.29876 15.695 8.29883 15.695C8.29903 15.6952 8.30036 15.6934 8.30236 15.6894C8.30183 15.6901 8.30136 15.6907 8.30096 15.6912C8.30083 15.6914 8.30109 15.6911 8.30096 15.6912C8.30029 15.6923 8.29943 15.6936 8.29916 15.6942ZM8.32703 15.6656C8.33076 15.663 8.33283 15.662 8.33289 15.6622C8.33303 15.6624 8.33123 15.6637 8.32703 15.6656ZM6.2311 13.7302C6.23266 13.728 6.23323 13.7268 6.23308 13.7267C6.23289 13.7266 6.23152 13.7284 6.22955 13.7323C6.23015 13.7315 6.23066 13.7308 6.2311 13.7302ZM6.20484 13.7561C6.20115 13.7588 6.19909 13.7597 6.19897 13.7596C6.19885 13.7594 6.2007 13.758 6.20484 13.7561Z" fill="#004E80"/>
<path fill-rule="evenodd" clip-rule="evenodd" d="M8.59649 13.4284C9.71669 14.461 10.0292 15.8722 9.29429 16.5805C8.55949 17.2887 7.05563 17.0258 5.93541 15.9932C4.81517 14.9607 4.50273 13.5495 5.23757 12.8412C5.97241 12.133 7.47623 12.3959 8.59649 13.4284ZM7.63649 14.3538C8.02909 14.7156 8.23429 15.1048 8.29783 15.3919C8.33309 15.5511 8.32043 15.6356 8.30903 15.6723C8.27043 15.6838 8.18096 15.6976 8.01136 15.668C7.70543 15.6145 7.28803 15.4298 6.89543 15.068C6.50281 14.7061 6.29763 14.3169 6.23407 14.0298C6.19883 13.8706 6.21145 13.786 6.22288 13.7494C6.26147 13.7378 6.35091 13.724 6.52055 13.7537C6.82649 13.8072 7.24389 13.9918 7.63649 14.3538ZM8.29916 15.6942C8.29883 15.6947 8.29876 15.695 8.29883 15.695C8.29903 15.6952 8.30036 15.6934 8.30236 15.6894C8.30183 15.6901 8.30136 15.6907 8.30096 15.6912C8.30083 15.6914 8.30109 15.6911 8.30096 15.6912C8.30029 15.6923 8.29943 15.6936 8.29916 15.6942ZM8.32703 15.6656C8.33076 15.663 8.33283 15.662 8.33289 15.6622C8.33303 15.6624 8.33123 15.6637 8.32703 15.6656ZM6.2311 13.7302C6.23266 13.728 6.23323 13.7268 6.23308 13.7267C6.23289 13.7266 6.23152 13.7284 6.22955 13.7323C6.23015 13.7315 6.23066 13.7308 6.2311 13.7302ZM6.20484 13.7561C6.20115 13.7588 6.19909 13.7597 6.19897 13.7596C6.19885 13.7594 6.2007 13.758 6.20484 13.7561Z" fill="url(#paint1_linear_2727_12437)"/>
<path d="M27.8301 10.0847C28.1576 9.55969 27.9902 8.96736 27.4565 8.48169C27.1967 8.24523 26.895 8.08703 26.6348 8.02649C26.3683 7.96449 26.2337 8.01923 26.1794 8.06276C24.9752 9.0281 24.1956 9.27816 23.5164 9.33756C23.3231 9.35443 23.1771 9.35909 23.0581 9.36289C22.7616 9.37229 22.633 9.37643 22.3604 9.55123L21.6406 8.42883C22.2494 8.03849 22.796 8.02669 23.1722 8.01856C23.2574 8.01669 23.3338 8.01509 23.4002 8.00929C23.7554 7.97823 24.2926 7.86643 25.3455 7.02243C25.8284 6.63532 26.4326 6.61048 26.937 6.72783C27.4476 6.84663 27.9486 7.12676 28.3539 7.49556C29.1504 8.22029 29.7625 9.50609 28.9614 10.7904C28.5388 11.4678 28.0688 12.0473 27.6378 12.5136C27.575 12.3883 27.492 12.2739 27.388 12.1736C27.1544 11.9485 26.843 11.8215 26.491 11.7862C26.92 11.3416 27.4049 10.7664 27.8301 10.0847Z" fill="#004E80"/>
<path d="M27.8301 10.0847C28.1576 9.55969 27.9902 8.96736 27.4565 8.48169C27.1967 8.24523 26.895 8.08703 26.6348 8.02649C26.3683 7.96449 26.2337 8.01923 26.1794 8.06276C24.9752 9.0281 24.1956 9.27816 23.5164 9.33756C23.3231 9.35443 23.1771 9.35909 23.0581 9.36289C22.7616 9.37229 22.633 9.37643 22.3604 9.55123L21.6406 8.42883C22.2494 8.03849 22.796 8.02669 23.1722 8.01856C23.2574 8.01669 23.3338 8.01509 23.4002 8.00929C23.7554 7.97823 24.2926 7.86643 25.3455 7.02243C25.8284 6.63532 26.4326 6.61048 26.937 6.72783C27.4476 6.84663 27.9486 7.12676 28.3539 7.49556C29.1504 8.22029 29.7625 9.50609 28.9614 10.7904C28.5388 11.4678 28.0688 12.0473 27.6378 12.5136C27.575 12.3883 27.492 12.2739 27.388 12.1736C27.1544 11.9485 26.843 11.8215 26.491 11.7862C26.92 11.3416 27.4049 10.7664 27.8301 10.0847Z" fill="url(#paint2_linear_2727_12437)"/>
<path fill-rule="evenodd" clip-rule="evenodd" d="M23.3612 13.4283C22.241 14.4609 21.9285 15.8721 22.6634 16.5804C23.3982 17.2886 24.902 17.0257 26.0222 15.9931C27.1425 14.9606 27.4549 13.5494 26.7201 12.8411C25.9852 12.1329 24.4814 12.3958 23.3612 13.4283ZM24.3212 14.3537C23.9286 14.7155 23.7234 15.1047 23.6598 15.3918C23.6246 15.551 23.6372 15.6355 23.6486 15.6722C23.6872 15.6837 23.7767 15.6975 23.9463 15.6679C24.2522 15.6144 24.6696 15.4297 25.0622 15.0679C25.4548 14.706 25.66 14.3168 25.7236 14.0297C25.7588 13.8705 25.7462 13.7859 25.7348 13.7493C25.6962 13.7377 25.6068 13.7239 25.4371 13.7536C25.1312 13.8071 24.7138 13.9917 24.3212 14.3537ZM23.6567 15.6911C23.6584 15.6935 23.659 15.6949 23.6588 15.6949C23.6586 15.6951 23.6573 15.6933 23.6553 15.6893C23.6558 15.69 23.6563 15.6906 23.6567 15.6911ZM23.6277 15.6635L23.6306 15.6655L23.6286 15.6645L23.6262 15.6632C23.6252 15.6626 23.6247 15.6621 23.6248 15.6621M25.7246 13.7266C25.7244 13.7267 25.7254 13.7287 25.7281 13.7322C25.7262 13.7283 25.7248 13.7265 25.7246 13.7266ZM25.7528 13.756C25.7565 13.7587 25.7586 13.7596 25.7587 13.7595C25.7588 13.7593 25.757 13.7579 25.7528 13.756Z" fill="#004E80"/>
<path fill-rule="evenodd" clip-rule="evenodd" d="M23.3612 13.4283C22.241 14.4609 21.9285 15.8721 22.6634 16.5804C23.3982 17.2886 24.902 17.0257 26.0222 15.9931C27.1425 14.9606 27.4549 13.5494 26.7201 12.8411C25.9852 12.1329 24.4814 12.3958 23.3612 13.4283ZM24.3212 14.3537C23.9286 14.7155 23.7234 15.1047 23.6598 15.3918C23.6246 15.551 23.6372 15.6355 23.6486 15.6722C23.6872 15.6837 23.7767 15.6975 23.9463 15.6679C24.2522 15.6144 24.6696 15.4297 25.0622 15.0679C25.4548 14.706 25.66 14.3168 25.7236 14.0297C25.7588 13.8705 25.7462 13.7859 25.7348 13.7493C25.6962 13.7377 25.6068 13.7239 25.4371 13.7536C25.1312 13.8071 24.7138 13.9917 24.3212 14.3537ZM23.6567 15.6911C23.6584 15.6935 23.659 15.6949 23.6588 15.6949C23.6586 15.6951 23.6573 15.6933 23.6553 15.6893C23.6558 15.69 23.6563 15.6906 23.6567 15.6911ZM23.6277 15.6635L23.6306 15.6655L23.6286 15.6645L23.6262 15.6632C23.6252 15.6626 23.6247 15.6621 23.6248 15.6621M25.7246 13.7266C25.7244 13.7267 25.7254 13.7287 25.7281 13.7322C25.7262 13.7283 25.7248 13.7265 25.7246 13.7266ZM25.7528 13.756C25.7565 13.7587 25.7586 13.7596 25.7587 13.7595C25.7588 13.7593 25.757 13.7579 25.7528 13.756Z" fill="url(#paint3_linear_2727_12437)"/>
<path fill-rule="evenodd" clip-rule="evenodd" d="M12.0072 8.31685C12.8896 7.67925 14.1978 7.33398 16.0061 7.33398C17.8048 7.33398 19.1122 7.64865 19.9942 8.24325C20.9139 8.86332 21.3021 9.74138 21.3309 10.6594C21.3586 11.5417 21.0576 12.4398 20.6623 13.2065C20.2635 13.98 19.7384 14.6788 19.244 15.1755C18.9379 15.4832 18.7172 15.9937 18.5816 16.7345C18.4478 17.4664 18.4119 18.3335 18.4033 19.2734C18.4006 19.5682 18.4006 19.8724 18.4007 20.1799C18.4008 20.8285 18.4009 21.4929 18.3754 22.1145C18.3376 23.0333 18.2426 23.9481 17.9796 24.7139C17.9299 24.8583 17.8262 25.0761 17.5959 25.2167C17.3374 25.3746 17.0726 25.3457 16.8998 25.2873C16.7428 25.2344 16.6175 25.1453 16.5378 25.0826C16.4514 25.0145 16.37 24.9379 16.3021 24.8714C16.2471 24.8175 16.2002 24.7703 16.158 24.7276C16.0965 24.6657 16.0446 24.6133 15.9912 24.5645C15.922 24.6192 15.8602 24.6735 15.7878 24.7371C15.7319 24.7861 15.6698 24.8406 15.5932 24.9051C15.4622 25.0153 15.2195 25.2173 14.9448 25.2963C14.7829 25.3429 14.5384 25.3681 14.2907 25.237C14.0495 25.1094 13.9268 24.8974 13.8645 24.7316C13.5808 23.9759 13.4334 23.042 13.341 22.0903C13.2658 21.3163 13.224 20.4906 13.1837 19.6959L13.1836 19.6943C13.1742 19.5075 13.1648 19.3219 13.155 19.1396C13.1032 18.1657 13.0421 17.2729 12.9158 16.545C12.7832 15.7814 12.6016 15.3556 12.4225 15.1755C12.0179 14.769 11.5672 14.1099 11.2266 13.3605C10.8859 12.6113 10.625 11.7058 10.6714 10.8091C10.7191 9.88652 11.0959 8.97518 12.0072 8.31685ZM15.8664 24.4635C15.8643 24.4625 15.864 24.4621 15.8656 24.4631L15.8664 24.4635Z" fill="#7F56D9"/>
<defs>
<linearGradient id="paint0_linear_2727_12437" x1="10.3604" y1="11.7912" x2="9.98615" y2="6.81277" gradientUnits="userSpaceOnUse">
<stop stop-color="#2F4157"/>
<stop offset="1" stop-color="#567C8F"/>
</linearGradient>
<linearGradient id="paint1_linear_2727_12437" x1="9.69203" y1="16.4377" x2="9.33256" y2="12.5693" gradientUnits="userSpaceOnUse">
<stop stop-color="#2F4157"/>
<stop offset="1" stop-color="#567C8F"/>
</linearGradient>
<linearGradient id="paint2_linear_2727_12437" x1="29.337" y1="11.8167" x2="28.959" y2="6.81378" gradientUnits="userSpaceOnUse">
<stop stop-color="#2F4157"/>
<stop offset="1" stop-color="#567C8F"/>
</linearGradient>
<linearGradient id="paint3_linear_2727_12437" x1="27.1178" y1="16.4376" x2="26.7583" y2="12.5692" gradientUnits="userSpaceOnUse">
<stop stop-color="#2F4157"/>
<stop offset="1" stop-color="#567C8F"/>
</linearGradient>
</defs>
</svg>
