<svg width="32" height="32" viewBox="0 0 32 32" fill="none" xmlns="http://www.w3.org/2000/svg">
<path fill-rule="evenodd" clip-rule="evenodd" d="M12.9336 4.60026C12.9336 4.23207 13.2321 3.93359 13.6003 3.93359H18.4003C18.7685 3.93359 19.0669 4.23207 19.0669 4.60026C19.0669 4.96845 18.7685 5.26693 18.4003 5.26693H16.6669V7.02458C18.6509 7.16985 20.4563 7.95831 21.8755 9.18225L23.1575 7.90025L22.1289 6.87165C21.8685 6.61132 21.8685 6.18921 22.1289 5.92886C22.3892 5.66851 22.8113 5.66851 23.0717 5.92886L26.0717 8.92885C26.332 9.18918 26.332 9.61131 26.0717 9.87165C25.8113 10.132 25.3892 10.132 25.1289 9.87165L24.1003 8.84305L22.8183 10.1251C24.0423 11.5442 24.8307 13.3496 24.9759 15.3336H26.7336V13.6002C26.7336 13.232 27.0321 12.9336 27.4003 12.9336C27.7685 12.9336 28.0669 13.232 28.0669 13.6002V18.4002C28.0669 18.7684 27.7685 19.0669 27.4003 19.0669C27.0321 19.0669 26.7336 18.7684 26.7336 18.4002V16.6669H24.9759C24.8307 18.6509 24.0423 20.4563 22.8183 21.8754L24.1003 23.1574L25.1289 22.1288C25.3892 21.8685 25.8113 21.8685 26.0717 22.1288C26.332 22.3892 26.332 22.8113 26.0717 23.0716L23.0717 26.0716C22.8113 26.332 22.3892 26.332 22.1289 26.0716C21.8685 25.8113 21.8685 25.3892 22.1289 25.1288L23.1575 24.1002L21.8755 22.8182C20.4563 24.0422 18.6509 24.8306 16.6669 24.9759V26.7336H18.4003C18.7685 26.7336 19.0669 27.032 19.0669 27.4002C19.0669 27.7684 18.7685 28.0669 18.4003 28.0669H13.6003C13.2321 28.0669 12.9336 27.7684 12.9336 27.4002C12.9336 27.032 13.2321 26.7336 13.6003 26.7336H15.3336V24.9759C13.3496 24.8306 11.5442 24.0422 10.1251 22.8182L8.84306 24.1002L9.87166 25.1288C10.132 25.3892 10.132 25.8113 9.87166 26.0716C9.61133 26.332 9.18919 26.332 8.92886 26.0716L5.92886 23.0716C5.66851 22.8113 5.66851 22.3892 5.92886 22.1288C6.18921 21.8685 6.61132 21.8685 6.87166 22.1288L7.90026 23.1574L9.18226 21.8754C7.95826 20.4563 7.16986 18.6509 7.02459 16.6669H5.26693V18.4002C5.26693 18.7684 4.96845 19.0669 4.60026 19.0669C4.23207 19.0669 3.93359 18.7684 3.93359 18.4002V13.6002C3.93359 13.232 4.23207 12.9336 4.60026 12.9336C4.96845 12.9336 5.26693 13.232 5.26693 13.6002V15.3336H7.02459C7.16986 13.3496 7.95826 11.5442 9.18226 10.1251L7.90026 8.84305L6.87166 9.87165C6.61132 10.132 6.18921 10.132 5.92886 9.87165C5.66851 9.61131 5.66851 9.18918 5.92886 8.92885L8.92886 5.92886C9.18919 5.66851 9.61133 5.66851 9.87166 5.92886C10.132 6.18921 10.132 6.61132 9.87166 6.87165L8.84306 7.90025L10.1251 9.18225C11.5442 7.95831 13.3496 7.16985 15.3336 7.02458V5.26693H13.6003C13.2321 5.26693 12.9336 4.96845 12.9336 4.60026ZM20.5003 16.6002C20.9973 16.6002 21.4003 16.1973 21.4003 15.7002C21.4003 15.2032 20.9973 14.8002 20.5003 14.8002C20.0032 14.8002 19.6003 15.2032 19.6003 15.7002C19.6003 16.1973 20.0032 16.6002 20.5003 16.6002ZM17.2003 20.5002C17.2003 20.9973 16.7973 21.4002 16.3003 21.4002C15.8032 21.4002 15.4003 20.9973 15.4003 20.5002C15.4003 20.0032 15.8032 19.6002 16.3003 19.6002C16.7973 19.6002 17.2003 20.0032 17.2003 20.5002ZM13.6003 15.4002C14.5944 15.4002 15.4003 14.5944 15.4003 13.6002C15.4003 12.6062 14.5944 11.8002 13.6003 11.8002C12.6061 11.8002 11.8003 12.6062 11.8003 13.6002C11.8003 14.5944 12.6061 15.4002 13.6003 15.4002Z" fill="#9747FF"/>
</svg>
