<svg width="32" height="32" viewBox="0 0 32 32" fill="none" xmlns="http://www.w3.org/2000/svg">
<path fill-rule="evenodd" clip-rule="evenodd" d="M19.7229 15.2471C20.4959 15.2471 21.2509 15.0366 21.8892 14.6432C22.5373 15.0359 23.3023 15.2417 24.0828 15.2335L26.5622 14.4191C27.2609 13.8991 27.7405 13.1783 27.9209 12.3774C28.1012 11.5764 27.9713 10.7438 27.5529 10.0189C27.1345 9.29407 26.4529 8.72087 25.6224 8.3954C25.4327 7.61987 24.9551 6.92627 24.2686 6.42962L21.8483 5.66501H21.5759C21.0375 4.95594 20.2293 4.45016 19.3049 4.24381L14.1161 3.98047C13.2535 4.04517 12.4402 4.36992 11.807 4.90248C11.5078 4.8388 11.2015 4.80579 10.8941 4.80408C10.1498 4.80546 9.4218 5.0013 8.79806 5.36794C8.17433 5.73458 7.68146 6.25637 7.379 6.87034L5.40743 8.13107C4.91685 8.73107 4.65275 9.45754 4.65405 10.2033C4.6492 10.5151 4.6951 10.8259 4.7903 11.1257C4.27304 11.7317 3.9949 12.4762 4.00007 13.2411C3.99884 14.1283 4.37428 14.9822 5.04916 15.6271C5.10363 16.2623 5.34949 16.8719 5.76014 17.39C6.1708 17.9081 6.7306 18.315 7.379 18.5666C8.12606 18.9894 8.75866 19.558 9.2302 20.2305C9.7018 20.9031 10.0003 21.6626 10.1039 22.4531H11.9162V17.2909L10.155 15.7255L8.9634 16.9171C8.703 17.1775 8.28093 17.1775 8.02053 16.9171C7.7602 16.6568 7.7602 16.2347 8.02053 15.9743L9.40986 14.585L8.98646 12.2565L7.10293 11.3147C6.7736 11.1501 6.64012 10.7496 6.8048 10.4203C6.96946 10.091 7.36986 9.95747 7.6992 10.1221L9.54373 11.0444L11.8515 9.57587L11.1405 7.6798C11.0112 7.33507 11.1859 6.9508 11.5306 6.82147C11.8753 6.6922 12.2597 6.86687 12.3889 7.2116L13.1473 9.234H14.0799L14.5127 8.3684L13.8792 6.89014C13.7342 6.55172 13.8909 6.1598 14.2293 6.01476C14.5678 5.86973 14.9597 6.0265 15.1047 6.36492L15.6553 7.64947L17.8551 8.0494C17.8674 8.03787 17.8803 8.02674 17.8937 8.01607L19.2573 6.92514C19.5449 6.69514 19.9644 6.74174 20.1944 7.02927C20.4244 7.31674 20.3777 7.73627 20.0903 7.96627L19.1091 8.7512L20.2619 10.2333L20.7139 9.3294C20.8268 9.10354 21.0577 8.96087 21.3101 8.96087H22.9465C23.3147 8.96087 23.6132 9.25934 23.6132 9.62754C23.6132 9.99574 23.3147 10.2942 22.9465 10.2942H21.7222L21.4427 10.8533L22.8184 11.1589C22.8716 11.1708 22.9231 11.1891 22.9719 11.2135L24.0628 11.7589C24.3921 11.9236 24.5256 12.324 24.361 12.6533C24.1963 12.9827 23.7959 13.1161 23.4665 12.9515L22.4491 12.4427L20.0746 11.9151C19.9232 11.8814 19.7882 11.796 19.693 11.6736L17.9403 9.42007L15.7647 9.02454C15.7236 9.06287 15.6771 9.0964 15.6257 9.12394L15.1586 10.0581V10.5972H16.1283C16.2319 10.5972 16.3339 10.6213 16.4265 10.6676L18.6083 11.7585C18.9376 11.9232 19.0711 12.3236 18.9065 12.6529C18.7418 12.9823 18.3413 13.1157 18.012 12.9511L15.9709 11.9305H15.1586V13.1734C15.1586 13.5416 14.8601 13.8401 14.4919 13.8401C14.1237 13.8401 13.8253 13.5416 13.8253 13.1734V10.5673H12.777L10.3189 12.1315L10.7431 14.4643L13.0258 16.4933C13.1681 16.6198 13.2495 16.8011 13.2495 16.9915V22.4531H15.1943V18.7633C15.1934 18.1083 15.3959 17.466 15.7788 16.9095C16.1617 16.353 16.7097 15.9045 17.3607 15.6148C17.7267 15.4884 17.8168 15.3182 17.9271 15.1097C18.0007 14.9707 18.0833 14.8147 18.2625 14.6432C18.4182 14.7391 18.5388 14.8243 18.6435 14.898C18.9679 15.1267 19.1385 15.2471 19.7229 15.2471Z" fill="#9747FF"/>
<path fill-rule="evenodd" clip-rule="evenodd" d="M15.3333 25.3335H10V24.0001H15.3333V25.3335Z" fill="#9747FF"/>
<path fill-rule="evenodd" clip-rule="evenodd" d="M15.3333 27.9993H10V26.666H15.3333V27.9993Z" fill="#9747FF"/>
</svg>
