<svg width="32" height="32" viewBox="0 0 32 32" fill="none" xmlns="http://www.w3.org/2000/svg">
<path fill-rule="evenodd" clip-rule="evenodd" d="M6 4C4.89543 4 4 4.89543 4 6V26C4 27.1046 4.89543 28 6 28H26C27.1046 28 28 27.1046 28 26V6C28 4.89543 27.1046 4 26 4H6ZM16.0263 10C20.5 10 26 16 26 16C26 16 20.5 22 16.0263 22C11.5526 22 6 16 6 16C6 16 11.5526 10 16.0263 10ZM7.88647 16C8.4514 15.4633 9.23793 14.7582 10.1491 14.0563C10.4932 13.7913 10.8515 13.5295 11.2192 13.2789C10.7615 14.0813 10.5 15.0101 10.5 16C10.5 16.9899 10.7615 17.9187 11.2192 18.7211C10.8515 18.4705 10.4932 18.2087 10.1491 17.9437C9.23793 17.2418 8.4514 16.5367 7.88647 16ZM21.5 16C21.5 14.9945 21.2302 14.0521 20.7591 13.2411C21.1426 13.5023 21.516 13.7762 21.8737 14.0536C22.7803 14.7567 23.5618 15.4631 24.122 16C23.5618 16.5369 22.7803 17.2433 21.8737 17.9464C21.516 18.2238 21.1426 18.4977 20.7591 18.7589C21.2302 17.9479 21.5 17.0055 21.5 16ZM16 20.1667C18.3012 20.1667 20.1667 18.3012 20.1667 16C20.1667 13.6988 18.3012 11.8333 16 11.8333C13.6988 11.8333 11.8333 13.6988 11.8333 16C11.8333 18.3012 13.6988 20.1667 16 20.1667ZM18.5 16C18.5 17.3807 17.3807 18.5 16 18.5C14.6193 18.5 13.5 17.3807 13.5 16C13.5 14.6193 14.6193 13.5 16 13.5C16.6208 13.5 17.1887 13.7263 17.6259 14.1008C17.5153 14.0367 17.3869 14 17.25 14C16.8358 14 16.5 14.3358 16.5 14.75C16.5 15.1642 16.8358 15.5 17.25 15.5C17.6642 15.5 18 15.1642 18 14.75C18 14.6131 17.9633 14.4847 17.8992 14.3741C18.2737 14.8113 18.5 15.3792 18.5 16Z" fill="#9747FF"/>
</svg>
