<svg width="32" height="32" viewBox="0 0 32 32" fill="none" xmlns="http://www.w3.org/2000/svg">
<path fill-rule="evenodd" clip-rule="evenodd" d="M4 6C4 4.89543 4.89543 4 6 4H26C27.1046 4 28 4.89543 28 6V26C28 27.1046 27.1046 28 26 28H22V22.7101C22 21.4267 22.6653 20.2617 23.5054 19.2915C24.1701 18.5237 24.6862 17.6473 24.986 16.7091C25.4854 15.1462 25.4454 13.4777 24.8716 11.9369C24.2978 10.3961 23.2188 9.05987 21.7855 8.11493C20.3521 7.17007 18.6361 6.66373 16.877 6.66667C15.0593 6.67967 13.2935 7.23007 11.8368 8.23773C10.3801 9.24533 9.30853 10.6576 8.77827 12.2688C8.60713 12.8677 8.417 14.6294 8.417 14.6294C8.11287 15.3869 7.78967 16.1268 7.46647 16.8667L7.0102 17.9413C6.83993 18.2324 6.7242 18.5481 6.668 18.875C6.65563 19.0921 6.73033 19.3057 6.87773 19.4749C7.02513 19.644 7.23487 19.7566 7.46647 19.7911C7.54253 19.7911 9.33333 20 9.33333 20V22C9.33333 22.6667 9.73333 24 11.3333 24H12.6667V28H6C4.89543 28 4 27.1046 4 26V6ZM8.66667 19.2667C8.66667 17.9333 10.6667 15.3333 13.6667 15.3333C14.8075 15.3333 15.5446 15.853 16.1259 16.2629C16.5045 16.5297 16.8169 16.75 17.1318 16.75C17.7458 16.75 18.2377 16.5584 18.6097 16.3215C18.9935 16.077 19.5684 16.1368 19.7719 16.5438C19.9044 16.8087 19.8303 17.1305 19.5927 17.3073C19.5551 17.3352 19.5181 17.3627 19.4816 17.3898C18.3391 18.2379 17.7209 18.6967 17.7209 20.4333V28H16V23.6667C16 22.4487 15.2875 21.3221 14.1005 21.0493C12.8577 20.7635 11.2405 20.6245 10.0001 21.3333V20C11.7899 19.1051 13.8801 19.4115 15.0611 19.7097C15.5184 19.8253 15.9767 19.4681 15.7306 19.0658C15.217 18.226 14.0269 17.6667 12.6667 17.6667C10.3101 17.6667 9.33333 19.3333 9.33333 19.3333L8.66667 19.2667Z" fill="#9747FF"/>
<path fill-rule="evenodd" clip-rule="evenodd" d="M19.1594 15.1162C19.1577 15.118 19.1561 15.1199 19.1543 15.1217C19.1539 15.1222 19.1543 15.1217 19.1543 15.1217C19.1545 15.1215 19.155 15.1209 19.1553 15.1207L19.1571 15.1187L19.1583 15.1173L19.1594 15.1162ZM18.6665 14.6673C18.1732 14.2189 18.1733 14.2187 18.1735 14.2185L18.1748 14.2171L18.1767 14.215L18.1812 14.2102L18.1931 14.1976C18.2023 14.1881 18.2141 14.1761 18.2285 14.162C18.2572 14.1339 18.2963 14.0975 18.3455 14.0556C18.4436 13.9721 18.5841 13.865 18.7647 13.759C19.1265 13.5467 19.6587 13.334 20.3331 13.334C21.5475 13.334 22.6665 14.3412 22.6665 16.034C22.6665 17.4559 22.0291 18.4563 21.2999 19.0879C20.9404 19.3993 20.5587 19.6221 20.2172 19.7685C19.8914 19.9083 19.5506 20.0007 19.2725 20.0007C18.9043 20.0007 18.6059 19.7022 18.6059 19.334C18.6059 18.9658 18.9043 18.6673 19.2725 18.6673C19.2723 18.6673 19.2723 18.6673 19.2725 18.6673C19.2739 18.6673 19.2847 18.6669 19.3061 18.6637C19.3297 18.6603 19.3613 18.6541 19.4005 18.6443C19.4792 18.6244 19.5785 18.5917 19.6915 18.5432C19.9182 18.4459 20.1804 18.2937 20.4269 18.0801C20.9099 17.6617 21.3331 17.0121 21.3331 16.034C21.3331 14.9935 20.7297 14.6673 20.3331 14.6673C19.947 14.6673 19.6458 14.7879 19.4394 14.909C19.336 14.9697 19.2586 15.0293 19.21 15.0707C19.1858 15.0913 19.1693 15.1069 19.1607 15.1153L19.1543 15.1217C18.906 15.3885 18.4885 15.4065 18.218 15.1606C17.9456 14.9129 17.9259 14.4909 18.1735 14.2185L18.6665 14.6673Z" fill="black"/>
<path fill-rule="evenodd" clip-rule="evenodd" d="M19.1594 15.1162C19.1577 15.118 19.1561 15.1199 19.1543 15.1217C19.1539 15.1222 19.1543 15.1217 19.1543 15.1217C19.1545 15.1215 19.155 15.1209 19.1553 15.1207L19.1571 15.1187L19.1583 15.1173L19.1594 15.1162ZM18.6665 14.6673C18.1732 14.2189 18.1733 14.2187 18.1735 14.2185L18.1748 14.2171L18.1767 14.215L18.1812 14.2102L18.1931 14.1976C18.2023 14.1881 18.2141 14.1761 18.2285 14.162C18.2572 14.1339 18.2963 14.0975 18.3455 14.0556C18.4436 13.9721 18.5841 13.865 18.7647 13.759C19.1265 13.5467 19.6587 13.334 20.3331 13.334C21.5475 13.334 22.6665 14.3412 22.6665 16.034C22.6665 17.4559 22.0291 18.4563 21.2999 19.0879C20.9404 19.3993 20.5587 19.6221 20.2172 19.7685C19.8914 19.9083 19.5506 20.0007 19.2725 20.0007C18.9043 20.0007 18.6059 19.7022 18.6059 19.334C18.6059 18.9658 18.9043 18.6673 19.2725 18.6673C19.2723 18.6673 19.2723 18.6673 19.2725 18.6673C19.2739 18.6673 19.2847 18.6669 19.3061 18.6637C19.3297 18.6603 19.3613 18.6541 19.4005 18.6443C19.4792 18.6244 19.5785 18.5917 19.6915 18.5432C19.9182 18.4459 20.1804 18.2937 20.4269 18.0801C20.9099 17.6617 21.3331 17.0121 21.3331 16.034C21.3331 14.9935 20.7297 14.6673 20.3331 14.6673C19.947 14.6673 19.6458 14.7879 19.4394 14.909C19.336 14.9697 19.2586 15.0293 19.21 15.0707C19.1858 15.0913 19.1693 15.1069 19.1607 15.1153L19.1543 15.1217C18.906 15.3885 18.4885 15.4065 18.218 15.1606C17.9456 14.9129 17.9259 14.4909 18.1735 14.2185L18.6665 14.6673Z" fill="url(#paint0_linear_2727_12489)"/>
<defs>
<linearGradient id="paint0_linear_2727_12489" x1="22.6665" y1="19.2061" x2="21.8678" y2="13.5833" gradientUnits="userSpaceOnUse">
<stop stop-color="#2F4157"/>
<stop offset="1" stop-color="#567C8F"/>
</linearGradient>
</defs>
</svg>
