<svg width="32" height="32" viewBox="0 0 32 32" fill="none" xmlns="http://www.w3.org/2000/svg">
<path fill-rule="evenodd" clip-rule="evenodd" d="M6 4C4.89543 4 4 4.89543 4 6V26C4 27.1046 4.89543 28 6 28H9.59267V20.508C7.56347 18.9914 6 16.9483 6 14.2999C6 12.0986 6.9186 9.98753 8.5538 8.431C10.1889 6.87447 12.4067 6.00001 14.7191 6.00001C16.485 5.9981 18.23 6.36379 19.8317 7.07147C21.0941 7.57747 22.1993 8.38273 23.042 9.41047C23.8116 10.4902 24.2381 11.7581 24.2706 13.0624C24.2776 13.3622 24.2734 13.6465 24.2693 13.9215C24.255 14.8924 24.2423 15.7475 24.7303 16.7588C24.7303 16.7588 26.1729 18.0566 25.9827 19.0979C25.7925 20.1391 23.9139 20.4258 23.9139 20.4258C23.9139 26.032 16.7801 23.6921 16.7801 23.6921V28H26C27.1046 28 28 27.1046 28 26V6C28 4.89543 27.1046 4 26 4H6Z" fill="#9747FF"/>
<path d="M17.5123 14.9703C17.9417 14.9703 17.8056 14.8443 18.1602 14.6086C18.5203 14.8438 18.9453 14.9671 19.3789 14.9622L20.7564 14.4744C21.1445 14.163 21.411 13.7313 21.5112 13.2516C21.6113 12.7719 21.5392 12.2733 21.3067 11.8391C21.0743 11.405 20.6956 11.0617 20.2342 10.8668C20.1289 10.4023 19.8635 9.98692 19.4821 9.68946L18.1376 9.23152H17.9862C17.6871 8.80692 17.2381 8.50399 16.7246 8.38039L14.3974 8.22266C13.9182 8.26146 13.4664 8.45592 13.1146 8.77486C12.9483 8.73672 12.7782 8.71699 12.6074 8.71592C12.1939 8.71679 11.7894 8.83406 11.443 9.05366C11.0964 9.27319 10.8226 9.58572 10.6546 9.95339L9.55925 10.7085C9.28672 11.0679 9.13998 11.5029 9.14072 11.9495C9.13805 12.1363 9.16352 12.3225 9.21638 12.502C8.92905 12.8649 8.77452 13.3108 8.77738 13.7689C8.77672 14.3003 8.98532 14.8117 9.36025 15.1979C9.39052 15.5783 9.52705 15.9434 9.75525 16.2537C9.98338 16.564 10.2944 16.8077 10.6546 16.9583C11.0696 17.2115 11.421 17.5521 11.683 17.9549C11.945 18.3577 12.0532 18.8125 12.1107 19.2859H14.3974V17.0762C14.3969 16.6838 14.5093 16.2992 14.722 15.9659C14.9348 15.6326 15.054 15.364 15.4156 15.1905C15.7545 15.0643 16.0598 14.8654 16.3088 14.6086C16.6635 14.8443 17.0829 14.9703 17.5123 14.9703Z" fill="#9747FF"/>
<path d="M21.5553 16.8335C21.5553 17.2937 21.1822 17.6668 20.722 17.6668C20.2617 17.6668 19.8887 17.2937 19.8887 16.8335C19.8887 16.3732 20.2617 16.0001 20.722 16.0001C21.1822 16.0001 21.5553 16.3732 21.5553 16.8335Z" fill="#9747FF"/>
<path fill-rule="evenodd" clip-rule="evenodd" d="M14.3335 21.556H12.1113V20.2227H14.3335V21.556Z" fill="#9747FF"/>
<path fill-rule="evenodd" clip-rule="evenodd" d="M14.3335 23.7786H12.1113V22.4453H14.3335V23.7786Z" fill="#9747FF"/>
<path fill-rule="evenodd" clip-rule="evenodd" d="M14.3335 25.9993H12.1113V24.666H14.3335V25.9993Z" fill="#9747FF"/>
</svg>
