<svg width="32" height="32" viewBox="0 0 32 32" fill="none" xmlns="http://www.w3.org/2000/svg">
<path d="M11.0289 7.99414C14.929 7.99734 14.57 13.3019 14.5683 15.4239C14.5661 18.1321 15.231 23.5983 13.1417 25.6789C11.0127 27.7991 6.7573 28.8566 4.63148 27.0865C2.50565 25.3165 6.06532 7.99007 11.0289 7.99414Z" fill="#9747FF"/>
<path d="M20.9891 8.00195C17.0891 7.99875 17.4393 13.304 17.4376 15.4259C17.4353 18.1342 16.7615 23.5992 18.8473 25.6832C20.9729 27.8069 25.2265 28.8714 27.3553 27.1048C29.4839 25.3382 25.9527 8.00602 20.9891 8.00195Z" fill="#9747FF"/>
<path fill-rule="evenodd" clip-rule="evenodd" d="M15.3442 4C15.3442 4 15.3442 3.99992 16.0108 4.00047C16.6775 4.00102 16.6775 4.0011 16.6775 4.0011L16.6696 13.663C16.6684 15.0639 16.0442 15.8668 15.3374 16.2784C15.0058 16.4716 14.6802 16.5652 14.4414 16.6114C14.3208 16.6348 14.2184 16.6468 14.1431 16.653C14.1053 16.6561 14.074 16.6578 14.0502 16.6587C14.0383 16.6592 14.0282 16.6594 14.0201 16.6596L14.0094 16.6597H14.0052H14.0026C14.0026 16.6597 14.0018 16.6597 14.0024 15.993C14.0029 15.3264 14.0022 15.3264 14.0022 15.3264L14.0002 15.3264H13.9982H13.9961C13.9961 15.3264 13.9976 15.3264 13.9994 15.3263C14.0049 15.3261 14.0166 15.3256 14.0334 15.3242C14.0674 15.3214 14.1212 15.3153 14.188 15.3024C14.324 15.276 14.4981 15.2243 14.6664 15.1262C14.9594 14.9556 15.3354 14.5933 15.3362 13.662L15.3442 4Z" fill="#9747FF"/>
<path fill-rule="evenodd" clip-rule="evenodd" d="M16.6792 4.0011C16.6792 4.0011 16.6792 4.00102 16.0125 4.00047C15.3458 3.99992 15.3458 4 15.3458 4L15.3379 13.662C15.3368 15.0628 15.9596 15.8668 16.6658 16.2795C16.997 16.4732 17.3225 16.5673 17.5612 16.6139C17.6818 16.6375 17.7842 16.6497 17.8594 16.656C17.8972 16.6592 17.9286 16.6609 17.9524 16.6619C17.9643 16.6624 17.9744 16.6626 17.9824 16.6628L17.9931 16.663H17.9973H17.9991H17.9999C17.9999 16.663 18.0007 16.663 18.0012 15.9963C18.0018 15.3296 18.0026 15.3296 18.0026 15.3296H18.0045L18.0065 15.3297H18.0086C18.0086 15.3297 18.008 15.3297 18.0052 15.3296C17.9998 15.3294 17.9882 15.3288 17.9713 15.3274C17.9373 15.3245 17.8835 15.3184 17.8168 15.3053C17.6808 15.2788 17.5068 15.2267 17.3386 15.1284C17.0459 14.9573 16.6704 14.5944 16.6712 13.663L16.6792 4.0011Z" fill="#9747FF"/>
</svg>
