<svg width="32" height="32" viewBox="0 0 32 32" fill="none" xmlns="http://www.w3.org/2000/svg">
<path d="M7.99959 6.66667C8.73599 6.66667 9.33292 6.06971 9.33292 5.33333C9.33292 4.59695 8.73599 4 7.99959 4C7.50606 4 7.07519 4.26813 6.84466 4.66667H6.66626C5.56169 4.66667 4.66626 5.5621 4.66626 6.66667V12.6667C4.29808 12.6667 3.99646 12.9658 4.02988 13.3325C4.18487 15.0333 4.93004 16.6347 6.1475 17.8521C7.04026 18.7449 8.13946 19.3837 9.33292 19.722V21.3333C9.33292 22.2043 9.88959 22.9451 10.6665 23.2196C10.6949 25.8646 12.8479 28 15.4996 28C18.169 28 20.3329 25.8361 20.3329 23.1667V20.5C20.3329 19.1193 21.4522 18 22.8329 18C24.2137 18 25.3329 19.1193 25.3329 20.5V22.1138C24.5561 22.3883 23.9996 23.1292 23.9996 24C23.9996 25.1046 24.895 26 25.9996 26C27.1042 26 27.9996 25.1046 27.9996 24C27.9996 23.1292 27.4431 22.3883 26.6663 22.1138V20.5C26.6663 18.3829 24.95 16.6667 22.8329 16.6667C20.7159 16.6667 18.9996 18.3829 18.9996 20.5V23.1667C18.9996 25.0997 17.4326 26.6667 15.4996 26.6667C13.5842 26.6667 12.0282 25.1281 12 23.2194C12.7766 22.9447 13.3329 22.204 13.3329 21.3333V19.722C14.5264 19.3837 15.6257 18.7449 16.5184 17.8521C17.7359 16.6347 18.481 15.0333 18.636 13.3325C18.6695 12.9658 18.3678 12.6667 17.9996 12.6667V6.66667C17.9996 5.5621 17.1042 4.66667 15.9996 4.66667H15.8212C15.5907 4.26813 15.1598 4 14.6663 4C13.9299 4 13.3329 4.59695 13.3329 5.33333C13.3329 6.06971 13.9299 6.66667 14.6663 6.66667C15.1598 6.66667 15.5907 6.39853 15.8212 6H15.9996C16.3678 6 16.6663 6.29848 16.6663 6.66667V12.6667H16.8059C16.4377 12.6667 16.144 12.9666 16.0931 13.3313C15.9495 14.3604 15.4747 15.322 14.7315 16.0653C13.8301 16.9666 12.6077 17.473 11.3329 17.473C10.0583 17.473 8.83572 16.9666 7.93439 16.0653C7.19112 15.322 6.71646 14.3604 6.57279 13.3313C6.52188 12.9666 6.22816 12.6667 5.85997 12.6667H5.99959V6.66667C5.99959 6.29848 6.29807 6 6.66626 6H6.84466C7.07519 6.39853 7.50606 6.66667 7.99959 6.66667Z" fill="#9747FF"/>
</svg>
