<svg width="32" height="32" viewBox="0 0 32 32" fill="none" xmlns="http://www.w3.org/2000/svg">
<path d="M8.36493 20.5021C1.12211 17.4473 3.98051 7.13613 9.00826 5.43243C11.094 4.72568 13.3955 7.0704 13.3807 8.5262C13.3743 9.15567 13.0495 9.7694 12.7111 10.4088C12.2669 11.2483 11.7991 12.1321 11.9977 13.1539C12.3477 14.9539 12.7396 17.9912 11.7297 19.4329C10.7198 20.8747 9.70419 21.067 8.36493 20.5021Z" fill="#9747FF"/>
<path d="M22.8979 5.43243C27.9257 7.13613 30.7841 17.4473 23.5413 20.5021C22.2019 21.067 21.1863 20.8747 20.1765 19.4329C19.1666 17.9912 19.5585 14.9539 19.9084 13.1539C20.107 12.1321 19.6393 11.2483 19.195 10.4088C18.8566 9.7694 18.5318 9.15567 18.5255 8.5262C18.5107 7.0704 20.8122 4.72568 22.8979 5.43243Z" fill="#9747FF"/>
<path d="M19.0792 15.1865C19.125 15.8516 19.1258 15.8516 19.1258 15.8516L19.1266 15.8515L19.128 15.8514L19.1306 15.8512L19.1343 15.8509L19.1362 15.8507C19.1362 15.8507 19.1294 15.8515 19.1199 15.853C19.1008 15.8561 19.0672 15.8625 19.0243 15.8746C18.9369 15.8994 18.8217 15.9448 18.7089 16.0252C18.5158 16.1627 18.2318 16.4682 18.2318 17.239V26.883C18.2318 26.883 18.2318 26.8831 17.5651 26.8831C16.8984 26.8831 16.8984 26.8828 16.8984 26.8828V17.239C16.8984 16.0614 17.3715 15.3406 17.9354 14.939C18.2012 14.7498 18.4645 14.6474 18.661 14.5918C18.76 14.5637 18.8448 14.5468 18.9084 14.5366C18.9403 14.5314 18.9672 14.528 18.9882 14.5256C18.9988 14.5244 19.0079 14.5235 19.0154 14.5228L19.0256 14.522L19.0299 14.5217L19.0318 14.5216L19.0326 14.5215C19.0326 14.5215 19.0335 14.5214 19.0792 15.1865Z" fill="#9747FF"/>
<path d="M12.8287 15.1865C12.783 15.8516 12.7821 15.8516 12.7821 15.8516L12.7814 15.8515L12.7798 15.8514L12.7773 15.8512L12.7736 15.8509L12.7715 15.8507C12.7715 15.8507 12.7785 15.8515 12.788 15.853C12.8072 15.8561 12.8407 15.8625 12.8836 15.8746C12.971 15.8994 13.0862 15.9448 13.199 16.0252C13.3922 16.1627 13.6762 16.4682 13.6762 17.239V26.883C13.6762 26.883 13.6762 26.8831 14.3428 26.8831C15.0095 26.8831 15.0095 26.8828 15.0095 26.8828V17.239C15.0095 16.0614 14.5364 15.3406 13.9724 14.939C13.7068 14.7498 13.4434 14.6474 13.2469 14.5918C13.1479 14.5637 13.0631 14.5468 12.9995 14.5366C12.9676 14.5314 12.9407 14.528 12.9196 14.5256C12.9091 14.5244 12.9 14.5235 12.8924 14.5228L12.8822 14.522L12.878 14.5217L12.8762 14.5216L12.8752 14.5215C12.8752 14.5215 12.8744 14.5214 12.8287 15.1865Z" fill="#9747FF"/>
</svg>
