<svg width="1280" height="360" viewBox="0 0 1280 360" fill="none" xmlns="http://www.w3.org/2000/svg">
<g clip-path="url(#clip0_608_83)">
<rect width="1280" height="360" rx="16" fill="url(#paint0_linear_608_83)"/>
<g filter="url(#filter0_f_608_83)">
<circle cx="942.5" cy="278.5" r="116.5" fill="#933FF4"/>
</g>
<g filter="url(#filter1_f_608_83)">
<circle cx="1092.5" cy="148.5" r="116.5" fill="#C27DFF"/>
</g>
<path d="M910.891 103.522H908.559C908.25 103.522 908 103.271 908 102.961V88.5976C908 88.2885 908.25 88.0367 908.559 88.0367H910.891V103.522Z" fill="#7E7E7E"/>
<path d="M910.894 88.0367V103.521H908.561C908.301 103.521 908.093 103.349 908.034 103.119C908.101 103.268 908.242 103.372 908.413 103.372H909.386C909.699 103.372 909.954 103.117 909.954 102.802V88.7569C909.954 88.4421 909.699 88.1864 909.386 88.1864H908.413C908.242 88.1864 908.101 88.2904 908.034 88.4402C908.094 88.2084 908.302 88.0367 908.561 88.0367H910.894Z" fill="#454646"/>
<path d="M908.141 102.961V88.5976C908.141 88.2885 908.391 88.0367 908.698 88.0367H908.559C908.25 88.0367 908 88.2876 908 88.5976V102.961C908 103.27 908.25 103.522 908.559 103.522H908.698C908.391 103.522 908.141 103.271 908.141 102.961Z" fill="#BFBEBF"/>
<path d="M910.891 146.151H908.559C908.25 146.151 908 145.9 908 145.59V117.451C908 117.142 908.25 116.891 908.559 116.891H910.891V146.151Z" fill="#7E7E7E"/>
<path d="M910.894 116.893V146.152H908.561C908.301 146.152 908.093 145.981 908.034 145.75C908.101 145.899 908.242 146.003 908.413 146.003H909.386C909.699 146.003 909.954 145.748 909.954 145.433V117.613C909.954 117.298 909.699 117.043 909.386 117.043H908.413C908.242 117.043 908.101 117.148 908.034 117.297C908.094 117.066 908.302 116.894 908.561 116.894L910.894 116.893Z" fill="#454646"/>
<path d="M908.141 145.592V117.453C908.141 117.144 908.391 116.893 908.698 116.893H908.559C908.25 116.893 908 117.144 908 117.453V145.592C908 145.901 908.25 146.153 908.559 146.153H908.698C908.391 146.152 908.141 145.901 908.141 145.592Z" fill="#BFBEBF"/>
<path d="M910.891 183.091H908.559C908.25 183.091 908 182.84 908 182.531V154.392C908 154.083 908.25 153.831 908.559 153.831H910.891V183.091Z" fill="#7E7E7E"/>
<path d="M910.894 153.833V183.093H908.561C908.301 183.093 908.093 182.921 908.034 182.69C908.101 182.839 908.242 182.944 908.413 182.944H909.386C909.699 182.944 909.954 182.688 909.954 182.373V154.553C909.954 154.239 909.699 153.983 909.386 153.983H908.413C908.242 153.983 908.101 154.087 908.034 154.237C908.094 154.006 908.302 153.833 908.561 153.833H910.894Z" fill="#454646"/>
<path d="M908.141 182.531V154.392C908.141 154.083 908.391 153.831 908.698 153.831H908.559C908.25 153.831 908 154.082 908 154.392V182.531C908 182.84 908.25 183.091 908.559 183.091H908.698C908.391 183.091 908.141 182.84 908.141 182.531Z" fill="#BFBEBF"/>
<path d="M1107.68 127.897H1109.44C1109.75 127.897 1110 128.148 1110 128.457V172.796C1110 173.105 1109.75 173.357 1109.44 173.357H1107.68V127.897Z" fill="#7E7E7E"/>
<path d="M1107.67 173.357V127.897H1109.44C1109.7 127.897 1109.91 128.069 1109.97 128.301C1109.9 128.152 1109.76 128.047 1109.59 128.047H1109.18C1108.87 128.047 1108.61 128.303 1108.61 128.618V172.637C1108.61 172.952 1108.87 173.208 1109.18 173.208H1109.59C1109.76 173.208 1109.9 173.104 1109.97 172.954C1109.91 173.186 1109.7 173.357 1109.44 173.357H1107.67Z" fill="#454646"/>
<path d="M1109.86 128.459V172.798C1109.86 173.108 1109.61 173.359 1109.3 173.359H1109.44C1109.75 173.359 1110 173.108 1110 172.798V128.459C1110 128.15 1109.75 127.899 1109.44 127.899H1109.3C1109.61 127.898 1109.86 128.149 1109.86 128.459Z" fill="#BFBEBF"/>
<path d="M941.707 437C924.114 437 909.801 422.623 909.801 404.952V65.0479C909.801 47.3769 924.114 33 941.707 33H1076.87C1094.47 33 1108.78 47.3769 1108.78 65.0479V404.952C1108.78 422.623 1094.47 437 1076.87 437H941.707Z" fill="#454646"/>
<path d="M1076.69 435.606H941.895C924.782 435.606 910.909 421.672 910.909 404.484V65.5163C910.909 48.328 924.782 34.3938 941.895 34.3938H1076.69C1093.8 34.3938 1107.67 48.328 1107.67 65.5163V404.484C1107.67 421.672 1093.8 435.606 1076.69 435.606Z" fill="#7E7E7E"/>
<path d="M911.652 404.484V65.5163C911.652 48.328 925.525 34.3938 942.637 34.3938H941.895C924.782 34.3938 910.909 48.328 910.909 65.5163V404.484C910.909 421.672 924.782 435.606 941.895 435.606H942.637C925.525 435.606 911.652 421.672 911.652 404.484Z" fill="#BFBEBF"/>
<path d="M1106.93 404.484V65.5163C1106.93 48.328 1093.06 34.3938 1075.94 34.3938H1076.69C1093.8 34.3938 1107.67 48.328 1107.67 65.5163V404.484C1107.67 421.672 1093.8 435.606 1076.69 435.606H1075.94C1093.06 435.606 1106.93 421.672 1106.93 404.484Z" fill="#BFBEBF"/>
<path d="M941.895 36.7817H1076.69C1093.8 36.7817 1107.67 50.7159 1107.67 67.9042V65.5163C1107.67 48.328 1093.8 34.3938 1076.69 34.3938H941.895C924.782 34.3938 910.909 48.328 910.909 65.5163V67.9042C910.908 50.7159 924.782 36.7817 941.895 36.7817Z" fill="#ECE8EF"/>
<path d="M914.591 71.9297H909.801V74.6658H914.591V71.9297Z" fill="#707171"/>
<path d="M910.903 71.9297H909.801V74.6658H910.903V71.9297Z" fill="#3A3A3A"/>
<path d="M1108.78 71.9299H1103.99V74.666H1108.78V71.9299Z" fill="#707171"/>
<path d="M1108.78 71.9299H1107.68V74.666H1108.78V71.9299Z" fill="#3A3A3A"/>
<path d="M941.895 431.892C926.849 431.892 914.608 419.597 914.608 404.484V65.5167C914.608 50.4043 926.849 38.1091 941.895 38.1091H1076.69C1091.73 38.1091 1103.97 50.4043 1103.97 65.5167V404.484C1103.97 419.597 1091.73 431.892 1076.69 431.892H941.895Z" fill="#525252"/>
<rect x="916.723" y="44.989" width="185.473" height="379.504" rx="29" fill="#000800"/>
<path d="M1103.97 149.135V404.485C1103.97 419.595 1091.73 431.89 1076.69 431.89H941.892C926.849 431.89 914.608 419.595 914.608 404.485V313.891L1103.97 149.135Z" fill="#4D4E4E" fill-opacity="0.2" style="mix-blend-mode:lighten"/>
<path d="M1060.7 58.3933H1058.83V60.8365H1060.7V58.3933Z" fill="white"/>
<path d="M1063.49 56.9902H1061.63V60.7995H1063.49V56.9902Z" fill="white"/>
<path d="M1066.29 55.4829H1064.42V60.7843H1066.29V55.4829Z" fill="white"/>
<path d="M1078.14 57.57C1078 57.57 1077.85 57.5147 1077.74 57.403C1075.68 55.329 1072.32 55.33 1070.25 57.403C1070.03 57.6263 1069.67 57.6263 1069.45 57.403C1069.23 57.1807 1069.23 56.8192 1069.45 56.5959C1071.96 54.0764 1076.04 54.0764 1078.54 56.5959C1078.77 56.8192 1078.77 57.1798 1078.54 57.403C1078.43 57.5147 1078.29 57.57 1078.14 57.57Z" fill="white"/>
<path d="M1077.04 58.8787C1076.89 58.8787 1076.75 58.8233 1076.63 58.7117C1075.93 58.0029 1074.99 57.6136 1074 57.6136C1073 57.6136 1072.06 58.0038 1071.36 58.7117C1071.13 58.9349 1070.77 58.9349 1070.55 58.7117C1070.33 58.4885 1070.33 58.1279 1070.55 57.9056C1071.47 56.9811 1072.69 56.4727 1074 56.4727C1075.3 56.4727 1076.52 56.9811 1077.44 57.9056C1077.66 58.1279 1077.66 58.4894 1077.44 58.7117C1077.33 58.8233 1077.18 58.8787 1077.04 58.8787Z" fill="white"/>
<path d="M1075.81 60.1075C1075.67 60.1075 1075.52 60.0522 1075.41 59.9405C1074.66 59.1802 1073.34 59.1802 1072.58 59.9405C1072.36 60.1638 1072 60.1638 1071.78 59.9405C1071.55 59.7183 1071.55 59.3567 1071.78 59.1344C1072.37 58.5391 1073.16 58.2109 1074 58.2109C1074.83 58.2109 1075.62 58.5382 1076.21 59.1344C1076.44 59.3567 1076.44 59.7183 1076.21 59.9405C1076.1 60.0522 1075.96 60.1075 1075.81 60.1075Z" fill="white"/>
<path d="M1074.81 60.8006C1074.81 61.2499 1074.44 61.6143 1074 61.6143C1073.55 61.6143 1073.18 61.2499 1073.18 60.8006C1073.18 60.3512 1073.55 59.9868 1074 59.9868C1074.44 59.9868 1074.81 60.3512 1074.81 60.8006Z" fill="white"/>
<path d="M1089.1 56.8578H1088.58V56.4695C1088.58 56.294 1088.44 56.1499 1088.27 56.1499H1081.82C1081.65 56.1499 1081.51 56.294 1081.51 56.4695V59.8505C1081.51 60.026 1081.65 60.1701 1081.82 60.1701H1088.27C1088.44 60.1701 1088.58 60.026 1088.58 59.8505V59.2514H1089.1C1089.24 59.2514 1089.35 59.1398 1089.35 59.0024V57.1068C1089.35 56.9694 1089.24 56.8578 1089.1 56.8578ZM1087.96 59.5442H1085.98L1086.94 56.7767H1087.96V59.5442Z" fill="white"/>
<path d="M1076.69 38.109H941.896C926.85 38.109 914.608 50.4052 914.608 65.5176V404.483C914.608 419.595 926.85 431.892 941.896 431.892H1076.69C1091.73 431.892 1103.98 419.595 1103.98 404.483V65.5176C1103.98 50.4052 1091.73 38.109 1076.69 38.109ZM1095.9 404.935C1095.9 414.902 1087.85 422.981 1077.93 422.981H940.655C930.732 422.981 922.688 414.902 922.688 404.935V65.0644C922.688 55.098 930.732 47.0185 940.655 47.0185H958.305C959.306 47.0185 960.118 47.8342 960.118 48.8397C960.118 55.5692 965.55 61.0252 972.25 61.0252H1046.33C1053.03 61.0252 1058.47 55.5702 1058.47 48.8406C1058.47 47.8351 1059.28 47.0194 1060.28 47.0194H1077.93C1087.85 47.0194 1095.9 55.0989 1095.9 65.0654V404.935Z" fill="#1D1E1E"/>
<path d="M920.357 402.393V246.667V223.334V67.6083C920.357 50.3399 928.635 46.6097 928.635 46.6097C922.231 48.0875 916.592 56.3606 916.592 68.7989V223.334V246.667V401.203C916.592 413.641 922.231 421.914 928.635 423.392C928.635 423.392 920.357 419.662 920.357 402.393Z" fill="#363837"/>
<path d="M1098.23 67.6072V223.333V246.666V402.392C1098.23 419.661 1089.95 423.392 1089.95 423.392C1096.35 421.914 1101.99 413.641 1101.99 401.203V246.666V223.333V68.7969C1101.99 56.3585 1096.35 48.0864 1089.95 46.6077C1089.95 46.6077 1098.23 50.3388 1098.23 67.6072Z" fill="#363837"/>
<path d="M936.314 42.7408C931.653 42.7408 927.231 43.7196 923.308 45.475C928.183 40.9015 934.721 38.1072 941.89 38.1072H1076.69C1083.87 38.1072 1090.4 40.9015 1095.27 45.475C1091.35 43.7196 1086.94 42.7408 1082.27 42.7408H936.314Z" fill="#2C2E2C"/>
<path d="M1036.65 49.5656C1036.83 47.1096 1034.99 44.9772 1032.54 44.8026C1030.1 44.628 1027.97 46.4775 1027.8 48.9334C1027.63 51.3894 1029.47 53.5219 1031.91 53.6964C1034.36 53.871 1036.48 52.0216 1036.65 49.5656Z" fill="#151515"/>
<path d="M1034.7 45.5527C1035.17 46.2625 1035.45 47.1173 1035.45 48.0379C1035.45 50.5002 1033.46 52.496 1031.01 52.496C1030.1 52.496 1029.24 52.2165 1028.54 51.7385C1029.33 52.9281 1030.69 53.7114 1032.22 53.7114C1034.67 53.7114 1036.66 51.7156 1036.66 49.2533C1036.66 47.7116 1035.88 46.3531 1034.7 45.5527Z" fill="black"/>
<path d="M1023.72 50.739H994.868C994.051 50.739 993.388 50.0741 993.388 49.2527C993.388 48.4323 994.05 47.7664 994.868 47.7664H1023.72C1024.53 47.7664 1025.2 48.4313 1025.2 49.2527C1025.2 50.0741 1024.53 50.739 1023.72 50.739Z" fill="#151515"/>
<path d="M994.867 49.785C994.575 49.785 994.339 49.5474 994.339 49.2545C994.339 48.9617 994.575 48.7241 994.867 48.7241H1023.72C1024.01 48.7241 1024.24 48.9617 1024.24 49.2545C1024.24 49.5474 1024.01 49.785 1023.72 49.785H994.867Z" fill="black"/>
<path d="M1035.16 49.5536C1035.32 47.9204 1034.13 46.4654 1032.5 46.3037C1030.88 46.142 1029.43 47.3349 1029.27 48.9681C1029.11 50.6013 1030.29 52.0563 1031.92 52.218C1033.55 52.3797 1034.99 51.1868 1035.16 49.5536Z" fill="#212A3B"/>
<path d="M1033.74 47.2522C1034.04 47.6701 1034.23 48.1785 1034.23 48.7338C1034.23 50.1323 1033.1 51.2657 1031.7 51.2657C1031.15 51.2657 1030.64 51.0816 1030.23 50.7782C1030.69 51.4117 1031.43 51.8276 1032.26 51.8276C1033.66 51.8276 1034.78 50.6942 1034.78 49.2957C1034.78 48.4542 1034.37 47.713 1033.74 47.2522Z" fill="#273145"/>
<path d="M1033.81 49.2547C1033.81 50.1372 1033.1 50.8527 1032.22 50.8527C1031.34 50.8527 1030.63 50.1372 1030.63 49.2547C1030.63 48.3722 1031.34 47.6567 1032.22 47.6567C1033.1 47.6558 1033.81 48.3713 1033.81 49.2547Z" fill="#19202E"/>
<path d="M1032.24 46.9521C1032.09 46.6077 1031.62 46.4808 1031.19 46.6678C1030.77 46.8558 1030.55 47.287 1030.7 47.6314C1030.85 47.9758 1031.31 48.1036 1031.74 47.9157C1032.17 47.7287 1032.39 47.2965 1032.24 46.9521Z" fill="#637CAD"/>
<path d="M1030.21 47.6944C1030.02 47.6839 1029.85 47.8318 1029.84 48.0245C1029.83 48.2172 1029.98 48.3813 1030.17 48.3918C1030.36 48.4023 1030.53 48.2544 1030.54 48.0617C1030.55 47.869 1030.4 47.7039 1030.21 47.6944Z" fill="#637CAD"/>
<rect x="944.5" y="128.5" width="137" height="167" rx="23.5" stroke="#D8B3FF"/>
<mask id="mask0_608_83" style="mask-type:luminance" maskUnits="userSpaceOnUse" x="974" y="145" width="78" height="78">
<path d="M976.8 169.24H974.12V171.92H976.8V169.24Z" fill="white"/>
<path d="M976.8 179.96H974.12V182.64H976.8V179.96Z" fill="white"/>
<path d="M976.8 182.64H974.12V185.32H976.8V182.64Z" fill="white"/>
<path d="M976.8 190.68H974.12V193.36H976.8V190.68Z" fill="white"/>
<path d="M979.48 166.56H976.8V169.24H979.48V166.56Z" fill="white"/>
<path d="M979.48 174.6H976.8V177.28H979.48V174.6Z" fill="white"/>
<path d="M979.48 190.68H976.8V193.36H979.48V190.68Z" fill="white"/>
<path d="M979.48 196.04H976.8V198.72H979.48V196.04Z" fill="white"/>
<path d="M982.16 171.92H979.48V174.6H982.16V171.92Z" fill="white"/>
<path d="M982.16 174.6H979.48V177.28H982.16V174.6Z" fill="white"/>
<path d="M982.16 177.28H979.48V179.96H982.16V177.28Z" fill="white"/>
<path d="M982.16 182.64H979.48V185.32H982.16V182.64Z" fill="white"/>
<path d="M984.84 166.56H982.16V169.24H984.84V166.56Z" fill="white"/>
<path d="M984.84 169.24H982.16V171.92H984.84V169.24Z" fill="white"/>
<path d="M984.84 171.92H982.16V174.6H984.84V171.92Z" fill="white"/>
<path d="M984.84 177.28H982.16V179.96H984.84V177.28Z" fill="white"/>
<path d="M984.84 188H982.16V190.68H984.84V188Z" fill="white"/>
<path d="M984.84 190.68H982.16V193.36H984.84V190.68Z" fill="white"/>
<path d="M984.84 193.36H982.16V196.04H984.84V193.36Z" fill="white"/>
<path d="M987.52 166.56H984.84V169.24H987.52V166.56Z" fill="white"/>
<path d="M987.52 169.24H984.84V171.92H987.52V169.24Z" fill="white"/>
<path d="M987.52 171.92H984.84V174.6H987.52V171.92Z" fill="white"/>
<path d="M987.52 174.6H984.84V177.28H987.52V174.6Z" fill="white"/>
<path d="M987.52 179.96H984.84V182.64H987.52V179.96Z" fill="white"/>
<path d="M987.52 188H984.84V190.68H987.52V188Z" fill="white"/>
<path d="M987.52 190.68H984.84V193.36H987.52V190.68Z" fill="white"/>
<path d="M987.52 193.36H984.84V196.04H987.52V193.36Z" fill="white"/>
<path d="M987.52 196.04H984.84V198.72H987.52V196.04Z" fill="white"/>
<path d="M990.2 177.28H987.52V179.96H990.2V177.28Z" fill="white"/>
<path d="M990.2 182.64H987.52V185.32H990.2V182.64Z" fill="white"/>
<path d="M990.2 185.32H987.52V188H990.2V185.32Z" fill="white"/>
<path d="M990.2 188H987.52V190.68H990.2V188Z" fill="white"/>
<path d="M990.2 190.68H987.52V193.36H990.2V190.68Z" fill="white"/>
<path d="M990.2 198.72H987.52V201.4H990.2V198.72Z" fill="white"/>
<path d="M992.88 166.56H990.2V169.24H992.88V166.56Z" fill="white"/>
<path d="M992.88 171.92H990.2V174.6H992.88V171.92Z" fill="white"/>
<path d="M992.88 177.28H990.2V179.96H992.88V177.28Z" fill="white"/>
<path d="M992.88 182.64H990.2V185.32H992.88V182.64Z" fill="white"/>
<path d="M992.88 188H990.2V190.68H992.88V188Z" fill="white"/>
<path d="M992.88 193.36H990.2V196.04H992.88V193.36Z" fill="white"/>
<path d="M992.88 198.72H990.2V201.4H992.88V198.72Z" fill="white"/>
<path d="M995.56 166.56H992.88V169.24H995.56V166.56Z" fill="white"/>
<path d="M995.56 169.24H992.88V171.92H995.56V169.24Z" fill="white"/>
<path d="M995.56 171.92H992.88V174.6H995.56V171.92Z" fill="white"/>
<path d="M995.56 174.6H992.88V177.28H995.56V174.6Z" fill="white"/>
<path d="M995.56 185.32H992.88V188H995.56V185.32Z" fill="white"/>
<path d="M995.56 188H992.88V190.68H995.56V188Z" fill="white"/>
<path d="M995.56 193.36H992.88V196.04H995.56V193.36Z" fill="white"/>
<path d="M998.24 147.8H995.56V150.48H998.24V147.8Z" fill="white"/>
<path d="M998.24 153.16H995.56V155.84H998.24V153.16Z" fill="white"/>
<path d="M998.24 155.84H995.56V158.52H998.24V155.84Z" fill="white"/>
<path d="M998.24 158.52H995.56V161.2H998.24V158.52Z" fill="white"/>
<path d="M998.24 161.2H995.56V163.88H998.24V161.2Z" fill="white"/>
<path d="M998.24 166.56H995.56V169.24H998.24V166.56Z" fill="white"/>
<path d="M998.24 174.6H995.56V177.28H998.24V174.6Z" fill="white"/>
<path d="M998.24 177.28H995.56V179.96H998.24V177.28Z" fill="white"/>
<path d="M998.24 179.96H995.56V182.64H998.24V179.96Z" fill="white"/>
<path d="M998.24 182.64H995.56V185.32H998.24V182.64Z" fill="white"/>
<path d="M998.24 185.32H995.56V188H998.24V185.32Z" fill="white"/>
<path d="M998.24 188H995.56V190.68H998.24V188Z" fill="white"/>
<path d="M998.24 190.68H995.56V193.36H998.24V190.68Z" fill="white"/>
<path d="M998.24 196.04H995.56V198.72H998.24V196.04Z" fill="white"/>
<path d="M998.24 198.72H995.56V201.4H998.24V198.72Z" fill="white"/>
<path d="M998.24 201.4H995.56V204.08H998.24V201.4Z" fill="white"/>
<path d="M998.24 204.08H995.56V206.76H998.24V204.08Z" fill="white"/>
<path d="M998.24 209.44H995.56V212.12H998.24V209.44Z" fill="white"/>
<path d="M998.24 212.12H995.56V214.8H998.24V212.12Z" fill="white"/>
<path d="M998.24 217.48H995.56V220.16H998.24V217.48Z" fill="white"/>
<path d="M1000.92 145.12H998.24V147.8H1000.92V145.12Z" fill="white"/>
<path d="M1000.92 147.8H998.24V150.48H1000.92V147.8Z" fill="white"/>
<path d="M1000.92 153.16H998.24V155.84H1000.92V153.16Z" fill="white"/>
<path d="M1000.92 155.84H998.24V158.52H1000.92V155.84Z" fill="white"/>
<path d="M1000.92 158.52H998.24V161.2H1000.92V158.52Z" fill="white"/>
<path d="M1000.92 166.56H998.24V169.24H1000.92V166.56Z" fill="white"/>
<path d="M1000.92 169.24H998.24V171.92H1000.92V169.24Z" fill="white"/>
<path d="M1000.92 174.6H998.24V177.28H1000.92V174.6Z" fill="white"/>
<path d="M1000.92 177.28H998.24V179.96H1000.92V177.28Z" fill="white"/>
<path d="M1000.92 185.32H998.24V188H1000.92V185.32Z" fill="white"/>
<path d="M1000.92 188H998.24V190.68H1000.92V188Z" fill="white"/>
<path d="M1000.92 190.68H998.24V193.36H1000.92V190.68Z" fill="white"/>
<path d="M1000.92 193.36H998.24V196.04H1000.92V193.36Z" fill="white"/>
<path d="M1000.92 196.04H998.24V198.72H1000.92V196.04Z" fill="white"/>
<path d="M1000.92 206.76H998.24V209.44H1000.92V206.76Z" fill="white"/>
<path d="M1000.92 209.44H998.24V212.12H1000.92V209.44Z" fill="white"/>
<path d="M1000.92 212.12H998.24V214.8H1000.92V212.12Z" fill="white"/>
<path d="M1000.92 217.48H998.24V220.16H1000.92V217.48Z" fill="white"/>
<path d="M1003.6 147.8H1000.92V150.48H1003.6V147.8Z" fill="white"/>
<path d="M1003.6 150.48H1000.92V153.16H1003.6V150.48Z" fill="white"/>
<path d="M1003.6 158.52H1000.92V161.2H1003.6V158.52Z" fill="white"/>
<path d="M1003.6 161.2H1000.92V163.88H1003.6V161.2Z" fill="white"/>
<path d="M1003.6 166.56H1000.92V169.24H1003.6V166.56Z" fill="white"/>
<path d="M1003.6 174.6H1000.92V177.28H1003.6V174.6Z" fill="white"/>
<path d="M1003.6 179.96H1000.92V182.64H1003.6V179.96Z" fill="white"/>
<path d="M1003.6 201.4H1000.92V204.08H1003.6V201.4Z" fill="white"/>
<path d="M1003.6 204.08H1000.92V206.76H1003.6V204.08Z" fill="white"/>
<path d="M1006.28 150.48H1003.6V153.16H1006.28V150.48Z" fill="white"/>
<path d="M1006.28 163.88H1003.6V166.56H1006.28V163.88Z" fill="white"/>
<path d="M1006.28 166.56H1003.6V169.24H1006.28V166.56Z" fill="white"/>
<path d="M1006.28 169.24H1003.6V171.92H1006.28V169.24Z" fill="white"/>
<path d="M1006.28 171.92H1003.6V174.6H1006.28V171.92Z" fill="white"/>
<path d="M1006.28 174.6H1003.6V177.28H1006.28V174.6Z" fill="white"/>
<path d="M1006.28 177.28H1003.6V179.96H1006.28V177.28Z" fill="white"/>
<path d="M1006.28 179.96H1003.6V182.64H1006.28V179.96Z" fill="white"/>
<path d="M1006.28 182.64H1003.6V185.32H1006.28V182.64Z" fill="white"/>
<path d="M1006.28 188H1003.6V190.68H1006.28V188Z" fill="white"/>
<path d="M1006.28 190.68H1003.6V193.36H1006.28V190.68Z" fill="white"/>
<path d="M1006.28 193.36H1003.6V196.04H1006.28V193.36Z" fill="white"/>
<path d="M1006.28 198.72H1003.6V201.4H1006.28V198.72Z" fill="white"/>
<path d="M1006.28 212.12H1003.6V214.8H1006.28V212.12Z" fill="white"/>
<path d="M1006.28 220.16H1003.6V222.84H1006.28V220.16Z" fill="white"/>
<path d="M1008.96 158.52H1006.28V161.2H1008.96V158.52Z" fill="white"/>
<path d="M1008.96 161.2H1006.28V163.88H1008.96V161.2Z" fill="white"/>
<path d="M1008.96 169.24H1006.28V171.92H1008.96V169.24Z" fill="white"/>
<path d="M1008.96 171.92H1006.28V174.6H1008.96V171.92Z" fill="white"/>
<path d="M1008.96 177.28H1006.28V179.96H1008.96V177.28Z" fill="white"/>
<path d="M1008.96 182.64H1006.28V185.32H1008.96V182.64Z" fill="white"/>
<path d="M1008.96 185.32H1006.28V188H1008.96V185.32Z" fill="white"/>
<path d="M1008.96 201.4H1006.28V204.08H1008.96V201.4Z" fill="white"/>
<path d="M1008.96 204.08H1006.28V206.76H1008.96V204.08Z" fill="white"/>
<path d="M1008.96 212.12H1006.28V214.8H1008.96V212.12Z" fill="white"/>
<path d="M1008.96 217.48H1006.28V220.16H1008.96V217.48Z" fill="white"/>
<path d="M1011.64 150.48H1008.96V153.16H1011.64V150.48Z" fill="white"/>
<path d="M1011.64 153.16H1008.96V155.84H1011.64V153.16Z" fill="white"/>
<path d="M1011.64 155.84H1008.96V158.52H1011.64V155.84Z" fill="white"/>
<path d="M1011.64 163.88H1008.96V166.56H1011.64V163.88Z" fill="white"/>
<path d="M1011.64 166.56H1008.96V169.24H1011.64V166.56Z" fill="white"/>
<path d="M1011.64 169.24H1008.96V171.92H1011.64V169.24Z" fill="white"/>
<path d="M1011.64 177.28H1008.96V179.96H1011.64V177.28Z" fill="white"/>
<path d="M1011.64 182.64H1008.96V185.32H1011.64V182.64Z" fill="white"/>
<path d="M1011.64 185.32H1008.96V188H1011.64V185.32Z" fill="white"/>
<path d="M1011.64 188H1008.96V190.68H1011.64V188Z" fill="white"/>
<path d="M1011.64 190.68H1008.96V193.36H1011.64V190.68Z" fill="white"/>
<path d="M1011.64 193.36H1008.96V196.04H1011.64V193.36Z" fill="white"/>
<path d="M1011.64 204.08H1008.96V206.76H1011.64V204.08Z" fill="white"/>
<path d="M1011.64 209.44H1008.96V212.12H1011.64V209.44Z" fill="white"/>
<path d="M1011.64 214.8H1008.96V217.48H1011.64V214.8Z" fill="white"/>
<path d="M1011.64 220.16H1008.96V222.84H1011.64V220.16Z" fill="white"/>
<path d="M1014.32 153.16H1011.64V155.84H1014.32V153.16Z" fill="white"/>
<path d="M1014.32 155.84H1011.64V158.52H1014.32V155.84Z" fill="white"/>
<path d="M1014.32 158.52H1011.64V161.2H1014.32V158.52Z" fill="white"/>
<path d="M1014.32 161.2H1011.64V163.88H1014.32V161.2Z" fill="white"/>
<path d="M1014.32 169.24H1011.64V171.92H1014.32V169.24Z" fill="white"/>
<path d="M1014.32 177.28H1011.64V179.96H1014.32V177.28Z" fill="white"/>
<path d="M1014.32 179.96H1011.64V182.64H1014.32V179.96Z" fill="white"/>
<path d="M1014.32 182.64H1011.64V185.32H1014.32V182.64Z" fill="white"/>
<path d="M1014.32 190.68H1011.64V193.36H1014.32V190.68Z" fill="white"/>
<path d="M1014.32 196.04H1011.64V198.72H1014.32V196.04Z" fill="white"/>
<path d="M1014.32 198.72H1011.64V201.4H1014.32V198.72Z" fill="white"/>
<path d="M1014.32 201.4H1011.64V204.08H1014.32V201.4Z" fill="white"/>
<path d="M1014.32 204.08H1011.64V206.76H1014.32V204.08Z" fill="white"/>
<path d="M1014.32 206.76H1011.64V209.44H1014.32V206.76Z" fill="white"/>
<path d="M1014.32 212.12H1011.64V214.8H1014.32V212.12Z" fill="white"/>
<path d="M1014.32 217.48H1011.64V220.16H1014.32V217.48Z" fill="white"/>
<path d="M1014.32 220.16H1011.64V222.84H1014.32V220.16Z" fill="white"/>
<path d="M1017 145.12H1014.32V147.8H1017V145.12Z" fill="white"/>
<path d="M1017 147.8H1014.32V150.48H1017V147.8Z" fill="white"/>
<path d="M1017 155.84H1014.32V158.52H1017V155.84Z" fill="white"/>
<path d="M1017 158.52H1014.32V161.2H1017V158.52Z" fill="white"/>
<path d="M1017 169.24H1014.32V171.92H1017V169.24Z" fill="white"/>
<path d="M1017 171.92H1014.32V174.6H1017V171.92Z" fill="white"/>
<path d="M1017 174.6H1014.32V177.28H1017V174.6Z" fill="white"/>
<path d="M1017 182.64H1014.32V185.32H1017V182.64Z" fill="white"/>
<path d="M1017 196.04H1014.32V198.72H1017V196.04Z" fill="white"/>
<path d="M1017 201.4H1014.32V204.08H1017V201.4Z" fill="white"/>
<path d="M1017 204.08H1014.32V206.76H1017V204.08Z" fill="white"/>
<path d="M1017 209.44H1014.32V212.12H1017V209.44Z" fill="white"/>
<path d="M1017 212.12H1014.32V214.8H1017V212.12Z" fill="white"/>
<path d="M1017 214.8H1014.32V217.48H1017V214.8Z" fill="white"/>
<path d="M1017 217.48H1014.32V220.16H1017V217.48Z" fill="white"/>
<path d="M1017 220.16H1014.32V222.84H1017V220.16Z" fill="white"/>
<path d="M1019.68 147.8H1017V150.48H1019.68V147.8Z" fill="white"/>
<path d="M1019.68 150.48H1017V153.16H1019.68V150.48Z" fill="white"/>
<path d="M1019.68 153.16H1017V155.84H1019.68V153.16Z" fill="white"/>
<path d="M1019.68 155.84H1017V158.52H1019.68V155.84Z" fill="white"/>
<path d="M1019.68 161.2H1017V163.88H1019.68V161.2Z" fill="white"/>
<path d="M1019.68 166.56H1017V169.24H1019.68V166.56Z" fill="white"/>
<path d="M1019.68 177.28H1017V179.96H1019.68V177.28Z" fill="white"/>
<path d="M1019.68 179.96H1017V182.64H1019.68V179.96Z" fill="white"/>
<path d="M1019.68 182.64H1017V185.32H1019.68V182.64Z" fill="white"/>
<path d="M1019.68 185.32H1017V188H1019.68V185.32Z" fill="white"/>
<path d="M1019.68 198.72H1017V201.4H1019.68V198.72Z" fill="white"/>
<path d="M1019.68 206.76H1017V209.44H1019.68V206.76Z" fill="white"/>
<path d="M1019.68 212.12H1017V214.8H1019.68V212.12Z" fill="white"/>
<path d="M1022.36 145.12H1019.68V147.8H1022.36V145.12Z" fill="white"/>
<path d="M1022.36 147.8H1019.68V150.48H1022.36V147.8Z" fill="white"/>
<path d="M1022.36 153.16H1019.68V155.84H1022.36V153.16Z" fill="white"/>
<path d="M1022.36 155.84H1019.68V158.52H1022.36V155.84Z" fill="white"/>
<path d="M1022.36 158.52H1019.68V161.2H1022.36V158.52Z" fill="white"/>
<path d="M1022.36 166.56H1019.68V169.24H1022.36V166.56Z" fill="white"/>
<path d="M1022.36 177.28H1019.68V179.96H1022.36V177.28Z" fill="white"/>
<path d="M1022.36 182.64H1019.68V185.32H1022.36V182.64Z" fill="white"/>
<path d="M1022.36 188H1019.68V190.68H1022.36V188Z" fill="white"/>
<path d="M1022.36 190.68H1019.68V193.36H1022.36V190.68Z" fill="white"/>
<path d="M1022.36 196.04H1019.68V198.72H1022.36V196.04Z" fill="white"/>
<path d="M1022.36 201.4H1019.68V204.08H1022.36V201.4Z" fill="white"/>
<path d="M1022.36 206.76H1019.68V209.44H1022.36V206.76Z" fill="white"/>
<path d="M1022.36 209.44H1019.68V212.12H1022.36V209.44Z" fill="white"/>
<path d="M1025.04 145.12H1022.36V147.8H1025.04V145.12Z" fill="white"/>
<path d="M1025.04 147.8H1022.36V150.48H1025.04V147.8Z" fill="white"/>
<path d="M1025.04 150.48H1022.36V153.16H1025.04V150.48Z" fill="white"/>
<path d="M1025.04 153.16H1022.36V155.84H1025.04V153.16Z" fill="white"/>
<path d="M1025.04 158.52H1022.36V161.2H1025.04V158.52Z" fill="white"/>
<path d="M1025.04 161.2H1022.36V163.88H1025.04V161.2Z" fill="white"/>
<path d="M1025.04 169.24H1022.36V171.92H1025.04V169.24Z" fill="white"/>
<path d="M1025.04 171.92H1022.36V174.6H1025.04V171.92Z" fill="white"/>
<path d="M1025.04 174.6H1022.36V177.28H1025.04V174.6Z" fill="white"/>
<path d="M1025.04 177.28H1022.36V179.96H1025.04V177.28Z" fill="white"/>
<path d="M1025.04 179.96H1022.36V182.64H1025.04V179.96Z" fill="white"/>
<path d="M1025.04 182.64H1022.36V185.32H1025.04V182.64Z" fill="white"/>
<path d="M1025.04 185.32H1022.36V188H1025.04V185.32Z" fill="white"/>
<path d="M1025.04 190.68H1022.36V193.36H1025.04V190.68Z" fill="white"/>
<path d="M1025.04 193.36H1022.36V196.04H1025.04V193.36Z" fill="white"/>
<path d="M1025.04 196.04H1022.36V198.72H1025.04V196.04Z" fill="white"/>
<path d="M1025.04 198.72H1022.36V201.4H1025.04V198.72Z" fill="white"/>
<path d="M1025.04 209.44H1022.36V212.12H1025.04V209.44Z" fill="white"/>
<path d="M1025.04 220.16H1022.36V222.84H1025.04V220.16Z" fill="white"/>
<path d="M1027.72 145.12H1025.04V147.8H1027.72V145.12Z" fill="white"/>
<path d="M1027.72 147.8H1025.04V150.48H1027.72V147.8Z" fill="white"/>
<path d="M1027.72 150.48H1025.04V153.16H1027.72V150.48Z" fill="white"/>
<path d="M1027.72 166.56H1025.04V169.24H1027.72V166.56Z" fill="white"/>
<path d="M1027.72 169.24H1025.04V171.92H1027.72V169.24Z" fill="white"/>
<path d="M1027.72 171.92H1025.04V174.6H1027.72V171.92Z" fill="white"/>
<path d="M1027.72 174.6H1025.04V177.28H1027.72V174.6Z" fill="white"/>
<path d="M1027.72 185.32H1025.04V188H1027.72V185.32Z" fill="white"/>
<path d="M1027.72 188H1025.04V190.68H1027.72V188Z" fill="white"/>
<path d="M1027.72 196.04H1025.04V198.72H1027.72V196.04Z" fill="white"/>
<path d="M1027.72 198.72H1025.04V201.4H1027.72V198.72Z" fill="white"/>
<path d="M1027.72 201.4H1025.04V204.08H1027.72V201.4Z" fill="white"/>
<path d="M1027.72 204.08H1025.04V206.76H1027.72V204.08Z" fill="white"/>
<path d="M1027.72 206.76H1025.04V209.44H1027.72V206.76Z" fill="white"/>
<path d="M1027.72 214.8H1025.04V217.48H1027.72V214.8Z" fill="white"/>
<path d="M1030.4 145.12H1027.72V147.8H1030.4V145.12Z" fill="white"/>
<path d="M1030.4 147.8H1027.72V150.48H1030.4V147.8Z" fill="white"/>
<path d="M1030.4 150.48H1027.72V153.16H1030.4V150.48Z" fill="white"/>
<path d="M1030.4 155.84H1027.72V158.52H1030.4V155.84Z" fill="white"/>
<path d="M1030.4 158.52H1027.72V161.2H1030.4V158.52Z" fill="white"/>
<path d="M1030.4 161.2H1027.72V163.88H1030.4V161.2Z" fill="white"/>
<path d="M1030.4 166.56H1027.72V169.24H1030.4V166.56Z" fill="white"/>
<path d="M1030.4 169.24H1027.72V171.92H1030.4V169.24Z" fill="white"/>
<path d="M1030.4 182.64H1027.72V185.32H1030.4V182.64Z" fill="white"/>
<path d="M1030.4 188H1027.72V190.68H1030.4V188Z" fill="white"/>
<path d="M1030.4 190.68H1027.72V193.36H1030.4V190.68Z" fill="white"/>
<path d="M1030.4 196.04H1027.72V198.72H1030.4V196.04Z" fill="white"/>
<path d="M1030.4 198.72H1027.72V201.4H1030.4V198.72Z" fill="white"/>
<path d="M1030.4 201.4H1027.72V204.08H1030.4V201.4Z" fill="white"/>
<path d="M1030.4 204.08H1027.72V206.76H1030.4V204.08Z" fill="white"/>
<path d="M1030.4 206.76H1027.72V209.44H1030.4V206.76Z" fill="white"/>
<path d="M1030.4 209.44H1027.72V212.12H1030.4V209.44Z" fill="white"/>
<path d="M1030.4 212.12H1027.72V214.8H1030.4V212.12Z" fill="white"/>
<path d="M1030.4 214.8H1027.72V217.48H1030.4V214.8Z" fill="white"/>
<path d="M1030.4 217.48H1027.72V220.16H1030.4V217.48Z" fill="white"/>
<path d="M1030.4 220.16H1027.72V222.84H1030.4V220.16Z" fill="white"/>
<path d="M1033.08 166.56H1030.4V169.24H1033.08V166.56Z" fill="white"/>
<path d="M1033.08 171.92H1030.4V174.6H1033.08V171.92Z" fill="white"/>
<path d="M1033.08 174.6H1030.4V177.28H1033.08V174.6Z" fill="white"/>
<path d="M1033.08 185.32H1030.4V188H1033.08V185.32Z" fill="white"/>
<path d="M1033.08 196.04H1030.4V198.72H1033.08V196.04Z" fill="white"/>
<path d="M1033.08 198.72H1030.4V201.4H1033.08V198.72Z" fill="white"/>
<path d="M1033.08 209.44H1030.4V212.12H1033.08V209.44Z" fill="white"/>
<path d="M1033.08 212.12H1030.4V214.8H1033.08V212.12Z" fill="white"/>
<path d="M1033.08 214.8H1030.4V217.48H1033.08V214.8Z" fill="white"/>
<path d="M1035.76 169.24H1033.08V171.92H1035.76V169.24Z" fill="white"/>
<path d="M1035.76 171.92H1033.08V174.6H1035.76V171.92Z" fill="white"/>
<path d="M1035.76 174.6H1033.08V177.28H1035.76V174.6Z" fill="white"/>
<path d="M1035.76 179.96H1033.08V182.64H1035.76V179.96Z" fill="white"/>
<path d="M1035.76 182.64H1033.08V185.32H1035.76V182.64Z" fill="white"/>
<path d="M1035.76 185.32H1033.08V188H1035.76V185.32Z" fill="white"/>
<path d="M1035.76 193.36H1033.08V196.04H1035.76V193.36Z" fill="white"/>
<path d="M1035.76 196.04H1033.08V198.72H1035.76V196.04Z" fill="white"/>
<path d="M1035.76 198.72H1033.08V201.4H1035.76V198.72Z" fill="white"/>
<path d="M1035.76 204.08H1033.08V206.76H1035.76V204.08Z" fill="white"/>
<path d="M1035.76 209.44H1033.08V212.12H1035.76V209.44Z" fill="white"/>
<path d="M1035.76 214.8H1033.08V217.48H1035.76V214.8Z" fill="white"/>
<path d="M1038.44 166.56H1035.76V169.24H1038.44V166.56Z" fill="white"/>
<path d="M1038.44 174.6H1035.76V177.28H1038.44V174.6Z" fill="white"/>
<path d="M1038.44 179.96H1035.76V182.64H1038.44V179.96Z" fill="white"/>
<path d="M1038.44 188H1035.76V190.68H1038.44V188Z" fill="white"/>
<path d="M1038.44 190.68H1035.76V193.36H1038.44V190.68Z" fill="white"/>
<path d="M1038.44 193.36H1035.76V196.04H1038.44V193.36Z" fill="white"/>
<path d="M1038.44 196.04H1035.76V198.72H1038.44V196.04Z" fill="white"/>
<path d="M1038.44 198.72H1035.76V201.4H1038.44V198.72Z" fill="white"/>
<path d="M1038.44 209.44H1035.76V212.12H1038.44V209.44Z" fill="white"/>
<path d="M1038.44 212.12H1035.76V214.8H1038.44V212.12Z" fill="white"/>
<path d="M1038.44 220.16H1035.76V222.84H1038.44V220.16Z" fill="white"/>
<path d="M1041.12 166.56H1038.44V169.24H1041.12V166.56Z" fill="white"/>
<path d="M1041.12 174.6H1038.44V177.28H1041.12V174.6Z" fill="white"/>
<path d="M1041.12 185.32H1038.44V188H1041.12V185.32Z" fill="white"/>
<path d="M1041.12 188H1038.44V190.68H1041.12V188Z" fill="white"/>
<path d="M1041.12 196.04H1038.44V198.72H1041.12V196.04Z" fill="white"/>
<path d="M1041.12 198.72H1038.44V201.4H1041.12V198.72Z" fill="white"/>
<path d="M1041.12 201.4H1038.44V204.08H1041.12V201.4Z" fill="white"/>
<path d="M1041.12 204.08H1038.44V206.76H1041.12V204.08Z" fill="white"/>
<path d="M1041.12 206.76H1038.44V209.44H1041.12V206.76Z" fill="white"/>
<path d="M1041.12 209.44H1038.44V212.12H1041.12V209.44Z" fill="white"/>
<path d="M1043.8 166.56H1041.12V169.24H1043.8V166.56Z" fill="white"/>
<path d="M1043.8 169.24H1041.12V171.92H1043.8V169.24Z" fill="white"/>
<path d="M1043.8 174.6H1041.12V177.28H1043.8V174.6Z" fill="white"/>
<path d="M1043.8 182.64H1041.12V185.32H1043.8V182.64Z" fill="white"/>
<path d="M1043.8 185.32H1041.12V188H1043.8V185.32Z" fill="white"/>
<path d="M1043.8 193.36H1041.12V196.04H1043.8V193.36Z" fill="white"/>
<path d="M1043.8 206.76H1041.12V209.44H1043.8V206.76Z" fill="white"/>
<path d="M1043.8 220.16H1041.12V222.84H1043.8V220.16Z" fill="white"/>
<path d="M1046.48 174.6H1043.8V177.28H1046.48V174.6Z" fill="white"/>
<path d="M1046.48 177.28H1043.8V179.96H1046.48V177.28Z" fill="white"/>
<path d="M1046.48 179.96H1043.8V182.64H1046.48V179.96Z" fill="white"/>
<path d="M1046.48 182.64H1043.8V185.32H1046.48V182.64Z" fill="white"/>
<path d="M1046.48 185.32H1043.8V188H1046.48V185.32Z" fill="white"/>
<path d="M1046.48 193.36H1043.8V196.04H1046.48V193.36Z" fill="white"/>
<path d="M1046.48 198.72H1043.8V201.4H1046.48V198.72Z" fill="white"/>
<path d="M1046.48 201.4H1043.8V204.08H1046.48V201.4Z" fill="white"/>
<path d="M1046.48 206.76H1043.8V209.44H1046.48V206.76Z" fill="white"/>
<path d="M1046.48 209.44H1043.8V212.12H1046.48V209.44Z" fill="white"/>
<path d="M1046.48 214.8H1043.8V217.48H1046.48V214.8Z" fill="white"/>
<path d="M1046.48 217.48H1043.8V220.16H1046.48V217.48Z" fill="white"/>
<path d="M1046.48 220.16H1043.8V222.84H1046.48V220.16Z" fill="white"/>
<path d="M1049.16 166.56H1046.48V169.24H1049.16V166.56Z" fill="white"/>
<path d="M1049.16 169.24H1046.48V171.92H1049.16V169.24Z" fill="white"/>
<path d="M1049.16 179.96H1046.48V182.64H1049.16V179.96Z" fill="white"/>
<path d="M1049.16 193.36H1046.48V196.04H1049.16V193.36Z" fill="white"/>
<path d="M1049.16 196.04H1046.48V198.72H1049.16V196.04Z" fill="white"/>
<path d="M1049.16 204.08H1046.48V206.76H1049.16V204.08Z" fill="white"/>
<path d="M1049.16 209.44H1046.48V212.12H1049.16V209.44Z" fill="white"/>
<path d="M1049.16 212.12H1046.48V214.8H1049.16V212.12Z" fill="white"/>
<path d="M1049.16 214.8H1046.48V217.48H1049.16V214.8Z" fill="white"/>
<path d="M1049.16 220.16H1046.48V222.84H1049.16V220.16Z" fill="white"/>
<path d="M1051.84 174.6H1049.16V177.28H1051.84V174.6Z" fill="white"/>
<path d="M1051.84 177.28H1049.16V179.96H1051.84V177.28Z" fill="white"/>
<path d="M1051.84 182.64H1049.16V185.32H1051.84V182.64Z" fill="white"/>
<path d="M1051.84 185.32H1049.16V188H1051.84V185.32Z" fill="white"/>
<path d="M1051.84 188H1049.16V190.68H1051.84V188Z" fill="white"/>
<path d="M1051.84 196.04H1049.16V198.72H1051.84V196.04Z" fill="white"/>
<path d="M1051.84 198.72H1049.16V201.4H1051.84V198.72Z" fill="white"/>
<path d="M1051.84 201.4H1049.16V204.08H1051.84V201.4Z" fill="white"/>
<path d="M1051.84 206.76H1049.16V209.44H1051.84V206.76Z" fill="white"/>
<path d="M1051.84 209.44H1049.16V212.12H1051.84V209.44Z" fill="white"/>
</mask>
<g mask="url(#mask0_608_83)">
<path d="M1051.84 145.12H974.12V222.84H1051.84V145.12Z" fill="white"/>
</g>
<mask id="mask1_608_83" style="mask-type:luminance" maskUnits="userSpaceOnUse" x="974" y="145" width="19" height="19">
<path fill-rule="evenodd" clip-rule="evenodd" d="M974.12 145.12V163.88H992.88V145.12H974.12ZM976.8 147.8H990.2V161.2H976.8V147.8Z" fill="white"/>
</mask>
<g mask="url(#mask1_608_83)">
<path d="M992.88 145.12H974.12V163.88H992.88V145.12Z" fill="white"/>
</g>
<mask id="mask2_608_83" style="mask-type:luminance" maskUnits="userSpaceOnUse" x="979" y="150" width="9" height="9">
<path d="M987.52 150.48H979.48V158.52H987.52V150.48Z" fill="white"/>
</mask>
<g mask="url(#mask2_608_83)">
<path d="M987.52 150.48H979.48V158.52H987.52V150.48Z" fill="white"/>
</g>
<mask id="mask3_608_83" style="mask-type:luminance" maskUnits="userSpaceOnUse" x="1033" y="145" width="19" height="19">
<path fill-rule="evenodd" clip-rule="evenodd" d="M1051.84 145.12H1033.08V163.88H1051.84V145.12ZM1049.16 147.8V161.2H1035.76V147.8H1049.16Z" fill="white"/>
</mask>
<g mask="url(#mask3_608_83)">
<path d="M1051.84 145.12H1033.08V163.88H1051.84V145.12Z" fill="white"/>
</g>
<mask id="mask4_608_83" style="mask-type:luminance" maskUnits="userSpaceOnUse" x="1038" y="150" width="9" height="9">
<path d="M1046.48 158.52V150.48H1038.44V158.52H1046.48Z" fill="white"/>
</mask>
<g mask="url(#mask4_608_83)">
<path d="M1046.48 150.48H1038.44V158.52H1046.48V150.48Z" fill="white"/>
</g>
<mask id="mask5_608_83" style="mask-type:luminance" maskUnits="userSpaceOnUse" x="974" y="204" width="19" height="19">
<path fill-rule="evenodd" clip-rule="evenodd" d="M974.12 222.84H992.88V204.08H974.12V222.84ZM976.8 220.16V206.76H990.2V220.16H976.8Z" fill="white"/>
</mask>
<g mask="url(#mask5_608_83)">
<path d="M992.88 204.08H974.12V222.84H992.88V204.08Z" fill="white"/>
</g>
<mask id="mask6_608_83" style="mask-type:luminance" maskUnits="userSpaceOnUse" x="979" y="209" width="9" height="9">
<path d="M979.48 209.44V217.48H987.52V209.44H979.48Z" fill="white"/>
</mask>
<g mask="url(#mask6_608_83)">
<path d="M987.52 209.44H979.48V217.48H987.52V209.44Z" fill="white"/>
</g>
<path d="M961.217 249V240.273H962.274V244.159H966.928V240.273H967.984V249H966.928V245.097H962.274V249H961.217ZM972.09 249.153C971.675 249.153 971.299 249.075 970.961 248.919C970.623 248.76 970.354 248.531 970.155 248.233C969.956 247.932 969.857 247.568 969.857 247.142C969.857 246.767 969.931 246.463 970.079 246.23C970.226 245.994 970.424 245.81 970.671 245.676C970.918 245.543 971.191 245.443 971.489 245.378C971.79 245.31 972.093 245.256 972.397 245.216C972.794 245.165 973.117 245.126 973.364 245.101C973.614 245.072 973.796 245.026 973.91 244.96C974.026 244.895 974.084 244.781 974.084 244.619V244.585C974.084 244.165 973.969 243.838 973.739 243.605C973.512 243.372 973.167 243.256 972.704 243.256C972.223 243.256 971.847 243.361 971.574 243.571C971.302 243.781 971.11 244.006 970.999 244.244L970.044 243.903C970.215 243.506 970.442 243.196 970.726 242.974C971.013 242.75 971.326 242.594 971.664 242.506C972.005 242.415 972.34 242.369 972.669 242.369C972.88 242.369 973.121 242.395 973.394 242.446C973.669 242.494 973.935 242.595 974.191 242.749C974.449 242.902 974.664 243.134 974.834 243.443C975.005 243.753 975.09 244.168 975.09 244.688V249H974.084V248.114H974.033C973.965 248.256 973.851 248.408 973.692 248.57C973.533 248.732 973.321 248.869 973.057 248.983C972.793 249.097 972.471 249.153 972.09 249.153ZM972.243 248.25C972.641 248.25 972.976 248.172 973.249 248.016C973.525 247.859 973.732 247.658 973.871 247.411C974.013 247.163 974.084 246.903 974.084 246.631V245.71C974.042 245.761 973.948 245.808 973.803 245.851C973.661 245.891 973.496 245.926 973.309 245.957C973.124 245.986 972.944 246.011 972.768 246.034C972.594 246.054 972.454 246.071 972.346 246.085C972.084 246.119 971.84 246.175 971.613 246.251C971.388 246.325 971.206 246.437 971.067 246.588C970.931 246.736 970.863 246.937 970.863 247.193C970.863 247.543 970.992 247.807 971.25 247.986C971.512 248.162 971.843 248.25 972.243 248.25ZM977.126 249V242.455H979.802C980.506 242.455 981.066 242.614 981.481 242.932C981.895 243.25 982.103 243.67 982.103 244.193C982.103 244.591 981.985 244.899 981.749 245.118C981.513 245.334 981.211 245.48 980.841 245.557C981.083 245.591 981.317 245.676 981.545 245.812C981.775 245.949 981.965 246.136 982.116 246.375C982.266 246.611 982.341 246.901 982.341 247.244C982.341 247.58 982.256 247.879 982.086 248.143C981.915 248.408 981.671 248.616 981.353 248.77C981.035 248.923 980.654 249 980.211 249H977.126ZM978.08 248.08H980.211C980.557 248.08 980.829 247.997 981.025 247.832C981.221 247.668 981.319 247.443 981.319 247.159C981.319 246.821 981.221 246.555 981.025 246.362C980.829 246.166 980.557 246.068 980.211 246.068H978.08V248.08ZM978.08 245.199H979.802C980.072 245.199 980.303 245.162 980.496 245.088C980.689 245.011 980.837 244.903 980.939 244.764C981.045 244.622 981.097 244.455 981.097 244.261C981.097 243.986 980.982 243.77 980.752 243.614C980.522 243.455 980.205 243.375 979.802 243.375H978.08V245.199ZM986.808 249.136C986.177 249.136 985.633 248.997 985.176 248.719C984.721 248.438 984.371 248.045 984.123 247.543C983.879 247.037 983.757 246.449 983.757 245.778C983.757 245.108 983.879 244.517 984.123 244.006C984.371 243.491 984.714 243.091 985.155 242.804C985.598 242.514 986.115 242.369 986.706 242.369C987.047 242.369 987.383 242.426 987.716 242.54C988.048 242.653 988.351 242.838 988.623 243.094C988.896 243.347 989.114 243.682 989.275 244.099C989.437 244.517 989.518 245.031 989.518 245.642V246.068H984.473V245.199H988.496C988.496 244.83 988.422 244.5 988.274 244.21C988.129 243.92 987.922 243.692 987.652 243.524C987.385 243.357 987.069 243.273 986.706 243.273C986.305 243.273 985.959 243.372 985.666 243.571C985.376 243.767 985.153 244.023 984.997 244.338C984.841 244.653 984.763 244.991 984.763 245.352V245.932C984.763 246.426 984.848 246.845 985.018 247.189C985.192 247.53 985.432 247.79 985.739 247.969C986.045 248.145 986.402 248.233 986.808 248.233C987.072 248.233 987.311 248.196 987.524 248.122C987.74 248.045 987.926 247.932 988.082 247.781C988.239 247.628 988.359 247.437 988.444 247.21L989.416 247.483C989.314 247.812 989.142 248.102 988.9 248.352C988.659 248.599 988.361 248.793 988.006 248.932C987.65 249.068 987.251 249.136 986.808 249.136ZM990.549 250.875V248.062H991.095C991.228 247.923 991.343 247.773 991.44 247.611C991.537 247.449 991.62 247.257 991.691 247.036C991.765 246.811 991.828 246.538 991.879 246.217C991.93 245.893 991.975 245.503 992.015 245.045L992.237 242.455H996.396V248.062H997.402V250.875H996.396V249H991.555V250.875H990.549ZM992.237 248.062H995.39V243.392H993.174L993.004 245.045C992.933 245.73 992.845 246.328 992.74 246.839C992.635 247.351 992.467 247.759 992.237 248.062ZM999.942 247.517L1003.1 242.455H1004.25V249H1003.25V243.938L1000.11 249H998.936V242.455H999.942V247.517ZM1005.41 243.392V242.455H1010.72V243.392H1008.58V249H1007.57V243.392H1005.41ZM1014.8 249.136C1014.16 249.136 1013.62 248.997 1013.16 248.719C1012.71 248.438 1012.36 248.045 1012.11 247.543C1011.87 247.037 1011.74 246.449 1011.74 245.778C1011.74 245.108 1011.87 244.517 1012.11 244.006C1012.36 243.491 1012.7 243.091 1013.14 242.804C1013.59 242.514 1014.1 242.369 1014.69 242.369C1015.03 242.369 1015.37 242.426 1015.7 242.54C1016.04 242.653 1016.34 242.838 1016.61 243.094C1016.88 243.347 1017.1 243.682 1017.26 244.099C1017.42 244.517 1017.51 245.031 1017.51 245.642V246.068H1012.46V245.199H1016.48C1016.48 244.83 1016.41 244.5 1016.26 244.21C1016.12 243.92 1015.91 243.692 1015.64 243.524C1015.37 243.357 1015.06 243.273 1014.69 243.273C1014.29 243.273 1013.95 243.372 1013.65 243.571C1013.36 243.767 1013.14 244.023 1012.98 244.338C1012.83 244.653 1012.75 244.991 1012.75 245.352V245.932C1012.75 246.426 1012.84 246.845 1013.01 247.189C1013.18 247.53 1013.42 247.79 1013.73 247.969C1014.03 248.145 1014.39 248.233 1014.8 248.233C1015.06 248.233 1015.3 248.196 1015.51 248.122C1015.73 248.045 1015.91 247.932 1016.07 247.781C1016.23 247.628 1016.35 247.437 1016.43 247.21L1017.4 247.483C1017.3 247.812 1017.13 248.102 1016.89 248.352C1016.65 248.599 1016.35 248.793 1015.99 248.932C1015.64 249.068 1015.24 249.136 1014.8 249.136ZM1022.81 249V242.455H1023.82V245.301H1024.48L1026.83 242.455H1028.13L1025.49 245.608L1028.16 249H1026.87L1024.72 246.239H1023.82V249H1022.81ZM1031.38 249.153C1030.97 249.153 1030.59 249.075 1030.25 248.919C1029.91 248.76 1029.65 248.531 1029.45 248.233C1029.25 247.932 1029.15 247.568 1029.15 247.142C1029.15 246.767 1029.22 246.463 1029.37 246.23C1029.52 245.994 1029.72 245.81 1029.96 245.676C1030.21 245.543 1030.48 245.443 1030.78 245.378C1031.08 245.31 1031.38 245.256 1031.69 245.216C1032.09 245.165 1032.41 245.126 1032.66 245.101C1032.91 245.072 1033.09 245.026 1033.2 244.96C1033.32 244.895 1033.38 244.781 1033.38 244.619V244.585C1033.38 244.165 1033.26 243.838 1033.03 243.605C1032.8 243.372 1032.46 243.256 1032 243.256C1031.52 243.256 1031.14 243.361 1030.87 243.571C1030.59 243.781 1030.4 244.006 1030.29 244.244L1029.34 243.903C1029.51 243.506 1029.73 243.196 1030.02 242.974C1030.31 242.75 1030.62 242.594 1030.96 242.506C1031.3 242.415 1031.63 242.369 1031.96 242.369C1032.17 242.369 1032.41 242.395 1032.69 242.446C1032.96 242.494 1033.23 242.595 1033.48 242.749C1033.74 242.902 1033.96 243.134 1034.13 243.443C1034.3 243.753 1034.38 244.168 1034.38 244.688V249H1033.38V248.114H1033.33C1033.26 248.256 1033.14 248.408 1032.98 248.57C1032.83 248.732 1032.61 248.869 1032.35 248.983C1032.09 249.097 1031.76 249.153 1031.38 249.153ZM1031.54 248.25C1031.93 248.25 1032.27 248.172 1032.54 248.016C1032.82 247.859 1033.02 247.658 1033.16 247.411C1033.31 247.163 1033.38 246.903 1033.38 246.631V245.71C1033.33 245.761 1033.24 245.808 1033.1 245.851C1032.95 245.891 1032.79 245.926 1032.6 245.957C1032.42 245.986 1032.24 246.011 1032.06 246.034C1031.89 246.054 1031.75 246.071 1031.64 246.085C1031.38 246.119 1031.13 246.175 1030.9 246.251C1030.68 246.325 1030.5 246.437 1030.36 246.588C1030.22 246.736 1030.15 246.937 1030.15 247.193C1030.15 247.543 1030.28 247.807 1030.54 247.986C1030.8 248.162 1031.13 248.25 1031.54 248.25ZM1040 247.636L1042.28 242.455H1043.24L1040.41 249H1039.59L1036.81 242.455H1037.75L1040 247.636ZM1037.42 242.455V249H1036.42V242.455H1037.42ZM1042.57 249V242.455H1043.58V249H1042.57ZM1048.36 249.136C1047.73 249.136 1047.19 248.997 1046.73 248.719C1046.28 248.438 1045.92 248.045 1045.68 247.543C1045.43 247.037 1045.31 246.449 1045.31 245.778C1045.31 245.108 1045.43 244.517 1045.68 244.006C1045.92 243.491 1046.27 243.091 1046.71 242.804C1047.15 242.514 1047.67 242.369 1048.26 242.369C1048.6 242.369 1048.94 242.426 1049.27 242.54C1049.6 242.653 1049.9 242.838 1050.18 243.094C1050.45 243.347 1050.67 243.682 1050.83 244.099C1050.99 244.517 1051.07 245.031 1051.07 245.642V246.068H1046.03V245.199H1050.05C1050.05 244.83 1049.98 244.5 1049.83 244.21C1049.68 243.92 1049.48 243.692 1049.21 243.524C1048.94 243.357 1048.62 243.273 1048.26 243.273C1047.86 243.273 1047.51 243.372 1047.22 243.571C1046.93 243.767 1046.71 244.023 1046.55 244.338C1046.39 244.653 1046.32 244.991 1046.32 245.352V245.932C1046.32 246.426 1046.4 246.845 1046.57 247.189C1046.75 247.53 1046.99 247.79 1047.29 247.969C1047.6 248.145 1047.96 248.233 1048.36 248.233C1048.63 248.233 1048.86 248.196 1049.08 248.122C1049.29 248.045 1049.48 247.932 1049.64 247.781C1049.79 247.628 1049.91 247.437 1050 247.21L1050.97 247.483C1050.87 247.812 1050.7 248.102 1050.45 248.352C1050.21 248.599 1049.91 248.793 1049.56 248.932C1049.2 249.068 1048.81 249.136 1048.36 249.136ZM1052.8 251.455V242.455H1053.77V243.494H1053.89C1053.97 243.381 1054.07 243.236 1054.2 243.06C1054.33 242.881 1054.52 242.722 1054.77 242.582C1055.02 242.44 1055.36 242.369 1055.79 242.369C1056.34 242.369 1056.82 242.507 1057.24 242.783C1057.66 243.058 1057.99 243.449 1058.23 243.955C1058.46 244.46 1058.58 245.057 1058.58 245.744C1058.58 246.438 1058.46 247.038 1058.23 247.547C1057.99 248.053 1057.66 248.445 1057.25 248.723C1056.83 248.999 1056.35 249.136 1055.8 249.136C1055.38 249.136 1055.04 249.067 1054.79 248.928C1054.54 248.786 1054.34 248.625 1054.21 248.446C1054.07 248.264 1053.97 248.114 1053.89 247.994H1053.81V251.455H1052.8ZM1053.79 245.727C1053.79 246.222 1053.86 246.658 1054.01 247.036C1054.15 247.411 1054.36 247.705 1054.64 247.918C1054.92 248.128 1055.26 248.233 1055.67 248.233C1056.09 248.233 1056.44 248.122 1056.72 247.901C1057 247.676 1057.22 247.375 1057.36 246.997C1057.5 246.616 1057.57 246.193 1057.57 245.727C1057.57 245.267 1057.5 244.852 1057.36 244.483C1057.22 244.111 1057.01 243.817 1056.73 243.601C1056.45 243.382 1056.09 243.273 1055.67 243.273C1055.26 243.273 1054.91 243.376 1054.63 243.584C1054.36 243.788 1054.15 244.075 1054 244.445C1053.86 244.811 1053.79 245.239 1053.79 245.727ZM1060.73 251.455C1060.56 251.455 1060.41 251.44 1060.27 251.412C1060.14 251.386 1060.05 251.361 1059.99 251.335L1060.25 250.449C1060.49 250.511 1060.71 250.534 1060.9 250.517C1061.09 250.5 1061.25 250.416 1061.4 250.266C1061.54 250.118 1061.68 249.878 1061.8 249.545L1061.99 249.034L1059.57 242.455H1060.66L1062.47 247.67H1062.53L1064.34 242.455H1065.43L1062.65 249.955C1062.53 250.293 1062.37 250.572 1062.19 250.794C1062 251.018 1061.79 251.185 1061.55 251.293C1061.3 251.401 1061.03 251.455 1060.73 251.455ZM966.407 256.455V263H965.402V256.455H966.407ZM966.015 259.574V260.511C965.788 260.597 965.562 260.672 965.338 260.737C965.113 260.8 964.877 260.849 964.63 260.886C964.383 260.92 964.112 260.938 963.816 260.938C963.075 260.938 962.48 260.737 962.031 260.337C961.585 259.936 961.362 259.335 961.362 258.534V256.438H962.368V258.534C962.368 258.869 962.431 259.145 962.559 259.361C962.687 259.577 962.86 259.737 963.079 259.842C963.298 259.947 963.544 260 963.816 260C964.243 260 964.627 259.962 964.971 259.885C965.318 259.805 965.666 259.702 966.015 259.574ZM967.562 257.392V256.455H972.88V257.392H970.732V263H969.727V257.392H967.562ZM976.866 263.136C976.275 263.136 975.757 262.996 975.311 262.714C974.868 262.433 974.521 262.04 974.271 261.534C974.024 261.028 973.9 260.437 973.9 259.761C973.9 259.08 974.024 258.484 974.271 257.976C974.521 257.467 974.868 257.072 975.311 256.791C975.757 256.51 976.275 256.369 976.866 256.369C977.457 256.369 977.974 256.51 978.417 256.791C978.863 257.072 979.21 257.467 979.457 257.976C979.707 258.484 979.832 259.08 979.832 259.761C979.832 260.437 979.707 261.028 979.457 261.534C979.21 262.04 978.863 262.433 978.417 262.714C977.974 262.996 977.457 263.136 976.866 263.136ZM976.866 262.233C977.315 262.233 977.684 262.118 977.974 261.888C978.264 261.658 978.478 261.355 978.618 260.98C978.757 260.605 978.826 260.199 978.826 259.761C978.826 259.324 978.757 258.916 978.618 258.538C978.478 258.161 978.264 257.855 977.974 257.622C977.684 257.389 977.315 257.273 976.866 257.273C976.417 257.273 976.048 257.389 975.758 257.622C975.469 257.855 975.254 258.161 975.115 258.538C974.976 258.916 974.906 259.324 974.906 259.761C974.906 260.199 974.976 260.605 975.115 260.98C975.254 261.355 975.469 261.658 975.758 261.888C976.048 262.118 976.417 262.233 976.866 262.233ZM986.425 254L986.937 254.614C986.738 254.807 986.508 254.942 986.246 255.018C985.985 255.095 985.689 255.142 985.36 255.159C985.03 255.176 984.664 255.193 984.261 255.21C983.806 255.227 983.43 255.338 983.131 255.543C982.833 255.747 982.603 256.043 982.441 256.429C982.279 256.815 982.175 257.29 982.13 257.852H982.215C982.437 257.443 982.743 257.142 983.136 256.949C983.528 256.756 983.948 256.659 984.397 256.659C984.908 256.659 985.368 256.778 985.778 257.017C986.187 257.256 986.511 257.609 986.749 258.078C986.988 258.547 987.107 259.125 987.107 259.812C987.107 260.497 986.985 261.088 986.741 261.585C986.499 262.082 986.16 262.466 985.722 262.736C985.288 263.003 984.778 263.136 984.192 263.136C983.607 263.136 983.094 262.999 982.654 262.723C982.214 262.445 981.871 262.033 981.627 261.487C981.383 260.939 981.261 260.261 981.261 259.455V258.756C981.261 257.298 981.508 256.193 982.002 255.44C982.499 254.687 983.246 254.298 984.243 254.273C984.596 254.261 984.91 254.259 985.185 254.264C985.461 254.27 985.701 254.257 985.905 254.226C986.11 254.195 986.283 254.119 986.425 254ZM984.192 262.233C984.587 262.233 984.927 262.134 985.211 261.935C985.498 261.736 985.718 261.456 985.871 261.095C986.025 260.732 986.101 260.304 986.101 259.812C986.101 259.335 986.023 258.929 985.867 258.594C985.714 258.259 985.493 258.003 985.207 257.827C984.92 257.651 984.576 257.562 984.175 257.562C983.883 257.562 983.62 257.612 983.387 257.712C983.154 257.811 982.955 257.957 982.79 258.151C982.626 258.344 982.498 258.58 982.407 258.858C982.319 259.136 982.272 259.455 982.266 259.812C982.266 260.545 982.438 261.132 982.782 261.572C983.126 262.013 983.596 262.233 984.192 262.233ZM989.715 258.824H991.59C992.357 258.824 992.943 259.018 993.35 259.408C993.756 259.797 993.959 260.29 993.959 260.886C993.959 261.278 993.868 261.635 993.686 261.956C993.505 262.274 993.237 262.528 992.885 262.719C992.533 262.906 992.101 263 991.59 263H988.845V256.455H989.851V262.062H991.59C991.987 262.062 992.314 261.957 992.57 261.747C992.826 261.537 992.953 261.267 992.953 260.938C992.953 260.591 992.826 260.308 992.57 260.089C992.314 259.871 991.987 259.761 991.59 259.761H989.715V258.824ZM994.999 263V256.455H996.005V263H994.999ZM1002.27 265.455C1002.1 265.455 1001.95 265.44 1001.81 265.412C1001.68 265.386 1001.59 265.361 1001.54 265.335L1001.79 264.449C1002.04 264.511 1002.25 264.534 1002.44 264.517C1002.63 264.5 1002.79 264.416 1002.94 264.266C1003.08 264.118 1003.22 263.878 1003.34 263.545L1003.53 263.034L1001.11 256.455H1002.2L1004.01 261.67H1004.08L1005.88 256.455H1006.97L1004.19 263.955C1004.07 264.293 1003.91 264.572 1003.73 264.794C1003.55 265.018 1003.33 265.185 1003.09 265.293C1002.84 265.401 1002.57 265.455 1002.27 265.455ZM1010.92 263.136C1010.31 263.136 1009.78 262.991 1009.34 262.702C1008.9 262.412 1008.56 262.013 1008.32 261.504C1008.08 260.996 1007.96 260.415 1007.96 259.761C1007.96 259.097 1008.08 258.51 1008.33 258.001C1008.57 257.49 1008.92 257.091 1009.36 256.804C1009.8 256.514 1010.32 256.369 1010.91 256.369C1011.37 256.369 1011.78 256.455 1012.15 256.625C1012.52 256.795 1012.82 257.034 1013.06 257.341C1013.3 257.648 1013.44 258.006 1013.5 258.415H1012.49C1012.42 258.116 1012.25 257.852 1011.98 257.622C1011.72 257.389 1011.37 257.273 1010.92 257.273C1010.53 257.273 1010.19 257.375 1009.89 257.58C1009.6 257.781 1009.37 258.067 1009.21 258.436C1009.05 258.803 1008.96 259.233 1008.96 259.727C1008.96 260.233 1009.04 260.673 1009.2 261.048C1009.37 261.423 1009.59 261.714 1009.89 261.922C1010.18 262.129 1010.53 262.233 1010.92 262.233C1011.19 262.233 1011.42 262.188 1011.64 262.097C1011.85 262.006 1012.03 261.875 1012.18 261.705C1012.33 261.534 1012.43 261.33 1012.49 261.091H1013.5C1013.44 261.477 1013.3 261.825 1013.08 262.135C1012.86 262.442 1012.56 262.686 1012.19 262.868C1011.83 263.047 1011.41 263.136 1010.92 263.136ZM1014.65 257.392V256.455H1019.97V257.392H1017.82V263H1016.82V257.392H1014.65ZM1023.22 263.153C1022.81 263.153 1022.43 263.075 1022.1 262.919C1021.76 262.76 1021.49 262.531 1021.29 262.233C1021.09 261.932 1020.99 261.568 1020.99 261.142C1020.99 260.767 1021.07 260.463 1021.21 260.23C1021.36 259.994 1021.56 259.81 1021.81 259.676C1022.05 259.543 1022.33 259.443 1022.62 259.378C1022.92 259.31 1023.23 259.256 1023.53 259.216C1023.93 259.165 1024.25 259.126 1024.5 259.101C1024.75 259.072 1024.93 259.026 1025.04 258.96C1025.16 258.895 1025.22 258.781 1025.22 258.619V258.585C1025.22 258.165 1025.1 257.838 1024.87 257.605C1024.65 257.372 1024.3 257.256 1023.84 257.256C1023.36 257.256 1022.98 257.361 1022.71 257.571C1022.44 257.781 1022.24 258.006 1022.13 258.244L1021.18 257.903C1021.35 257.506 1021.58 257.196 1021.86 256.974C1022.15 256.75 1022.46 256.594 1022.8 256.506C1023.14 256.415 1023.47 256.369 1023.8 256.369C1024.01 256.369 1024.26 256.395 1024.53 256.446C1024.8 256.494 1025.07 256.595 1025.33 256.749C1025.58 256.902 1025.8 257.134 1025.97 257.443C1026.14 257.753 1026.22 258.168 1026.22 258.688V263H1025.22V262.114H1025.17C1025.1 262.256 1024.99 262.408 1024.83 262.57C1024.67 262.732 1024.46 262.869 1024.19 262.983C1023.93 263.097 1023.61 263.153 1023.22 263.153ZM1023.38 262.25C1023.78 262.25 1024.11 262.172 1024.38 262.016C1024.66 261.859 1024.87 261.658 1025.01 261.411C1025.15 261.163 1025.22 260.903 1025.22 260.631V259.71C1025.18 259.761 1025.08 259.808 1024.94 259.851C1024.8 259.891 1024.63 259.926 1024.44 259.957C1024.26 259.986 1024.08 260.011 1023.9 260.034C1023.73 260.054 1023.59 260.071 1023.48 260.085C1023.22 260.119 1022.97 260.175 1022.75 260.251C1022.52 260.325 1022.34 260.437 1022.2 260.588C1022.07 260.736 1022 260.937 1022 261.193C1022 261.543 1022.13 261.807 1022.39 261.986C1022.65 262.162 1022.98 262.25 1023.38 262.25ZM1032.64 259.267V260.205H1029.03V259.267H1032.64ZM1029.27 256.455V263H1028.26V256.455H1029.27ZM1033.41 256.455V263H1032.4V256.455H1033.41ZM1038.1 263.136C1037.51 263.136 1036.99 262.996 1036.55 262.714C1036.11 262.433 1035.76 262.04 1035.51 261.534C1035.26 261.028 1035.14 260.437 1035.14 259.761C1035.14 259.08 1035.26 258.484 1035.51 257.976C1035.76 257.467 1036.11 257.072 1036.55 256.791C1036.99 256.51 1037.51 256.369 1038.1 256.369C1038.69 256.369 1039.21 256.51 1039.65 256.791C1040.1 257.072 1040.45 257.467 1040.69 257.976C1040.94 258.484 1041.07 259.08 1041.07 259.761C1041.07 260.437 1040.94 261.028 1040.69 261.534C1040.45 262.04 1040.1 262.433 1039.65 262.714C1039.21 262.996 1038.69 263.136 1038.1 263.136ZM1038.1 262.233C1038.55 262.233 1038.92 262.118 1039.21 261.888C1039.5 261.658 1039.72 261.355 1039.86 260.98C1039.99 260.605 1040.06 260.199 1040.06 259.761C1040.06 259.324 1039.99 258.916 1039.86 258.538C1039.72 258.161 1039.5 257.855 1039.21 257.622C1038.92 257.389 1038.55 257.273 1038.1 257.273C1037.65 257.273 1037.29 257.389 1037 257.622C1036.71 257.855 1036.49 258.161 1036.35 258.538C1036.21 258.916 1036.14 259.324 1036.14 259.761C1036.14 260.199 1036.21 260.605 1036.35 260.98C1036.49 261.355 1036.71 261.658 1037 261.888C1037.29 262.118 1037.65 262.233 1038.1 262.233ZM1043.81 261.517L1046.96 256.455H1048.12V263H1047.12V257.938L1043.98 263H1042.8V256.455H1043.81V261.517ZM1049.27 257.392V256.455H1054.59V257.392H1052.44V263H1051.44V257.392H1049.27ZM1057.13 258.824H1059C1059.77 258.824 1060.36 259.018 1060.76 259.408C1061.17 259.797 1061.37 260.29 1061.37 260.886C1061.37 261.278 1061.28 261.635 1061.1 261.956C1060.92 262.274 1060.65 262.528 1060.3 262.719C1059.95 262.906 1059.52 263 1059 263H1056.26V256.455H1057.27V262.062H1059C1059.4 262.062 1059.73 261.957 1059.98 261.747C1060.24 261.537 1060.37 261.267 1060.37 260.938C1060.37 260.591 1060.24 260.308 1059.98 260.089C1059.73 259.871 1059.4 259.761 1059 259.761H1057.13V258.824ZM976.423 277V270.455H981.571V277H980.565V271.392H977.428V277H976.423ZM983.607 279.455V270.455H984.579V271.494H984.698C984.772 271.381 984.874 271.236 985.005 271.06C985.138 270.881 985.329 270.722 985.576 270.582C985.826 270.44 986.164 270.369 986.59 270.369C987.141 270.369 987.627 270.507 988.048 270.783C988.468 271.058 988.796 271.449 989.032 271.955C989.268 272.46 989.386 273.057 989.386 273.744C989.386 274.438 989.268 275.038 989.032 275.547C988.796 276.053 988.469 276.445 988.052 276.723C987.634 276.999 987.153 277.136 986.607 277.136C986.187 277.136 985.85 277.067 985.597 276.928C985.344 276.786 985.15 276.625 985.013 276.446C984.877 276.264 984.772 276.114 984.698 275.994H984.613V279.455H983.607ZM984.596 273.727C984.596 274.222 984.668 274.658 984.813 275.036C984.958 275.411 985.17 275.705 985.448 275.918C985.726 276.128 986.067 276.233 986.471 276.233C986.891 276.233 987.242 276.122 987.523 275.901C987.807 275.676 988.021 275.375 988.163 274.997C988.307 274.616 988.38 274.193 988.38 273.727C988.38 273.267 988.309 272.852 988.167 272.483C988.028 272.111 987.816 271.817 987.532 271.601C987.251 271.382 986.897 271.273 986.471 271.273C986.062 271.273 985.718 271.376 985.44 271.584C985.161 271.788 984.951 272.075 984.809 272.445C984.667 272.811 984.596 273.239 984.596 273.727ZM992.125 275.517L995.279 270.455H996.438V277H995.432V271.938L992.296 277H991.12V270.455H992.125V275.517ZM997.9 277V276.062H998.139C998.335 276.062 998.498 276.024 998.629 275.947C998.76 275.868 998.865 275.73 998.944 275.534C999.027 275.335 999.089 275.06 999.132 274.707C999.177 274.352 999.21 273.901 999.23 273.352L999.349 270.455H1003.71V277H1002.71V271.392H1000.3L1000.2 273.727C1000.18 274.264 1000.13 274.737 1000.06 275.146C999.986 275.553 999.876 275.893 999.728 276.169C999.584 276.445 999.39 276.652 999.149 276.791C998.907 276.93 998.605 277 998.241 277H997.9ZM1008.42 277.136C1007.83 277.136 1007.31 276.996 1006.86 276.714C1006.42 276.433 1006.07 276.04 1005.82 275.534C1005.57 275.028 1005.45 274.437 1005.45 273.761C1005.45 273.08 1005.57 272.484 1005.82 271.976C1006.07 271.467 1006.42 271.072 1006.86 270.791C1007.31 270.51 1007.83 270.369 1008.42 270.369C1009.01 270.369 1009.52 270.51 1009.97 270.791C1010.41 271.072 1010.76 271.467 1011.01 271.976C1011.26 272.484 1011.38 273.08 1011.38 273.761C1011.38 274.437 1011.26 275.028 1011.01 275.534C1010.76 276.04 1010.41 276.433 1009.97 276.714C1009.52 276.996 1009.01 277.136 1008.42 277.136ZM1008.42 276.233C1008.87 276.233 1009.24 276.118 1009.52 275.888C1009.81 275.658 1010.03 275.355 1010.17 274.98C1010.31 274.605 1010.38 274.199 1010.38 273.761C1010.38 273.324 1010.31 272.916 1010.17 272.538C1010.03 272.161 1009.81 271.855 1009.52 271.622C1009.24 271.389 1008.87 271.273 1008.42 271.273C1007.97 271.273 1007.6 271.389 1007.31 271.622C1007.02 271.855 1006.8 272.161 1006.67 272.538C1006.53 272.916 1006.46 273.324 1006.46 273.761C1006.46 274.199 1006.53 274.605 1006.67 274.98C1006.8 275.355 1007.02 275.658 1007.31 275.888C1007.6 276.118 1007.97 276.233 1008.42 276.233ZM1012.44 277L1015.1 273.676L1012.47 270.455H1013.67L1015.85 273.25H1016.39V270.455H1017.4V273.25H1017.93L1020.11 270.455H1021.3L1018.7 273.676L1021.34 277H1020.13L1017.91 274.188H1017.4V277H1016.39V274.188H1015.88L1013.65 277H1012.44ZM1025.45 277.136C1024.82 277.136 1024.27 276.997 1023.82 276.719C1023.36 276.438 1023.01 276.045 1022.76 275.543C1022.52 275.037 1022.4 274.449 1022.4 273.778C1022.4 273.108 1022.52 272.517 1022.76 272.006C1023.01 271.491 1023.36 271.091 1023.8 270.804C1024.24 270.514 1024.76 270.369 1025.35 270.369C1025.69 270.369 1026.02 270.426 1026.36 270.54C1026.69 270.653 1026.99 270.838 1027.26 271.094C1027.54 271.347 1027.75 271.682 1027.92 272.099C1028.08 272.517 1028.16 273.031 1028.16 273.642V274.068H1023.11V273.199H1027.14C1027.14 272.83 1027.06 272.5 1026.92 272.21C1026.77 271.92 1026.56 271.692 1026.29 271.524C1026.03 271.357 1025.71 271.273 1025.35 271.273C1024.95 271.273 1024.6 271.372 1024.31 271.571C1024.02 271.767 1023.79 272.023 1023.64 272.338C1023.48 272.653 1023.4 272.991 1023.4 273.352V273.932C1023.4 274.426 1023.49 274.845 1023.66 275.189C1023.83 275.53 1024.07 275.79 1024.38 275.969C1024.69 276.145 1025.04 276.233 1025.45 276.233C1025.71 276.233 1025.95 276.196 1026.17 276.122C1026.38 276.045 1026.57 275.932 1026.72 275.781C1026.88 275.628 1027 275.437 1027.09 275.21L1028.06 275.483C1027.95 275.812 1027.78 276.102 1027.54 276.352C1027.3 276.599 1027 276.793 1026.65 276.932C1026.29 277.068 1025.89 277.136 1025.45 277.136ZM1034.27 273.267V274.205H1030.66V273.267H1034.27ZM1030.89 270.455V277H1029.89V270.455H1030.89ZM1035.04 270.455V277H1034.03V270.455H1035.04ZM1038.08 275.517L1041.23 270.455H1042.39V277H1041.39V271.938L1038.25 277H1037.07V270.455H1038.08V275.517ZM1047.18 277.136C1046.55 277.136 1046 276.997 1045.55 276.719C1045.09 276.438 1044.74 276.045 1044.49 275.543C1044.25 275.037 1044.13 274.449 1044.13 273.778C1044.13 273.108 1044.25 272.517 1044.49 272.006C1044.74 271.491 1045.08 271.091 1045.52 270.804C1045.97 270.514 1046.48 270.369 1047.08 270.369C1047.42 270.369 1047.75 270.426 1048.09 270.54C1048.42 270.653 1048.72 270.838 1048.99 271.094C1049.27 271.347 1049.48 271.682 1049.65 272.099C1049.81 272.517 1049.89 273.031 1049.89 273.642V274.068H1044.84V273.199H1048.87C1048.87 272.83 1048.79 272.5 1048.64 272.21C1048.5 271.92 1048.29 271.692 1048.02 271.524C1047.75 271.357 1047.44 271.273 1047.08 271.273C1046.68 271.273 1046.33 271.372 1046.04 271.571C1045.75 271.767 1045.52 272.023 1045.37 272.338C1045.21 272.653 1045.13 272.991 1045.13 273.352V273.932C1045.13 274.426 1045.22 274.845 1045.39 275.189C1045.56 275.53 1045.8 275.79 1046.11 275.969C1046.42 276.145 1046.77 276.233 1047.18 276.233C1047.44 276.233 1047.68 276.196 1047.89 276.122C1048.11 276.045 1048.3 275.932 1048.45 275.781C1048.61 275.628 1048.73 275.437 1048.81 275.21L1049.79 275.483C1049.68 275.812 1049.51 276.102 1049.27 276.352C1049.03 276.599 1048.73 276.793 1048.38 276.932C1048.02 277.068 1047.62 277.136 1047.18 277.136Z" fill="white"/>
</g>
<defs>
<filter id="filter0_f_608_83" x="766" y="102" width="353" height="353" filterUnits="userSpaceOnUse" color-interpolation-filters="sRGB">
<feFlood flood-opacity="0" result="BackgroundImageFix"/>
<feBlend mode="normal" in="SourceGraphic" in2="BackgroundImageFix" result="shape"/>
<feGaussianBlur stdDeviation="30" result="effect1_foregroundBlur_608_83"/>
</filter>
<filter id="filter1_f_608_83" x="916" y="-28" width="353" height="353" filterUnits="userSpaceOnUse" color-interpolation-filters="sRGB">
<feFlood flood-opacity="0" result="BackgroundImageFix"/>
<feBlend mode="normal" in="SourceGraphic" in2="BackgroundImageFix" result="shape"/>
<feGaussianBlur stdDeviation="30" result="effect1_foregroundBlur_608_83"/>
</filter>
<linearGradient id="paint0_linear_608_83" x1="1280" y1="180" x2="0" y2="180" gradientUnits="userSpaceOnUse">
<stop stop-color="#9747FF"/>
<stop offset="1" stop-color="#FCC5FF"/>
</linearGradient>
<clipPath id="clip0_608_83">
<rect width="1280" height="360" rx="16" fill="white"/>
</clipPath>
</defs>
</svg>
