<svg width="164" height="72" viewBox="0 0 164 72" fill="none" xmlns="http://www.w3.org/2000/svg">
<rect width="164" height="72" rx="16" fill="white" fill-opacity="0.2"/>
<path d="M44.4975 42.2406C43.8075 43.7731 43.475 44.4581 42.5875 45.8106C41.345 47.7006 39.5925 50.0606 37.4275 50.0756C35.5 50.0931 35.0025 48.8181 32.385 48.8406C29.77 48.8531 29.225 50.1006 27.295 50.0806C25.1275 50.0606 23.47 47.9356 22.2275 46.0481C18.7525 40.7556 18.385 34.5506 20.5325 31.2506C22.0525 28.9106 24.455 27.5356 26.7125 27.5356C29.0125 27.5356 30.4575 28.7981 32.3575 28.7981C34.2025 28.7981 35.325 27.5331 37.985 27.5331C39.995 27.5331 42.12 28.6281 43.64 30.5181C38.67 33.2431 39.4775 40.3406 44.4975 42.2406ZM35.965 25.4206C36.9325 24.1781 37.6675 22.4256 37.4 20.6406C35.8225 20.7481 33.9775 21.7556 32.9 23.0606C31.9225 24.2506 31.1125 26.0156 31.4275 27.7231C33.15 27.7781 34.9325 26.7506 35.965 25.4206Z" fill="#181D27"/>
<path d="M60.4943 30.1392C59.8381 30.1392 59.2531 30.0265 58.7393 29.8011C58.2289 29.5758 57.8229 29.2625 57.5213 28.8615C57.223 28.4571 57.0606 27.9882 57.0341 27.4545H58.2869C58.3134 27.7827 58.4261 28.0661 58.625 28.3047C58.8239 28.54 59.084 28.7223 59.4055 28.8516C59.727 28.9808 60.0833 29.0455 60.4744 29.0455C60.9119 29.0455 61.2997 28.9692 61.6378 28.8168C61.9759 28.6643 62.241 28.4522 62.4332 28.1804C62.6255 27.9086 62.7216 27.5938 62.7216 27.2358C62.7216 26.8613 62.6288 26.5315 62.4432 26.2464C62.2576 25.9581 61.9858 25.7327 61.6278 25.5703C61.2699 25.4079 60.8324 25.3267 60.3153 25.3267H59.5V24.233H60.3153C60.7197 24.233 61.0743 24.16 61.3793 24.0142C61.6875 23.8684 61.9278 23.6629 62.1001 23.3977C62.2758 23.1326 62.3636 22.821 62.3636 22.4631C62.3636 22.1184 62.2874 21.8184 62.1349 21.5632C61.9825 21.308 61.767 21.1091 61.4886 20.9666C61.2135 20.8241 60.8887 20.7528 60.5142 20.7528C60.1629 20.7528 59.8314 20.8175 59.5199 20.9467C59.2116 21.0727 58.9598 21.2566 58.7642 21.4986C58.5687 21.7372 58.4626 22.0256 58.446 22.3636H57.2528C57.2727 21.83 57.4335 21.3627 57.7351 20.9616C58.0367 20.5573 58.4311 20.2424 58.9183 20.017C59.4089 19.7917 59.9474 19.679 60.5341 19.679C61.1638 19.679 61.7041 19.8066 62.1548 20.0618C62.6056 20.3137 62.9519 20.6468 63.1939 21.0611C63.4358 21.4754 63.5568 21.9228 63.5568 22.4034C63.5568 22.9768 63.406 23.4657 63.1044 23.87C62.8061 24.2744 62.4001 24.5545 61.8864 24.7102V24.7898C62.5294 24.8958 63.0315 25.1693 63.3928 25.6101C63.754 26.0476 63.9347 26.5895 63.9347 27.2358C63.9347 27.7893 63.7839 28.2865 63.4822 28.7273C63.1839 29.1648 62.7763 29.5095 62.2592 29.7614C61.7422 30.0133 61.1539 30.1392 60.4943 30.1392ZM68.4351 30.179C67.9512 30.179 67.512 30.0878 67.1176 29.9055C66.7232 29.7199 66.41 29.4531 66.178 29.1051C65.946 28.7538 65.83 28.3295 65.83 27.8324C65.83 27.3949 65.9161 27.0402 66.0885 26.7685C66.2608 26.4934 66.4912 26.2779 66.7795 26.1222C67.0679 25.9664 67.3861 25.8504 67.7341 25.7741C68.0854 25.6946 68.4384 25.6316 68.793 25.5852C69.2571 25.5256 69.6332 25.4808 69.9216 25.451C70.2133 25.4179 70.4254 25.3632 70.558 25.2869C70.6938 25.2107 70.7618 25.0781 70.7618 24.8892V24.8494C70.7618 24.3589 70.6276 23.9777 70.3591 23.706C70.0939 23.4342 69.6912 23.2983 69.151 23.2983C68.5909 23.2983 68.1517 23.4209 67.8335 23.6662C67.5153 23.9115 67.2916 24.1733 67.1624 24.4517L66.0487 24.054C66.2476 23.59 66.5127 23.2287 66.8442 22.9702C67.1789 22.7083 67.5435 22.526 67.9379 22.4233C68.3357 22.3172 68.7268 22.2642 69.1112 22.2642C69.3565 22.2642 69.6382 22.294 69.9564 22.3537C70.2779 22.41 70.5878 22.5277 70.8861 22.7067C71.1877 22.8857 71.4379 23.1558 71.6368 23.517C71.8357 23.8783 71.9351 24.3622 71.9351 24.9688V30H70.7618V28.9659H70.7021C70.6226 29.1316 70.49 29.3089 70.3044 29.4979C70.1188 29.6868 69.8719 29.8475 69.5636 29.9801C69.2554 30.1127 68.8792 30.179 68.4351 30.179ZM68.6141 29.125C69.0781 29.125 69.4692 29.0339 69.7874 28.8516C70.1089 28.6693 70.3508 28.4339 70.5132 28.1456C70.6789 27.8572 70.7618 27.554 70.7618 27.2358V26.1619C70.7121 26.2216 70.6027 26.2763 70.4337 26.326C70.2679 26.3724 70.0757 26.4138 69.857 26.4503C69.6415 26.4834 69.4311 26.5133 69.2256 26.5398C69.0234 26.563 68.8593 26.5829 68.7334 26.5994C68.4285 26.6392 68.1434 26.7038 67.8783 26.7933C67.6164 26.8795 67.4043 27.0104 67.2419 27.1861C67.0828 27.3584 67.0033 27.5937 67.0033 27.892C67.0033 28.2997 67.1541 28.608 67.4557 28.8168C67.7606 29.0223 68.1467 29.125 68.6141 29.125ZM78.9897 22.3636V23.4574H75.4499V30H74.2766V22.3636H78.9897ZM80.9024 32.8636V22.3636H82.0359V23.5767H82.1751C82.2613 23.4441 82.3806 23.2751 82.5331 23.0696C82.6888 22.8608 82.9109 22.6752 83.1993 22.5128C83.4909 22.3471 83.8853 22.2642 84.3825 22.2642C85.0255 22.2642 85.5922 22.425 86.0828 22.7464C86.5733 23.0679 86.9561 23.5237 87.2312 24.1136C87.5063 24.7036 87.6439 25.3996 87.6439 26.2017C87.6439 27.0104 87.5063 27.7114 87.2312 28.3047C86.9561 28.8946 86.575 29.352 86.0877 29.6768C85.6005 29.9983 85.0387 30.1591 84.4024 30.1591C83.9118 30.1591 83.5191 30.0779 83.2241 29.9155C82.9291 29.7498 82.7021 29.5625 82.543 29.3537C82.3839 29.1416 82.2613 28.9659 82.1751 28.8267H82.0757V32.8636H80.9024ZM82.0558 26.1818C82.0558 26.7585 82.1403 27.2673 82.3093 27.7081C82.4784 28.1456 82.7253 28.4886 83.0501 28.7372C83.3749 28.9825 83.7726 29.1051 84.2433 29.1051C84.7338 29.1051 85.1431 28.9759 85.4713 28.7173C85.8027 28.4555 86.0513 28.1042 86.217 27.6634C86.386 27.2192 86.4706 26.7254 86.4706 26.1818C86.4706 25.6449 86.3877 25.161 86.222 24.7301C86.0596 24.2959 85.8127 23.9529 85.4812 23.701C85.1531 23.4458 84.7404 23.3182 84.2433 23.3182C83.766 23.3182 83.365 23.4392 83.0402 23.6811C82.7154 23.9197 82.4701 24.2545 82.3044 24.6854C82.1386 25.1129 82.0558 25.6117 82.0558 26.1818ZM90.1159 32.8636C89.917 32.8636 89.7397 32.8471 89.5839 32.8139C89.4281 32.7841 89.3204 32.7543 89.2608 32.7244L89.5591 31.6903C89.8441 31.7633 90.096 31.7898 90.3147 31.7699C90.5335 31.75 90.7274 31.6522 90.8964 31.4766C91.0688 31.3042 91.2262 31.0241 91.3687 30.6364L91.5875 30.0398L88.7636 22.3636H90.0363L92.1443 28.4489H92.2238L94.3318 22.3636H95.6045L92.363 31.1136C92.2172 31.508 92.0366 31.8345 91.8211 32.093C91.6057 32.3549 91.3555 32.5488 91.0704 32.6747C90.7887 32.8007 90.4705 32.8636 90.1159 32.8636ZM96.8759 28.0511H98.1287C98.1552 28.3958 98.311 28.6577 98.5961 28.8366C98.8844 29.0156 99.2589 29.1051 99.7196 29.1051C100.19 29.1051 100.593 29.009 100.928 28.8168C101.262 28.6212 101.43 28.3063 101.43 27.8722C101.43 27.617 101.367 27.3949 101.241 27.206C101.115 27.0137 100.938 26.8646 100.709 26.7585C100.48 26.6525 100.21 26.5994 99.8986 26.5994H98.5861V25.5455H99.8986C100.366 25.5455 100.711 25.4394 100.933 25.2273C101.158 25.0152 101.271 24.75 101.271 24.4318C101.271 24.0904 101.15 23.817 100.908 23.6115C100.666 23.4027 100.323 23.2983 99.8787 23.2983C99.4313 23.2983 99.0584 23.3994 98.7601 23.6016C98.4618 23.8004 98.3044 24.0573 98.2878 24.3722H97.0549C97.0681 23.9612 97.1941 23.5982 97.4327 23.2834C97.6713 22.9652 97.9962 22.7166 98.4071 22.5376C98.8181 22.3554 99.2888 22.2642 99.8191 22.2642C100.356 22.2642 100.822 22.3587 101.216 22.5476C101.614 22.7332 101.92 22.9867 102.136 23.3082C102.355 23.6264 102.464 23.9877 102.464 24.392C102.464 24.8229 102.343 25.1709 102.101 25.4361C101.859 25.7012 101.556 25.8902 101.191 26.0028V26.0824C101.48 26.1023 101.73 26.1951 101.942 26.3608C102.157 26.5232 102.325 26.737 102.444 27.0021C102.563 27.264 102.623 27.554 102.623 27.8722C102.623 28.3362 102.499 28.7405 102.25 29.0852C102.002 29.4266 101.66 29.6918 101.226 29.8807C100.792 30.0663 100.296 30.1591 99.7395 30.1591C99.1993 30.1591 98.7154 30.0713 98.2878 29.8956C97.8603 29.7166 97.5205 29.4697 97.2686 29.1548C97.0201 28.8366 96.8891 28.4688 96.8759 28.0511ZM105.644 28.2699L109.323 22.3636H110.676V30H109.502V24.0938L105.843 30H104.471V22.3636H105.644V28.2699ZM111.986 23.4574V22.3636H118.19V23.4574H115.684V30H114.511V23.4574H111.986ZM122.907 30.1591C122.171 30.1591 121.536 29.9967 121.003 29.6719C120.472 29.3438 120.063 28.8864 119.775 28.2997C119.49 27.7098 119.347 27.0237 119.347 26.2415C119.347 25.4593 119.49 24.7699 119.775 24.1733C120.063 23.5734 120.464 23.1061 120.978 22.7713C121.495 22.4332 122.098 22.2642 122.787 22.2642C123.185 22.2642 123.578 22.3305 123.966 22.4631C124.354 22.5956 124.707 22.8111 125.025 23.1094C125.343 23.4044 125.596 23.7955 125.785 24.2827C125.974 24.7699 126.069 25.3698 126.069 26.0824V26.5795H120.182V25.5653H124.876C124.876 25.1345 124.789 24.75 124.617 24.4119C124.448 24.0739 124.206 23.8071 123.891 23.6115C123.58 23.416 123.212 23.3182 122.787 23.3182C122.32 23.3182 121.916 23.4342 121.574 23.6662C121.236 23.8949 120.976 24.1932 120.794 24.5611C120.612 24.929 120.52 25.3234 120.52 25.7443V26.4205C120.52 26.9972 120.62 27.486 120.819 27.8871C121.021 28.2848 121.301 28.5881 121.659 28.7969C122.017 29.0024 122.433 29.1051 122.907 29.1051C123.215 29.1051 123.493 29.062 123.742 28.9759C123.994 28.8864 124.211 28.7538 124.393 28.5781C124.576 28.3991 124.716 28.1771 124.816 27.9119L125.949 28.2301C125.83 28.6146 125.63 28.9527 125.348 29.2443C125.066 29.5327 124.718 29.758 124.304 29.9205C123.89 30.0795 123.424 30.1591 122.907 30.1591ZM132.191 30V22.3636H135.313C136.135 22.3636 136.788 22.5492 137.272 22.9205C137.756 23.2917 137.998 23.7822 137.998 24.392C137.998 24.8561 137.86 25.2157 137.585 25.4709C137.31 25.7228 136.957 25.8935 136.526 25.983C136.808 26.0227 137.081 26.1222 137.347 26.2812C137.615 26.4403 137.837 26.6591 138.013 26.9375C138.188 27.2126 138.276 27.5507 138.276 27.9517C138.276 28.3428 138.177 28.6925 137.978 29.0007C137.779 29.3089 137.494 29.5526 137.123 29.7315C136.752 29.9105 136.308 30 135.79 30H132.191ZM133.305 28.9261H135.79C136.195 28.9261 136.511 28.83 136.74 28.6378C136.969 28.4455 137.083 28.1837 137.083 27.8523C137.083 27.4579 136.969 27.148 136.74 26.9226C136.511 26.6939 136.195 26.5795 135.79 26.5795H133.305V28.9261ZM133.305 25.5653H135.313C135.628 25.5653 135.898 25.5223 136.124 25.4361C136.349 25.3466 136.521 25.2206 136.641 25.0582C136.763 24.8925 136.825 24.697 136.825 24.4716C136.825 24.1501 136.69 23.8982 136.422 23.7159C136.153 23.5303 135.784 23.4375 135.313 23.4375H133.305V25.5653Z" fill="#181D27"/>
<path d="M58.2614 51H56.3977L60.5852 39.3636H62.6136L66.8011 51H64.9375L61.6477 41.4773H61.5568L58.2614 51ZM58.5739 46.4432H64.6193V47.9205H58.5739V46.4432ZM68.4452 54.2727V42.2727H70.1043V43.6875H70.2463C70.3448 43.5057 70.4868 43.2955 70.6724 43.0568C70.858 42.8182 71.1156 42.6098 71.4452 42.4318C71.7747 42.25 72.2103 42.1591 72.752 42.1591C73.4565 42.1591 74.0853 42.3371 74.6384 42.6932C75.1914 43.0492 75.6251 43.5625 75.9395 44.233C76.2577 44.9034 76.4168 45.7102 76.4168 46.6534C76.4168 47.5966 76.2596 48.4053 75.9452 49.0795C75.6308 49.75 75.199 50.267 74.6497 50.6307C74.1005 50.9905 73.4736 51.1705 72.769 51.1705C72.2387 51.1705 71.805 51.0814 71.4679 50.9034C71.1346 50.7254 70.8732 50.517 70.6838 50.2784C70.4944 50.0398 70.3486 49.8277 70.2463 49.642H70.144V54.2727H68.4452ZM70.1099 46.6364C70.1099 47.25 70.199 47.7879 70.377 48.25C70.555 48.7121 70.8126 49.0739 71.1497 49.3352C71.4868 49.5928 71.8997 49.7216 72.3884 49.7216C72.8959 49.7216 73.3202 49.5871 73.6611 49.3182C74.002 49.0455 74.2596 48.6761 74.4338 48.2102C74.6118 47.7443 74.7009 47.2197 74.7009 46.6364C74.7009 46.0606 74.6137 45.5436 74.4395 45.0852C74.269 44.6269 74.0115 44.2652 73.6668 44C73.3259 43.7348 72.8997 43.6023 72.3884 43.6023C71.8959 43.6023 71.4793 43.7292 71.1384 43.983C70.8012 44.2367 70.5455 44.5909 70.3713 45.0455C70.1971 45.5 70.1099 46.0303 70.1099 46.6364ZM78.4202 54.2727V42.2727H80.0793V43.6875H80.2213C80.3198 43.5057 80.4618 43.2955 80.6474 43.0568C80.8331 42.8182 81.0906 42.6098 81.4202 42.4318C81.7497 42.25 82.1853 42.1591 82.727 42.1591C83.4315 42.1591 84.0603 42.3371 84.6134 42.6932C85.1664 43.0492 85.6001 43.5625 85.9145 44.233C86.2327 44.9034 86.3918 45.7102 86.3918 46.6534C86.3918 47.5966 86.2346 48.4053 85.9202 49.0795C85.6058 49.75 85.174 50.267 84.6247 50.6307C84.0755 50.9905 83.4486 51.1705 82.744 51.1705C82.2137 51.1705 81.78 51.0814 81.4429 50.9034C81.1096 50.7254 80.8482 50.517 80.6588 50.2784C80.4694 50.0398 80.3236 49.8277 80.2213 49.642H80.119V54.2727H78.4202ZM80.0849 46.6364C80.0849 47.25 80.174 47.7879 80.352 48.25C80.53 48.7121 80.7876 49.0739 81.1247 49.3352C81.4618 49.5928 81.8747 49.7216 82.3634 49.7216C82.8709 49.7216 83.2952 49.5871 83.6361 49.3182C83.977 49.0455 84.2346 48.6761 84.4088 48.2102C84.5868 47.7443 84.6759 47.2197 84.6759 46.6364C84.6759 46.0606 84.5887 45.5436 84.4145 45.0852C84.244 44.6269 83.9865 44.2652 83.6418 44C83.3009 43.7348 82.8747 43.6023 82.3634 43.6023C81.8709 43.6023 81.4543 43.7292 81.1134 43.983C80.7762 44.2367 80.5206 44.5909 80.3463 45.0455C80.1721 45.5 80.0849 46.0303 80.0849 46.6364ZM99.2125 42.4205C99.1519 41.8826 98.9019 41.4659 98.4625 41.1705C98.0231 40.8712 97.4701 40.7216 96.8034 40.7216C96.3261 40.7216 95.9133 40.7973 95.5648 40.9489C95.2163 41.0966 94.9455 41.3011 94.7523 41.5625C94.5629 41.8201 94.4682 42.1136 94.4682 42.4432C94.4682 42.7197 94.5326 42.9583 94.6614 43.1591C94.7939 43.3598 94.9663 43.5284 95.1784 43.6648C95.3943 43.7973 95.6254 43.9091 95.8716 44C96.1178 44.0871 96.3545 44.1591 96.5818 44.2159L97.7182 44.5114C98.0894 44.6023 98.4701 44.7254 98.8602 44.8807C99.2504 45.036 99.6121 45.2405 99.9455 45.4943C100.279 45.7481 100.548 46.0625 100.752 46.4375C100.961 46.8125 101.065 47.2614 101.065 47.7841C101.065 48.4432 100.894 49.0284 100.553 49.5398C100.216 50.0511 99.7258 50.4545 99.0818 50.75C98.4417 51.0455 97.667 51.1932 96.758 51.1932C95.8867 51.1932 95.133 51.0549 94.4966 50.7784C93.8602 50.5019 93.3621 50.1098 93.0023 49.6023C92.6424 49.0909 92.4436 48.4848 92.4057 47.7841H94.167C94.2011 48.2045 94.3375 48.5549 94.5761 48.8352C94.8186 49.1117 95.1273 49.3182 95.5023 49.4545C95.8811 49.5871 96.2958 49.6534 96.7466 49.6534C97.2428 49.6534 97.6841 49.5758 98.0705 49.4205C98.4606 49.2614 98.7674 49.0417 98.9909 48.7614C99.2144 48.4773 99.3261 48.1458 99.3261 47.767C99.3261 47.4223 99.2277 47.1402 99.0307 46.9205C98.8375 46.7008 98.5742 46.5189 98.2409 46.375C97.9114 46.2311 97.5383 46.1042 97.1216 45.9943L95.7466 45.6193C94.8148 45.3655 94.0761 44.9924 93.5307 44.5C92.989 44.0076 92.7182 43.3561 92.7182 42.5455C92.7182 41.875 92.9 41.2898 93.2636 40.7898C93.6273 40.2898 94.1197 39.9015 94.7409 39.625C95.3621 39.3447 96.0629 39.2045 96.8432 39.2045C97.6311 39.2045 98.3261 39.3428 98.9284 39.6193C99.5345 39.8958 100.012 40.2765 100.36 40.7614C100.709 41.2424 100.891 41.7955 100.906 42.4205H99.2125ZM107.2 42.2727V43.6364H102.433V42.2727H107.2ZM103.712 40.1818H105.411V48.4375C105.411 48.767 105.46 49.0152 105.558 49.1818C105.657 49.3447 105.784 49.4564 105.939 49.517C106.098 49.5739 106.27 49.6023 106.456 49.6023C106.592 49.6023 106.712 49.5928 106.814 49.5739C106.916 49.5549 106.996 49.5398 107.053 49.5284L107.359 50.9318C107.261 50.9697 107.121 51.0076 106.939 51.0455C106.757 51.0871 106.53 51.1098 106.257 51.1136C105.81 51.1212 105.393 51.0417 105.007 50.875C104.621 50.7083 104.308 50.4508 104.07 50.1023C103.831 49.7538 103.712 49.3163 103.712 48.7898V40.1818ZM112.762 51.1761C111.944 51.1761 111.23 50.9886 110.62 50.6136C110.01 50.2386 109.537 49.714 109.199 49.0398C108.862 48.3655 108.694 47.5777 108.694 46.6761C108.694 45.7708 108.862 44.9792 109.199 44.3011C109.537 43.6231 110.01 43.0966 110.62 42.7216C111.23 42.3466 111.944 42.1591 112.762 42.1591C113.58 42.1591 114.294 42.3466 114.904 42.7216C115.514 43.0966 115.987 43.6231 116.324 44.3011C116.662 44.9792 116.83 45.7708 116.83 46.6761C116.83 47.5777 116.662 48.3655 116.324 49.0398C115.987 49.714 115.514 50.2386 114.904 50.6136C114.294 50.9886 113.58 51.1761 112.762 51.1761ZM112.768 49.75C113.298 49.75 113.737 49.6098 114.086 49.3295C114.434 49.0492 114.692 48.6761 114.859 48.2102C115.029 47.7443 115.114 47.2311 115.114 46.6705C115.114 46.1136 115.029 45.6023 114.859 45.1364C114.692 44.6667 114.434 44.2898 114.086 44.0057C113.737 43.7216 113.298 43.5795 112.768 43.5795C112.234 43.5795 111.79 43.7216 111.438 44.0057C111.09 44.2898 110.83 44.6667 110.66 45.1364C110.493 45.6023 110.41 46.1136 110.41 46.6705C110.41 47.2311 110.493 47.7443 110.66 48.2102C110.83 48.6761 111.09 49.0492 111.438 49.3295C111.79 49.6098 112.234 49.75 112.768 49.75ZM118.826 51V42.2727H120.468V43.6591H120.559C120.718 43.1894 120.999 42.8201 121.4 42.5511C121.806 42.2784 122.264 42.142 122.775 42.142C122.881 42.142 123.006 42.1458 123.15 42.1534C123.298 42.161 123.414 42.1705 123.497 42.1818V43.8068C123.429 43.7879 123.307 43.767 123.133 43.7443C122.959 43.7178 122.785 43.7045 122.611 43.7045C122.209 43.7045 121.851 43.7898 121.537 43.9602C121.226 44.1269 120.98 44.3598 120.798 44.6591C120.616 44.9545 120.525 45.2917 120.525 45.6705V51H118.826ZM128.516 51.1761C127.656 51.1761 126.916 50.9924 126.294 50.625C125.677 50.2538 125.2 49.733 124.863 49.0625C124.529 48.3883 124.363 47.5985 124.363 46.6932C124.363 45.7992 124.529 45.0114 124.863 44.3295C125.2 43.6477 125.669 43.1155 126.272 42.733C126.878 42.3504 127.586 42.1591 128.397 42.1591C128.889 42.1591 129.366 42.2405 129.828 42.4034C130.291 42.5663 130.705 42.822 131.073 43.1705C131.44 43.5189 131.73 43.9716 131.942 44.5284C132.154 45.0814 132.26 45.7538 132.26 46.5455V47.1477H125.323V45.875H130.595C130.595 45.428 130.505 45.0322 130.323 44.6875C130.141 44.339 129.885 44.0644 129.556 43.8636C129.23 43.6629 128.847 43.5625 128.408 43.5625C127.931 43.5625 127.514 43.6799 127.158 43.9148C126.806 44.1458 126.533 44.4489 126.34 44.8239C126.15 45.1951 126.056 45.5985 126.056 46.0341V47.0284C126.056 47.6117 126.158 48.108 126.363 48.517C126.571 48.9261 126.861 49.2386 127.232 49.4545C127.603 49.6667 128.037 49.7727 128.533 49.7727C128.855 49.7727 129.148 49.7273 129.414 49.6364C129.679 49.5417 129.908 49.4015 130.101 49.2159C130.294 49.0303 130.442 48.8011 130.544 48.5284L132.152 48.8182C132.023 49.2917 131.792 49.7064 131.459 50.0625C131.13 50.4148 130.715 50.6894 130.215 50.8864C129.719 51.0795 129.152 51.1761 128.516 51.1761Z" fill="#181D27"/>
</svg>
