<svg width="164" height="72" viewBox="0 0 164 72" fill="none" xmlns="http://www.w3.org/2000/svg">
<rect width="164" height="72" rx="16" fill="white" fill-opacity="0.2"/>
<path d="M20.5602 21.2793L34.4202 35.0393L38.2202 31.2393L21.4202 21.5393C21.1402 21.3768 20.8402 21.2868 20.5602 21.2793ZM19.4002 21.9193C19.2752 22.1418 19.2002 22.4043 19.2002 22.6993V49.4393C19.2002 49.6543 19.2452 49.8468 19.3202 50.0193L33.5002 35.9393L19.4002 21.9193ZM39.3802 31.8993L35.3202 35.9393L39.3802 39.9593L44.3402 37.1193C45.0452 36.7118 45.1452 36.1943 45.1402 35.9193C45.1327 35.4643 44.8452 35.0393 44.3602 34.7793C43.9377 34.5518 40.8002 32.7243 39.3802 31.8993ZM34.4202 36.8393L20.4402 50.6993C20.6727 50.6868 20.9252 50.6368 21.1602 50.4993C21.7077 50.1818 32.7802 43.7793 32.7802 43.7793L38.2402 40.6393L34.4202 36.8393Z" fill="#181D27"/>
<path d="M60.4943 30.1392C59.8381 30.1392 59.2531 30.0265 58.7393 29.8011C58.2289 29.5758 57.8229 29.2625 57.5213 28.8615C57.223 28.4571 57.0606 27.9882 57.0341 27.4545H58.2869C58.3134 27.7827 58.4261 28.0661 58.625 28.3047C58.8239 28.54 59.084 28.7223 59.4055 28.8516C59.727 28.9808 60.0833 29.0455 60.4744 29.0455C60.9119 29.0455 61.2997 28.9692 61.6378 28.8168C61.9759 28.6643 62.241 28.4522 62.4332 28.1804C62.6255 27.9086 62.7216 27.5938 62.7216 27.2358C62.7216 26.8613 62.6288 26.5315 62.4432 26.2464C62.2576 25.9581 61.9858 25.7327 61.6278 25.5703C61.2699 25.4079 60.8324 25.3267 60.3153 25.3267H59.5V24.233H60.3153C60.7197 24.233 61.0743 24.16 61.3793 24.0142C61.6875 23.8684 61.9278 23.6629 62.1001 23.3977C62.2758 23.1326 62.3636 22.821 62.3636 22.4631C62.3636 22.1184 62.2874 21.8184 62.1349 21.5632C61.9825 21.308 61.767 21.1091 61.4886 20.9666C61.2135 20.8241 60.8887 20.7528 60.5142 20.7528C60.1629 20.7528 59.8314 20.8175 59.5199 20.9467C59.2116 21.0727 58.9598 21.2566 58.7642 21.4986C58.5687 21.7372 58.4626 22.0256 58.446 22.3636H57.2528C57.2727 21.83 57.4335 21.3627 57.7351 20.9616C58.0367 20.5573 58.4311 20.2424 58.9183 20.017C59.4089 19.7917 59.9474 19.679 60.5341 19.679C61.1638 19.679 61.7041 19.8066 62.1548 20.0618C62.6056 20.3137 62.9519 20.6468 63.1939 21.0611C63.4358 21.4754 63.5568 21.9228 63.5568 22.4034C63.5568 22.9768 63.406 23.4657 63.1044 23.87C62.8061 24.2744 62.4001 24.5545 61.8864 24.7102V24.7898C62.5294 24.8958 63.0315 25.1693 63.3928 25.6101C63.754 26.0476 63.9347 26.5895 63.9347 27.2358C63.9347 27.7893 63.7839 28.2865 63.4822 28.7273C63.1839 29.1648 62.7763 29.5095 62.2592 29.7614C61.7422 30.0133 61.1539 30.1392 60.4943 30.1392ZM68.4351 30.179C67.9512 30.179 67.512 30.0878 67.1176 29.9055C66.7232 29.7199 66.41 29.4531 66.178 29.1051C65.946 28.7538 65.83 28.3295 65.83 27.8324C65.83 27.3949 65.9161 27.0402 66.0885 26.7685C66.2608 26.4934 66.4912 26.2779 66.7795 26.1222C67.0679 25.9664 67.3861 25.8504 67.7341 25.7741C68.0854 25.6946 68.4384 25.6316 68.793 25.5852C69.2571 25.5256 69.6332 25.4808 69.9216 25.451C70.2133 25.4179 70.4254 25.3632 70.558 25.2869C70.6938 25.2107 70.7618 25.0781 70.7618 24.8892V24.8494C70.7618 24.3589 70.6276 23.9777 70.3591 23.706C70.0939 23.4342 69.6912 23.2983 69.151 23.2983C68.5909 23.2983 68.1517 23.4209 67.8335 23.6662C67.5153 23.9115 67.2916 24.1733 67.1624 24.4517L66.0487 24.054C66.2476 23.59 66.5127 23.2287 66.8442 22.9702C67.1789 22.7083 67.5435 22.526 67.9379 22.4233C68.3357 22.3172 68.7268 22.2642 69.1112 22.2642C69.3565 22.2642 69.6382 22.294 69.9564 22.3537C70.2779 22.41 70.5878 22.5277 70.8861 22.7067C71.1877 22.8857 71.4379 23.1558 71.6368 23.517C71.8357 23.8783 71.9351 24.3622 71.9351 24.9688V30H70.7618V28.9659H70.7021C70.6226 29.1316 70.49 29.3089 70.3044 29.4979C70.1188 29.6868 69.8719 29.8475 69.5636 29.9801C69.2554 30.1127 68.8792 30.179 68.4351 30.179ZM68.6141 29.125C69.0781 29.125 69.4692 29.0339 69.7874 28.8516C70.1089 28.6693 70.3508 28.4339 70.5132 28.1456C70.6789 27.8572 70.7618 27.554 70.7618 27.2358V26.1619C70.7121 26.2216 70.6027 26.2763 70.4337 26.326C70.2679 26.3724 70.0757 26.4138 69.857 26.4503C69.6415 26.4834 69.4311 26.5133 69.2256 26.5398C69.0234 26.563 68.8593 26.5829 68.7334 26.5994C68.4285 26.6392 68.1434 26.7038 67.8783 26.7933C67.6164 26.8795 67.4043 27.0104 67.2419 27.1861C67.0828 27.3584 67.0033 27.5937 67.0033 27.892C67.0033 28.2997 67.1541 28.608 67.4557 28.8168C67.7606 29.0223 68.1467 29.125 68.6141 29.125ZM78.9897 22.3636V23.4574H75.4499V30H74.2766V22.3636H78.9897ZM80.9024 32.8636V22.3636H82.0359V23.5767H82.1751C82.2613 23.4441 82.3806 23.2751 82.5331 23.0696C82.6888 22.8608 82.9109 22.6752 83.1993 22.5128C83.4909 22.3471 83.8853 22.2642 84.3825 22.2642C85.0255 22.2642 85.5922 22.425 86.0828 22.7464C86.5733 23.0679 86.9561 23.5237 87.2312 24.1136C87.5063 24.7036 87.6439 25.3996 87.6439 26.2017C87.6439 27.0104 87.5063 27.7114 87.2312 28.3047C86.9561 28.8946 86.575 29.352 86.0877 29.6768C85.6005 29.9983 85.0387 30.1591 84.4024 30.1591C83.9118 30.1591 83.5191 30.0779 83.2241 29.9155C82.9291 29.7498 82.7021 29.5625 82.543 29.3537C82.3839 29.1416 82.2613 28.9659 82.1751 28.8267H82.0757V32.8636H80.9024ZM82.0558 26.1818C82.0558 26.7585 82.1403 27.2673 82.3093 27.7081C82.4784 28.1456 82.7253 28.4886 83.0501 28.7372C83.3749 28.9825 83.7726 29.1051 84.2433 29.1051C84.7338 29.1051 85.1431 28.9759 85.4713 28.7173C85.8027 28.4555 86.0513 28.1042 86.217 27.6634C86.386 27.2192 86.4706 26.7254 86.4706 26.1818C86.4706 25.6449 86.3877 25.161 86.222 24.7301C86.0596 24.2959 85.8127 23.9529 85.4812 23.701C85.1531 23.4458 84.7404 23.3182 84.2433 23.3182C83.766 23.3182 83.365 23.4392 83.0402 23.6811C82.7154 23.9197 82.4701 24.2545 82.3044 24.6854C82.1386 25.1129 82.0558 25.6117 82.0558 26.1818ZM90.1159 32.8636C89.917 32.8636 89.7397 32.8471 89.5839 32.8139C89.4281 32.7841 89.3204 32.7543 89.2608 32.7244L89.5591 31.6903C89.8441 31.7633 90.096 31.7898 90.3147 31.7699C90.5335 31.75 90.7274 31.6522 90.8964 31.4766C91.0688 31.3042 91.2262 31.0241 91.3687 30.6364L91.5875 30.0398L88.7636 22.3636H90.0363L92.1443 28.4489H92.2238L94.3318 22.3636H95.6045L92.363 31.1136C92.2172 31.508 92.0366 31.8345 91.8211 32.093C91.6057 32.3549 91.3555 32.5488 91.0704 32.6747C90.7887 32.8007 90.4705 32.8636 90.1159 32.8636ZM96.8759 28.0511H98.1287C98.1552 28.3958 98.311 28.6577 98.5961 28.8366C98.8844 29.0156 99.2589 29.1051 99.7196 29.1051C100.19 29.1051 100.593 29.009 100.928 28.8168C101.262 28.6212 101.43 28.3063 101.43 27.8722C101.43 27.617 101.367 27.3949 101.241 27.206C101.115 27.0137 100.938 26.8646 100.709 26.7585C100.48 26.6525 100.21 26.5994 99.8986 26.5994H98.5861V25.5455H99.8986C100.366 25.5455 100.711 25.4394 100.933 25.2273C101.158 25.0152 101.271 24.75 101.271 24.4318C101.271 24.0904 101.15 23.817 100.908 23.6115C100.666 23.4027 100.323 23.2983 99.8787 23.2983C99.4313 23.2983 99.0584 23.3994 98.7601 23.6016C98.4618 23.8004 98.3044 24.0573 98.2878 24.3722H97.0549C97.0681 23.9612 97.1941 23.5982 97.4327 23.2834C97.6713 22.9652 97.9962 22.7166 98.4071 22.5376C98.8181 22.3554 99.2888 22.2642 99.8191 22.2642C100.356 22.2642 100.822 22.3587 101.216 22.5476C101.614 22.7332 101.92 22.9867 102.136 23.3082C102.355 23.6264 102.464 23.9877 102.464 24.392C102.464 24.8229 102.343 25.1709 102.101 25.4361C101.859 25.7012 101.556 25.8902 101.191 26.0028V26.0824C101.48 26.1023 101.73 26.1951 101.942 26.3608C102.157 26.5232 102.325 26.737 102.444 27.0021C102.563 27.264 102.623 27.554 102.623 27.8722C102.623 28.3362 102.499 28.7405 102.25 29.0852C102.002 29.4266 101.66 29.6918 101.226 29.8807C100.792 30.0663 100.296 30.1591 99.7395 30.1591C99.1993 30.1591 98.7154 30.0713 98.2878 29.8956C97.8603 29.7166 97.5205 29.4697 97.2686 29.1548C97.0201 28.8366 96.8891 28.4688 96.8759 28.0511ZM105.644 28.2699L109.323 22.3636H110.676V30H109.502V24.0938L105.843 30H104.471V22.3636H105.644V28.2699ZM111.986 23.4574V22.3636H118.19V23.4574H115.684V30H114.511V23.4574H111.986ZM122.907 30.1591C122.171 30.1591 121.536 29.9967 121.003 29.6719C120.472 29.3438 120.063 28.8864 119.775 28.2997C119.49 27.7098 119.347 27.0237 119.347 26.2415C119.347 25.4593 119.49 24.7699 119.775 24.1733C120.063 23.5734 120.464 23.1061 120.978 22.7713C121.495 22.4332 122.098 22.2642 122.787 22.2642C123.185 22.2642 123.578 22.3305 123.966 22.4631C124.354 22.5956 124.707 22.8111 125.025 23.1094C125.343 23.4044 125.596 23.7955 125.785 24.2827C125.974 24.7699 126.069 25.3698 126.069 26.0824V26.5795H120.182V25.5653H124.876C124.876 25.1345 124.789 24.75 124.617 24.4119C124.448 24.0739 124.206 23.8071 123.891 23.6115C123.58 23.416 123.212 23.3182 122.787 23.3182C122.32 23.3182 121.916 23.4342 121.574 23.6662C121.236 23.8949 120.976 24.1932 120.794 24.5611C120.612 24.929 120.52 25.3234 120.52 25.7443V26.4205C120.52 26.9972 120.62 27.486 120.819 27.8871C121.021 28.2848 121.301 28.5881 121.659 28.7969C122.017 29.0024 122.433 29.1051 122.907 29.1051C123.215 29.1051 123.493 29.062 123.742 28.9759C123.994 28.8864 124.211 28.7538 124.393 28.5781C124.576 28.3991 124.716 28.1771 124.816 27.9119L125.949 28.2301C125.83 28.6146 125.63 28.9527 125.348 29.2443C125.066 29.5327 124.718 29.758 124.304 29.9205C123.89 30.0795 123.424 30.1591 122.907 30.1591ZM132.191 30V22.3636H135.313C136.135 22.3636 136.788 22.5492 137.272 22.9205C137.756 23.2917 137.998 23.7822 137.998 24.392C137.998 24.8561 137.86 25.2157 137.585 25.4709C137.31 25.7228 136.957 25.8935 136.526 25.983C136.808 26.0227 137.081 26.1222 137.347 26.2812C137.615 26.4403 137.837 26.6591 138.013 26.9375C138.188 27.2126 138.276 27.5507 138.276 27.9517C138.276 28.3428 138.177 28.6925 137.978 29.0007C137.779 29.3089 137.494 29.5526 137.123 29.7315C136.752 29.9105 136.308 30 135.79 30H132.191ZM133.305 28.9261H135.79C136.195 28.9261 136.511 28.83 136.74 28.6378C136.969 28.4455 137.083 28.1837 137.083 27.8523C137.083 27.4579 136.969 27.148 136.74 26.9226C136.511 26.6939 136.195 26.5795 135.79 26.5795H133.305V28.9261ZM133.305 25.5653H135.313C135.628 25.5653 135.898 25.5223 136.124 25.4361C136.349 25.3466 136.521 25.2206 136.641 25.0582C136.763 24.8925 136.825 24.697 136.825 24.4716C136.825 24.1501 136.69 23.8982 136.422 23.7159C136.153 23.5303 135.784 23.4375 135.313 23.4375H133.305V25.5653Z" fill="#181D27"/>
<path d="M65.1534 43.0398C65.0436 42.6951 64.8958 42.3864 64.7102 42.1136C64.5284 41.8371 64.3106 41.6023 64.0568 41.4091C63.803 41.2121 63.5133 41.0625 63.1875 40.9602C62.8655 40.858 62.5114 40.8068 62.125 40.8068C61.4697 40.8068 60.8788 40.9754 60.3523 41.3125C59.8258 41.6496 59.4091 42.1439 59.1023 42.7955C58.7992 43.4432 58.6477 44.2367 58.6477 45.1761C58.6477 46.1193 58.8011 46.9167 59.108 47.5682C59.4148 48.2197 59.8352 48.714 60.3693 49.0511C60.9034 49.3883 61.5114 49.5568 62.1932 49.5568C62.8258 49.5568 63.3769 49.428 63.8466 49.1705C64.3201 48.9129 64.6856 48.5492 64.9432 48.0795C65.2045 47.6061 65.3352 47.0492 65.3352 46.4091L65.7898 46.4943H62.4602V45.0455H67.0341V46.3693C67.0341 47.3466 66.8258 48.1951 66.4091 48.9148C65.9962 49.6307 65.4242 50.1837 64.6932 50.5739C63.9659 50.964 63.1326 51.1591 62.1932 51.1591C61.1402 51.1591 60.2159 50.9167 59.4205 50.4318C58.6288 49.947 58.0114 49.2595 57.5682 48.3693C57.125 47.4754 56.9034 46.4148 56.9034 45.1875C56.9034 44.2595 57.0322 43.4261 57.2898 42.6875C57.5473 41.9489 57.9091 41.322 58.375 40.8068C58.8447 40.2879 59.3958 39.892 60.0284 39.6193C60.6648 39.3428 61.3598 39.2045 62.1136 39.2045C62.7424 39.2045 63.3277 39.2973 63.8693 39.483C64.4148 39.6686 64.8996 39.9318 65.3239 40.2727C65.7519 40.6136 66.1061 41.0189 66.3864 41.4886C66.6667 41.9545 66.8561 42.4716 66.9545 43.0398H65.1534ZM72.9026 51.1761C72.0844 51.1761 71.3704 50.9886 70.7605 50.6136C70.1507 50.2386 69.6772 49.714 69.3401 49.0398C69.0029 48.3655 68.8344 47.5777 68.8344 46.6761C68.8344 45.7708 69.0029 44.9792 69.3401 44.3011C69.6772 43.6231 70.1507 43.0966 70.7605 42.7216C71.3704 42.3466 72.0844 42.1591 72.9026 42.1591C73.7207 42.1591 74.4348 42.3466 75.0446 42.7216C75.6545 43.0966 76.1279 43.6231 76.4651 44.3011C76.8022 44.9792 76.9707 45.7708 76.9707 46.6761C76.9707 47.5777 76.8022 48.3655 76.4651 49.0398C76.1279 49.714 75.6545 50.2386 75.0446 50.6136C74.4348 50.9886 73.7207 51.1761 72.9026 51.1761ZM72.9082 49.75C73.4385 49.75 73.8779 49.6098 74.2264 49.3295C74.5749 49.0492 74.8325 48.6761 74.9991 48.2102C75.1696 47.7443 75.2548 47.2311 75.2548 46.6705C75.2548 46.1136 75.1696 45.6023 74.9991 45.1364C74.8325 44.6667 74.5749 44.2898 74.2264 44.0057C73.8779 43.7216 73.4385 43.5795 72.9082 43.5795C72.3741 43.5795 71.931 43.7216 71.5787 44.0057C71.2302 44.2898 70.9707 44.6667 70.8003 45.1364C70.6336 45.6023 70.5503 46.1136 70.5503 46.6705C70.5503 47.2311 70.6336 47.7443 70.8003 48.2102C70.9707 48.6761 71.2302 49.0492 71.5787 49.3295C71.931 49.6098 72.3741 49.75 72.9082 49.75ZM82.6432 51.1761C81.825 51.1761 81.111 50.9886 80.5011 50.6136C79.8913 50.2386 79.4178 49.714 79.0807 49.0398C78.7436 48.3655 78.575 47.5777 78.575 46.6761C78.575 45.7708 78.7436 44.9792 79.0807 44.3011C79.4178 43.6231 79.8913 43.0966 80.5011 42.7216C81.111 42.3466 81.825 42.1591 82.6432 42.1591C83.4614 42.1591 84.1754 42.3466 84.7852 42.7216C85.3951 43.0966 85.8686 43.6231 86.2057 44.3011C86.5428 44.9792 86.7114 45.7708 86.7114 46.6761C86.7114 47.5777 86.5428 48.3655 86.2057 49.0398C85.8686 49.714 85.3951 50.2386 84.7852 50.6136C84.1754 50.9886 83.4614 51.1761 82.6432 51.1761ZM82.6489 49.75C83.1792 49.75 83.6186 49.6098 83.967 49.3295C84.3155 49.0492 84.5731 48.6761 84.7398 48.2102C84.9102 47.7443 84.9955 47.2311 84.9955 46.6705C84.9955 46.1136 84.9102 45.6023 84.7398 45.1364C84.5731 44.6667 84.3155 44.2898 83.967 44.0057C83.6186 43.7216 83.1792 43.5795 82.6489 43.5795C82.1148 43.5795 81.6716 43.7216 81.3193 44.0057C80.9708 44.2898 80.7114 44.6667 80.5409 45.1364C80.3742 45.6023 80.2909 46.1136 80.2909 46.6705C80.2909 47.2311 80.3742 47.7443 80.5409 48.2102C80.7114 48.6761 80.9708 49.0492 81.3193 49.3295C81.6716 49.6098 82.1148 49.75 82.6489 49.75ZM92.3668 54.4545C91.6736 54.4545 91.077 54.3636 90.577 54.1818C90.0808 54 89.6755 53.7595 89.3611 53.4602C89.0467 53.161 88.8118 52.8333 88.6565 52.4773L90.1168 51.875C90.219 52.0417 90.3554 52.2178 90.5259 52.4034C90.7001 52.5928 90.9349 52.7538 91.2304 52.8864C91.5296 53.0189 91.9141 53.0852 92.3838 53.0852C93.0277 53.0852 93.5599 52.928 93.9804 52.6136C94.4009 52.303 94.6111 51.8068 94.6111 51.125V49.4091H94.5031C94.4009 49.5947 94.2531 49.8011 94.0599 50.0284C93.8705 50.2557 93.6092 50.4527 93.2759 50.6193C92.9425 50.786 92.5088 50.8693 91.9747 50.8693C91.2853 50.8693 90.6641 50.7083 90.1111 50.3864C89.5618 50.0606 89.1262 49.5814 88.8043 48.9489C88.4861 48.3125 88.327 47.5303 88.327 46.6023C88.327 45.6742 88.4842 44.8788 88.7986 44.2159C89.1168 43.553 89.5524 43.0455 90.1054 42.6932C90.6584 42.3371 91.2853 42.1591 91.9861 42.1591C92.5277 42.1591 92.9652 42.25 93.2986 42.4318C93.6319 42.6098 93.8914 42.8182 94.077 43.0568C94.2664 43.2955 94.4122 43.5057 94.5145 43.6875H94.6395V42.2727H96.3043V51.1932C96.3043 51.9432 96.13 52.5587 95.7815 53.0398C95.433 53.5208 94.9615 53.8769 94.3668 54.108C93.7759 54.339 93.1092 54.4545 92.3668 54.4545ZM92.3497 49.4602C92.8384 49.4602 93.2512 49.3466 93.5884 49.1193C93.9293 48.8883 94.1868 48.5587 94.3611 48.1307C94.5391 47.6989 94.6281 47.1818 94.6281 46.5795C94.6281 45.9924 94.541 45.4754 94.3668 45.0284C94.1925 44.5814 93.9368 44.233 93.5997 43.983C93.2626 43.7292 92.8459 43.6023 92.3497 43.6023C91.8384 43.6023 91.4122 43.7348 91.0713 44C90.7304 44.2614 90.4728 44.6174 90.2986 45.0682C90.1281 45.5189 90.0429 46.0227 90.0429 46.5795C90.0429 47.1515 90.13 47.6534 90.3043 48.0852C90.4785 48.517 90.7361 48.8542 91.077 49.0966C91.4217 49.339 91.8459 49.4602 92.3497 49.4602ZM100.382 39.3636V51H98.6827V39.3636H100.382ZM106.528 51.1761C105.669 51.1761 104.928 50.9924 104.307 50.625C103.689 50.2538 103.212 49.733 102.875 49.0625C102.542 48.3883 102.375 47.5985 102.375 46.6932C102.375 45.7992 102.542 45.0114 102.875 44.3295C103.212 43.6477 103.682 43.1155 104.284 42.733C104.89 42.3504 105.598 42.1591 106.409 42.1591C106.902 42.1591 107.379 42.2405 107.841 42.4034C108.303 42.5663 108.718 42.822 109.085 43.1705C109.453 43.5189 109.742 43.9716 109.955 44.5284C110.167 45.0814 110.273 45.7538 110.273 46.5455V47.1477H103.335V45.875H108.608C108.608 45.428 108.517 45.0322 108.335 44.6875C108.153 44.339 107.898 44.0644 107.568 43.8636C107.242 43.6629 106.86 43.5625 106.42 43.5625C105.943 43.5625 105.527 43.6799 105.17 43.9148C104.818 44.1458 104.545 44.4489 104.352 44.8239C104.163 45.1951 104.068 45.5985 104.068 46.0341V47.0284C104.068 47.6117 104.17 48.108 104.375 48.517C104.583 48.9261 104.873 49.2386 105.244 49.4545C105.616 49.6667 106.049 49.7727 106.545 49.7727C106.867 49.7727 107.161 49.7273 107.426 49.6364C107.691 49.5417 107.92 49.4015 108.114 49.2159C108.307 49.0303 108.455 48.8011 108.557 48.5284L110.165 48.8182C110.036 49.2917 109.805 49.7064 109.472 50.0625C109.142 50.4148 108.727 50.6894 108.227 50.8864C107.731 51.0795 107.165 51.1761 106.528 51.1761ZM116.728 51V39.3636H120.876C121.781 39.3636 122.531 39.5284 123.126 39.858C123.721 40.1875 124.166 40.6383 124.461 41.2102C124.757 41.7784 124.905 42.4186 124.905 43.1307C124.905 43.8466 124.755 44.4905 124.456 45.0625C124.16 45.6307 123.713 46.0814 123.115 46.4148C122.52 46.7443 121.772 46.9091 120.87 46.9091H118.018V45.4205H120.711C121.283 45.4205 121.747 45.322 122.103 45.125C122.459 44.9242 122.721 44.6515 122.888 44.3068C123.054 43.9621 123.138 43.5701 123.138 43.1307C123.138 42.6913 123.054 42.3011 122.888 41.9602C122.721 41.6193 122.458 41.3523 122.098 41.1591C121.742 40.9659 121.272 40.8693 120.689 40.8693H118.484V51H116.728ZM128.625 39.3636V51H126.926V39.3636H128.625ZM133.551 51.1932C132.998 51.1932 132.498 51.0909 132.051 50.8864C131.604 50.678 131.249 50.3769 130.988 49.983C130.73 49.589 130.602 49.1061 130.602 48.5341C130.602 48.0417 130.696 47.6364 130.886 47.3182C131.075 47 131.331 46.7481 131.653 46.5625C131.975 46.3769 132.335 46.2367 132.732 46.142C133.13 46.0473 133.535 45.9754 133.948 45.9261C134.471 45.8655 134.895 45.8163 135.221 45.7784C135.547 45.7367 135.784 45.6705 135.931 45.5795C136.079 45.4886 136.153 45.3409 136.153 45.1364V45.0966C136.153 44.6004 136.013 44.2159 135.732 43.9432C135.456 43.6705 135.043 43.5341 134.494 43.5341C133.922 43.5341 133.471 43.661 133.141 43.9148C132.816 44.1648 132.59 44.4432 132.465 44.75L130.869 44.3864C131.058 43.8561 131.335 43.428 131.698 43.1023C132.066 42.7727 132.488 42.5341 132.965 42.3864C133.443 42.2348 133.945 42.1591 134.471 42.1591C134.82 42.1591 135.189 42.2008 135.579 42.2841C135.973 42.3636 136.34 42.5114 136.681 42.7273C137.026 42.9432 137.308 43.2519 137.528 43.6534C137.748 44.0511 137.857 44.5682 137.857 45.2045V51H136.198V49.8068H136.13C136.02 50.0265 135.855 50.2424 135.636 50.4545C135.416 50.6667 135.134 50.8428 134.789 50.983C134.445 51.1231 134.032 51.1932 133.551 51.1932ZM133.92 49.8295C134.39 49.8295 134.791 49.7367 135.124 49.5511C135.462 49.3655 135.717 49.1231 135.891 48.8239C136.07 48.5208 136.159 48.197 136.159 47.8523V46.7273C136.098 46.7879 135.98 46.8447 135.806 46.8977C135.636 46.947 135.441 46.9905 135.221 47.0284C135.001 47.0625 134.787 47.0947 134.579 47.125C134.371 47.1515 134.196 47.1742 134.056 47.1932C133.727 47.2348 133.426 47.3049 133.153 47.4034C132.884 47.5019 132.668 47.6439 132.505 47.8295C132.346 48.0114 132.266 48.2538 132.266 48.5568C132.266 48.9773 132.422 49.2955 132.732 49.5114C133.043 49.7235 133.439 49.8295 133.92 49.8295ZM140.982 54.2727C140.728 54.2727 140.497 54.2519 140.288 54.2102C140.08 54.1723 139.925 54.1307 139.822 54.0852L140.232 52.6932C140.542 52.7765 140.819 52.8125 141.061 52.8011C141.304 52.7898 141.518 52.6989 141.703 52.5284C141.893 52.358 142.059 52.0795 142.203 51.6932L142.413 51.1136L139.22 42.2727H141.038L143.249 49.0455H143.339L145.55 42.2727H147.374L143.777 52.1648C143.61 52.6193 143.398 53.0038 143.141 53.3182C142.883 53.6364 142.576 53.875 142.22 54.0341C141.864 54.1932 141.451 54.2727 140.982 54.2727Z" fill="#181D27"/>
</svg>
