<svg width="32" height="32" viewBox="0 0 32 32" fill="none" xmlns="http://www.w3.org/2000/svg">
<path d="M21.586 2.66669H10.4127C5.55935 2.66669 2.66602 5.56002 2.66602 10.4134V21.5734C2.66602 26.44 5.55935 29.3334 10.4127 29.3334H21.5727C26.426 29.3334 29.3193 26.44 29.3193 21.5867V10.4134C29.3327 5.56002 26.4394 2.66669 21.586 2.66669ZM21.826 19.1334L18.866 22.0934C18.146 22.8134 17.2127 23.16 16.2793 23.16C15.346 23.16 14.3994 22.8 13.6927 22.0934C12.9993 21.4 12.6127 20.48 12.6127 19.5067C12.6127 18.5334 12.9993 17.6 13.6927 16.92L15.5727 15.04C15.9593 14.6534 16.5993 14.6534 16.986 15.04C17.3727 15.4267 17.3727 16.0667 16.986 16.4534L15.106 18.3334C14.786 18.6534 14.6127 19.0667 14.6127 19.5067C14.6127 19.9467 14.786 20.3734 15.106 20.68C15.7593 21.3334 16.8127 21.3334 17.466 20.68L20.426 17.72C22.1193 16.0267 22.1193 13.28 20.426 11.5867C18.7327 9.89335 15.986 9.89335 14.2927 11.5867L11.066 14.8134C10.386 15.4934 10.0127 16.3867 10.0127 17.3334C10.0127 18.28 10.386 19.1867 11.066 19.8534C11.4527 20.24 11.4527 20.88 11.066 21.2667C10.6793 21.6534 10.0393 21.6534 9.65268 21.2667C8.58602 20.24 7.99935 18.84 7.99935 17.3467C7.99935 15.8534 8.57268 14.4534 9.62602 13.4L12.8527 10.1734C15.3194 7.70669 19.346 7.70669 21.8127 10.1734C24.2927 12.64 24.2927 16.6667 21.826 19.1334Z" fill="#9747FF"/>
</svg>
