<svg width="20" height="20" viewBox="0 0 20 20" fill="none" xmlns="http://www.w3.org/2000/svg">
<path d="M14.168 17.7083H5.83464C5.49297 17.7083 5.20964 17.425 5.20964 17.0833C5.20964 16.7417 5.49297 16.4583 5.83464 16.4583H14.168C16.5513 16.4583 17.7096 15.3 17.7096 12.9167V7.08334C17.7096 4.70001 16.5513 3.54167 14.168 3.54167H5.83464C3.4513 3.54167 2.29297 4.70001 2.29297 7.08334C2.29297 7.42501 2.00964 7.70834 1.66797 7.70834C1.3263 7.70834 1.04297 7.42501 1.04297 7.08334C1.04297 4.04167 2.79297 2.29167 5.83464 2.29167H14.168C17.2096 2.29167 18.9596 4.04167 18.9596 7.08334V12.9167C18.9596 15.9583 17.2096 17.7083 14.168 17.7083Z" fill="#535862"/>
<path d="M10.001 10.725C9.30095 10.725 8.59262 10.5083 8.05096 10.0666L5.44262 7.98331C5.17595 7.76664 5.12596 7.37497 5.34262 7.10831C5.55929 6.84164 5.95095 6.79164 6.21761 7.00831L8.82595 9.09164C9.45928 9.59998 10.5343 9.59998 11.1676 9.09164L13.776 7.00831C14.0426 6.79164 14.4426 6.83331 14.6509 7.10831C14.8676 7.37497 14.8259 7.77498 14.5509 7.98331L11.9426 10.0666C11.4093 10.5083 10.701 10.725 10.001 10.725Z" fill="#535862"/>
<path d="M6.66797 14.375H1.66797C1.3263 14.375 1.04297 14.0917 1.04297 13.75C1.04297 13.4083 1.3263 13.125 1.66797 13.125H6.66797C7.00964 13.125 7.29297 13.4083 7.29297 13.75C7.29297 14.0917 7.00964 14.375 6.66797 14.375Z" fill="#535862"/>
<path d="M4.16797 11.0417H1.66797C1.3263 11.0417 1.04297 10.7583 1.04297 10.4167C1.04297 10.075 1.3263 9.79167 1.66797 9.79167H4.16797C4.50964 9.79167 4.79297 10.075 4.79297 10.4167C4.79297 10.7583 4.50964 11.0417 4.16797 11.0417Z" fill="#535862"/>
</svg>
